G04 #@! TF.GenerationSoftware,KiCad,Pcbnew,(5.1.5)-3*
G04 #@! TF.CreationDate,2020-02-24T21:21:35+03:00*
G04 #@! TF.ProjectId,valveControllerPCB,76616c76-6543-46f6-9e74-726f6c6c6572,rev?*
G04 #@! TF.SameCoordinates,Original*
G04 #@! TF.FileFunction,Legend,Top*
G04 #@! TF.FilePolarity,Positive*
%FSLAX46Y46*%
G04 Gerber Fmt 4.6, Leading zero omitted, Abs format (unit mm)*
G04 Created by KiCad (PCBNEW (5.1.5)-3) date 2020-02-24 21:21:35*
%MOMM*%
%LPD*%
G04 APERTURE LIST*
%ADD10C,0.300000*%
%ADD11C,0.250000*%
%ADD12C,0.120000*%
%ADD13C,0.150000*%
G04 APERTURE END LIST*
D10*
X102797648Y-150002857D02*
X104321458Y-150002857D01*
X111369077Y-150002857D02*
X112892886Y-150002857D01*
X112035744Y-150764761D02*
X112226220Y-149240952D01*
X90097648Y-150002857D02*
X91621458Y-150002857D01*
X98669077Y-150002857D02*
X100192886Y-150002857D01*
X99335744Y-150764761D02*
X99526220Y-149240952D01*
X77397648Y-150002857D02*
X78921458Y-150002857D01*
X85969077Y-150002857D02*
X87492886Y-150002857D01*
X86635744Y-150764761D02*
X86826220Y-149240952D01*
X143691458Y-69992857D02*
X145215267Y-69992857D01*
X144358125Y-70754761D02*
X144548601Y-69230952D01*
X149215267Y-69992857D02*
X150739077Y-69992857D01*
X132261458Y-69992857D02*
X133785267Y-69992857D01*
X132928125Y-70754761D02*
X133118601Y-69230952D01*
X137785267Y-69992857D02*
X139309077Y-69992857D01*
X119561458Y-69992857D02*
X121085267Y-69992857D01*
X120228125Y-70754761D02*
X120418601Y-69230952D01*
X125085267Y-69992857D02*
X126609077Y-69992857D01*
X108131458Y-69992857D02*
X109655267Y-69992857D01*
X108798125Y-70754761D02*
X108988601Y-69230952D01*
X113655267Y-69992857D02*
X115179077Y-69992857D01*
X96701458Y-69992857D02*
X98225267Y-69992857D01*
X97368125Y-70754761D02*
X97558601Y-69230952D01*
X102225267Y-69992857D02*
X103749077Y-69992857D01*
D11*
X105403571Y-150327380D02*
X105403571Y-149660714D01*
X105403571Y-149755952D02*
X105451190Y-149708333D01*
X105546428Y-149660714D01*
X105689285Y-149660714D01*
X105784523Y-149708333D01*
X105832142Y-149803571D01*
X105832142Y-150327380D01*
X105832142Y-149803571D02*
X105879761Y-149708333D01*
X105975000Y-149660714D01*
X106117857Y-149660714D01*
X106213095Y-149708333D01*
X106260714Y-149803571D01*
X106260714Y-150327380D01*
X107165476Y-150327380D02*
X107165476Y-149803571D01*
X107117857Y-149708333D01*
X107022619Y-149660714D01*
X106832142Y-149660714D01*
X106736904Y-149708333D01*
X107165476Y-150279761D02*
X107070238Y-150327380D01*
X106832142Y-150327380D01*
X106736904Y-150279761D01*
X106689285Y-150184523D01*
X106689285Y-150089285D01*
X106736904Y-149994047D01*
X106832142Y-149946428D01*
X107070238Y-149946428D01*
X107165476Y-149898809D01*
X107641666Y-150327380D02*
X107641666Y-149660714D01*
X107641666Y-149327380D02*
X107594047Y-149375000D01*
X107641666Y-149422619D01*
X107689285Y-149375000D01*
X107641666Y-149327380D01*
X107641666Y-149422619D01*
X108117857Y-149660714D02*
X108117857Y-150327380D01*
X108117857Y-149755952D02*
X108165476Y-149708333D01*
X108260714Y-149660714D01*
X108403571Y-149660714D01*
X108498809Y-149708333D01*
X108546428Y-149803571D01*
X108546428Y-150327380D01*
X93648809Y-150304761D02*
X93553571Y-150352380D01*
X93363095Y-150352380D01*
X93267857Y-150304761D01*
X93220238Y-150257142D01*
X93172619Y-150161904D01*
X93172619Y-149876190D01*
X93220238Y-149780952D01*
X93267857Y-149733333D01*
X93363095Y-149685714D01*
X93553571Y-149685714D01*
X93648809Y-149733333D01*
X94220238Y-150352380D02*
X94125000Y-150304761D01*
X94077380Y-150257142D01*
X94029761Y-150161904D01*
X94029761Y-149876190D01*
X94077380Y-149780952D01*
X94125000Y-149733333D01*
X94220238Y-149685714D01*
X94363095Y-149685714D01*
X94458333Y-149733333D01*
X94505952Y-149780952D01*
X94553571Y-149876190D01*
X94553571Y-150161904D01*
X94505952Y-150257142D01*
X94458333Y-150304761D01*
X94363095Y-150352380D01*
X94220238Y-150352380D01*
X94982142Y-149685714D02*
X94982142Y-150352380D01*
X94982142Y-149780952D02*
X95029761Y-149733333D01*
X95125000Y-149685714D01*
X95267857Y-149685714D01*
X95363095Y-149733333D01*
X95410714Y-149828571D01*
X95410714Y-150352380D01*
X95744047Y-149685714D02*
X96125000Y-149685714D01*
X95886904Y-149352380D02*
X95886904Y-150209523D01*
X95934523Y-150304761D01*
X96029761Y-150352380D01*
X96125000Y-150352380D01*
X96458333Y-150352380D02*
X96458333Y-149685714D01*
X96458333Y-149876190D02*
X96505952Y-149780952D01*
X96553571Y-149733333D01*
X96648809Y-149685714D01*
X96744047Y-149685714D01*
X97220238Y-150352380D02*
X97125000Y-150304761D01*
X97077380Y-150257142D01*
X97029761Y-150161904D01*
X97029761Y-149876190D01*
X97077380Y-149780952D01*
X97125000Y-149733333D01*
X97220238Y-149685714D01*
X97363095Y-149685714D01*
X97458333Y-149733333D01*
X97505952Y-149780952D01*
X97553571Y-149876190D01*
X97553571Y-150161904D01*
X97505952Y-150257142D01*
X97458333Y-150304761D01*
X97363095Y-150352380D01*
X97220238Y-150352380D01*
X98125000Y-150352380D02*
X98029761Y-150304761D01*
X97982142Y-150209523D01*
X97982142Y-149352380D01*
X80707142Y-150552380D02*
X80707142Y-150028571D01*
X80659523Y-149933333D01*
X80564285Y-149885714D01*
X80373809Y-149885714D01*
X80278571Y-149933333D01*
X80707142Y-150504761D02*
X80611904Y-150552380D01*
X80373809Y-150552380D01*
X80278571Y-150504761D01*
X80230952Y-150409523D01*
X80230952Y-150314285D01*
X80278571Y-150219047D01*
X80373809Y-150171428D01*
X80611904Y-150171428D01*
X80707142Y-150123809D01*
X81183333Y-150552380D02*
X81183333Y-149885714D01*
X81183333Y-150076190D02*
X81230952Y-149980952D01*
X81278571Y-149933333D01*
X81373809Y-149885714D01*
X81469047Y-149885714D01*
X82230952Y-150552380D02*
X82230952Y-149552380D01*
X82230952Y-150504761D02*
X82135714Y-150552380D01*
X81945238Y-150552380D01*
X81850000Y-150504761D01*
X81802380Y-150457142D01*
X81754761Y-150361904D01*
X81754761Y-150076190D01*
X81802380Y-149980952D01*
X81850000Y-149933333D01*
X81945238Y-149885714D01*
X82135714Y-149885714D01*
X82230952Y-149933333D01*
X83135714Y-149885714D02*
X83135714Y-150552380D01*
X82707142Y-149885714D02*
X82707142Y-150409523D01*
X82754761Y-150504761D01*
X82850000Y-150552380D01*
X82992857Y-150552380D01*
X83088095Y-150504761D01*
X83135714Y-150457142D01*
X83611904Y-150552380D02*
X83611904Y-149885714D01*
X83611904Y-149552380D02*
X83564285Y-149600000D01*
X83611904Y-149647619D01*
X83659523Y-149600000D01*
X83611904Y-149552380D01*
X83611904Y-149647619D01*
X84088095Y-149885714D02*
X84088095Y-150552380D01*
X84088095Y-149980952D02*
X84135714Y-149933333D01*
X84230952Y-149885714D01*
X84373809Y-149885714D01*
X84469047Y-149933333D01*
X84516666Y-150028571D01*
X84516666Y-150552380D01*
X85135714Y-150552380D02*
X85040476Y-150504761D01*
X84992857Y-150457142D01*
X84945238Y-150361904D01*
X84945238Y-150076190D01*
X84992857Y-149980952D01*
X85040476Y-149933333D01*
X85135714Y-149885714D01*
X85278571Y-149885714D01*
X85373809Y-149933333D01*
X85421428Y-149980952D01*
X85469047Y-150076190D01*
X85469047Y-150361904D01*
X85421428Y-150457142D01*
X85373809Y-150504761D01*
X85278571Y-150552380D01*
X85135714Y-150552380D01*
X154433333Y-53504761D02*
X154528571Y-53552380D01*
X154719047Y-53552380D01*
X154814285Y-53504761D01*
X154861904Y-53409523D01*
X154861904Y-53361904D01*
X154814285Y-53266666D01*
X154719047Y-53219047D01*
X154576190Y-53219047D01*
X154480952Y-53171428D01*
X154433333Y-53076190D01*
X154433333Y-53028571D01*
X154480952Y-52933333D01*
X154576190Y-52885714D01*
X154719047Y-52885714D01*
X154814285Y-52933333D01*
X155671428Y-53504761D02*
X155576190Y-53552380D01*
X155385714Y-53552380D01*
X155290476Y-53504761D01*
X155242857Y-53409523D01*
X155242857Y-53028571D01*
X155290476Y-52933333D01*
X155385714Y-52885714D01*
X155576190Y-52885714D01*
X155671428Y-52933333D01*
X155719047Y-53028571D01*
X155719047Y-53123809D01*
X155242857Y-53219047D01*
X156147619Y-52885714D02*
X156147619Y-53552380D01*
X156147619Y-52980952D02*
X156195238Y-52933333D01*
X156290476Y-52885714D01*
X156433333Y-52885714D01*
X156528571Y-52933333D01*
X156576190Y-53028571D01*
X156576190Y-53552380D01*
X157004761Y-53504761D02*
X157100000Y-53552380D01*
X157290476Y-53552380D01*
X157385714Y-53504761D01*
X157433333Y-53409523D01*
X157433333Y-53361904D01*
X157385714Y-53266666D01*
X157290476Y-53219047D01*
X157147619Y-53219047D01*
X157052380Y-53171428D01*
X157004761Y-53076190D01*
X157004761Y-53028571D01*
X157052380Y-52933333D01*
X157147619Y-52885714D01*
X157290476Y-52885714D01*
X157385714Y-52933333D01*
X158004761Y-53552380D02*
X157909523Y-53504761D01*
X157861904Y-53457142D01*
X157814285Y-53361904D01*
X157814285Y-53076190D01*
X157861904Y-52980952D01*
X157909523Y-52933333D01*
X158004761Y-52885714D01*
X158147619Y-52885714D01*
X158242857Y-52933333D01*
X158290476Y-52980952D01*
X158338095Y-53076190D01*
X158338095Y-53361904D01*
X158290476Y-53457142D01*
X158242857Y-53504761D01*
X158147619Y-53552380D01*
X158004761Y-53552380D01*
X158766666Y-53552380D02*
X158766666Y-52885714D01*
X158766666Y-53076190D02*
X158814285Y-52980952D01*
X158861904Y-52933333D01*
X158957142Y-52885714D01*
X159052380Y-52885714D01*
X159338095Y-53504761D02*
X159433333Y-53552380D01*
X159623809Y-53552380D01*
X159719047Y-53504761D01*
X159766666Y-53409523D01*
X159766666Y-53361904D01*
X159719047Y-53266666D01*
X159623809Y-53219047D01*
X159480952Y-53219047D01*
X159385714Y-53171428D01*
X159338095Y-53076190D01*
X159338095Y-53028571D01*
X159385714Y-52933333D01*
X159480952Y-52885714D01*
X159623809Y-52885714D01*
X159719047Y-52933333D01*
X77702380Y-53502380D02*
X77702380Y-52502380D01*
X77702380Y-52883333D02*
X77797619Y-52835714D01*
X77988095Y-52835714D01*
X78083333Y-52883333D01*
X78130952Y-52930952D01*
X78178571Y-53026190D01*
X78178571Y-53311904D01*
X78130952Y-53407142D01*
X78083333Y-53454761D01*
X77988095Y-53502380D01*
X77797619Y-53502380D01*
X77702380Y-53454761D01*
X79035714Y-52835714D02*
X79035714Y-53502380D01*
X78607142Y-52835714D02*
X78607142Y-53359523D01*
X78654761Y-53454761D01*
X78750000Y-53502380D01*
X78892857Y-53502380D01*
X78988095Y-53454761D01*
X79035714Y-53407142D01*
X79369047Y-52835714D02*
X79750000Y-52835714D01*
X79511904Y-52502380D02*
X79511904Y-53359523D01*
X79559523Y-53454761D01*
X79654761Y-53502380D01*
X79750000Y-53502380D01*
X79940476Y-52835714D02*
X80321428Y-52835714D01*
X80083333Y-52502380D02*
X80083333Y-53359523D01*
X80130952Y-53454761D01*
X80226190Y-53502380D01*
X80321428Y-53502380D01*
X80797619Y-53502380D02*
X80702380Y-53454761D01*
X80654761Y-53407142D01*
X80607142Y-53311904D01*
X80607142Y-53026190D01*
X80654761Y-52930952D01*
X80702380Y-52883333D01*
X80797619Y-52835714D01*
X80940476Y-52835714D01*
X81035714Y-52883333D01*
X81083333Y-52930952D01*
X81130952Y-53026190D01*
X81130952Y-53311904D01*
X81083333Y-53407142D01*
X81035714Y-53454761D01*
X80940476Y-53502380D01*
X80797619Y-53502380D01*
X81559523Y-52835714D02*
X81559523Y-53502380D01*
X81559523Y-52930952D02*
X81607142Y-52883333D01*
X81702380Y-52835714D01*
X81845238Y-52835714D01*
X81940476Y-52883333D01*
X81988095Y-52978571D01*
X81988095Y-53502380D01*
X82416666Y-53454761D02*
X82511904Y-53502380D01*
X82702380Y-53502380D01*
X82797619Y-53454761D01*
X82845238Y-53359523D01*
X82845238Y-53311904D01*
X82797619Y-53216666D01*
X82702380Y-53169047D01*
X82559523Y-53169047D01*
X82464285Y-53121428D01*
X82416666Y-53026190D01*
X82416666Y-52978571D01*
X82464285Y-52883333D01*
X82559523Y-52835714D01*
X82702380Y-52835714D01*
X82797619Y-52883333D01*
D10*
X127321428Y-129282857D02*
X127250000Y-129202500D01*
X127178571Y-129050714D01*
X127178571Y-128693571D01*
X127250000Y-128559642D01*
X127321428Y-128497142D01*
X127464285Y-128443571D01*
X127607142Y-128461428D01*
X127821428Y-128559642D01*
X128678571Y-129523928D01*
X128678571Y-128595357D01*
X127178571Y-127479285D02*
X127178571Y-127336428D01*
X127250000Y-127202500D01*
X127321428Y-127140000D01*
X127464285Y-127086428D01*
X127750000Y-127050714D01*
X128107142Y-127095357D01*
X128392857Y-127202500D01*
X128535714Y-127291785D01*
X128607142Y-127372142D01*
X128678571Y-127523928D01*
X128678571Y-127666785D01*
X128607142Y-127800714D01*
X128535714Y-127863214D01*
X128392857Y-127916785D01*
X128107142Y-127952500D01*
X127750000Y-127907857D01*
X127464285Y-127800714D01*
X127321428Y-127711428D01*
X127250000Y-127631071D01*
X127178571Y-127479285D01*
X127321428Y-126425714D02*
X127250000Y-126345357D01*
X127178571Y-126193571D01*
X127178571Y-125836428D01*
X127250000Y-125702500D01*
X127321428Y-125640000D01*
X127464285Y-125586428D01*
X127607142Y-125604285D01*
X127821428Y-125702500D01*
X128678571Y-126666785D01*
X128678571Y-125738214D01*
X127178571Y-124622142D02*
X127178571Y-124479285D01*
X127250000Y-124345357D01*
X127321428Y-124282857D01*
X127464285Y-124229285D01*
X127750000Y-124193571D01*
X128107142Y-124238214D01*
X128392857Y-124345357D01*
X128535714Y-124434642D01*
X128607142Y-124515000D01*
X128678571Y-124666785D01*
X128678571Y-124809642D01*
X128607142Y-124943571D01*
X128535714Y-125006071D01*
X128392857Y-125059642D01*
X128107142Y-125095357D01*
X127750000Y-125050714D01*
X127464285Y-124943571D01*
X127321428Y-124854285D01*
X127250000Y-124773928D01*
X127178571Y-124622142D01*
X121503571Y-137948928D02*
X121503571Y-137377500D01*
X122503571Y-137859642D02*
X121217857Y-137698928D01*
X121075000Y-137609642D01*
X121003571Y-137457857D01*
X121003571Y-137315000D01*
X122503571Y-136788214D02*
X122432142Y-136922142D01*
X122360714Y-136984642D01*
X122217857Y-137038214D01*
X121789285Y-136984642D01*
X121646428Y-136895357D01*
X121575000Y-136815000D01*
X121503571Y-136663214D01*
X121503571Y-136448928D01*
X121575000Y-136315000D01*
X121646428Y-136252500D01*
X121789285Y-136198928D01*
X122217857Y-136252500D01*
X122360714Y-136341785D01*
X122432142Y-136422142D01*
X122503571Y-136573928D01*
X122503571Y-136788214D01*
X122503571Y-135645357D02*
X121503571Y-135520357D01*
X121789285Y-135556071D02*
X121646428Y-135466785D01*
X121575000Y-135386428D01*
X121503571Y-135234642D01*
X121503571Y-135091785D01*
X122503571Y-133573928D02*
X121003571Y-133386428D01*
X122075000Y-133020357D01*
X121003571Y-132386428D01*
X122503571Y-132573928D01*
X122432142Y-131279285D02*
X122503571Y-131431071D01*
X122503571Y-131716785D01*
X122432142Y-131850714D01*
X122289285Y-131904285D01*
X121717857Y-131832857D01*
X121575000Y-131743571D01*
X121503571Y-131591785D01*
X121503571Y-131306071D01*
X121575000Y-131172142D01*
X121717857Y-131118571D01*
X121860714Y-131136428D01*
X122003571Y-131868571D01*
X121503571Y-130448928D02*
X123003571Y-130636428D01*
X121575000Y-130457857D02*
X121503571Y-130306071D01*
X121503571Y-130020357D01*
X121575000Y-129886428D01*
X121646428Y-129823928D01*
X121789285Y-129770357D01*
X122217857Y-129823928D01*
X122360714Y-129913214D01*
X122432142Y-129993571D01*
X122503571Y-130145357D01*
X122503571Y-130431071D01*
X122432142Y-130565000D01*
X122503571Y-129216785D02*
X121003571Y-129029285D01*
X122503571Y-128573928D02*
X121717857Y-128475714D01*
X121575000Y-128529285D01*
X121503571Y-128663214D01*
X121503571Y-128877500D01*
X121575000Y-129029285D01*
X121646428Y-129109642D01*
X122503571Y-127859642D02*
X121503571Y-127734642D01*
X121003571Y-127672142D02*
X121075000Y-127752500D01*
X121146428Y-127690000D01*
X121075000Y-127609642D01*
X121003571Y-127672142D01*
X121146428Y-127690000D01*
X122432142Y-127207857D02*
X122503571Y-127073928D01*
X122503571Y-126788214D01*
X122432142Y-126636428D01*
X122289285Y-126547142D01*
X122217857Y-126538214D01*
X122075000Y-126591785D01*
X122003571Y-126725714D01*
X122003571Y-126940000D01*
X121932142Y-127073928D01*
X121789285Y-127127500D01*
X121717857Y-127118571D01*
X121575000Y-127029285D01*
X121503571Y-126877500D01*
X121503571Y-126663214D01*
X121575000Y-126529285D01*
X121503571Y-126020357D02*
X121503571Y-125448928D01*
X121003571Y-125743571D02*
X122289285Y-125904285D01*
X122432142Y-125850714D01*
X122503571Y-125716785D01*
X122503571Y-125573928D01*
X121003571Y-123957857D02*
X121003571Y-123100714D01*
X122503571Y-123716785D02*
X121003571Y-123529285D01*
X122503571Y-122573928D02*
X122432142Y-122707857D01*
X122360714Y-122770357D01*
X122217857Y-122823928D01*
X121789285Y-122770357D01*
X121646428Y-122681071D01*
X121575000Y-122600714D01*
X121503571Y-122448928D01*
X121503571Y-122234642D01*
X121575000Y-122100714D01*
X121646428Y-122038214D01*
X121789285Y-121984642D01*
X122217857Y-122038214D01*
X122360714Y-122127500D01*
X122432142Y-122207857D01*
X122503571Y-122359642D01*
X122503571Y-122573928D01*
X122503571Y-121431071D02*
X121003571Y-121243571D01*
X121932142Y-121216785D02*
X122503571Y-120859642D01*
X121503571Y-120734642D02*
X122075000Y-121377500D01*
X122503571Y-119573928D02*
X121717857Y-119475714D01*
X121575000Y-119529285D01*
X121503571Y-119663214D01*
X121503571Y-119948928D01*
X121575000Y-120100714D01*
X122432142Y-119565000D02*
X122503571Y-119716785D01*
X122503571Y-120073928D01*
X122432142Y-120207857D01*
X122289285Y-120261428D01*
X122146428Y-120243571D01*
X122003571Y-120154285D01*
X121932142Y-120002500D01*
X121932142Y-119645357D01*
X121860714Y-119493571D01*
X122503571Y-118859642D02*
X121503571Y-118734642D01*
X121646428Y-118752500D02*
X121575000Y-118672142D01*
X121503571Y-118520357D01*
X121503571Y-118306071D01*
X121575000Y-118172142D01*
X121717857Y-118118571D01*
X122503571Y-118216785D01*
X121717857Y-118118571D02*
X121575000Y-118029285D01*
X121503571Y-117877500D01*
X121503571Y-117663214D01*
X121575000Y-117529285D01*
X121717857Y-117475714D01*
X122503571Y-117573928D01*
X122503571Y-116216785D02*
X121717857Y-116118571D01*
X121575000Y-116172142D01*
X121503571Y-116306071D01*
X121503571Y-116591785D01*
X121575000Y-116743571D01*
X122432142Y-116207857D02*
X122503571Y-116359642D01*
X122503571Y-116716785D01*
X122432142Y-116850714D01*
X122289285Y-116904285D01*
X122146428Y-116886428D01*
X122003571Y-116797142D01*
X121932142Y-116645357D01*
X121932142Y-116288214D01*
X121860714Y-116136428D01*
X122503571Y-115502500D02*
X121003571Y-115315000D01*
X121932142Y-115288214D02*
X122503571Y-114931071D01*
X121503571Y-114806071D02*
X122075000Y-115448928D01*
X125528571Y-134609642D02*
X124028571Y-134422142D01*
X124600000Y-134493571D02*
X124528571Y-134341785D01*
X124528571Y-134056071D01*
X124600000Y-133922142D01*
X124671428Y-133859642D01*
X124814285Y-133806071D01*
X125242857Y-133859642D01*
X125385714Y-133948928D01*
X125457142Y-134029285D01*
X125528571Y-134181071D01*
X125528571Y-134466785D01*
X125457142Y-134600714D01*
X124528571Y-133270357D02*
X125528571Y-133038214D01*
X124528571Y-132556071D02*
X125528571Y-133038214D01*
X125885714Y-133225714D01*
X125957142Y-133306071D01*
X126028571Y-133457857D01*
X125528571Y-130966785D02*
X124028571Y-130779285D01*
X125100000Y-130413214D01*
X124028571Y-129779285D01*
X125528571Y-129966785D01*
X125528571Y-128609642D02*
X124742857Y-128511428D01*
X124600000Y-128565000D01*
X124528571Y-128698928D01*
X124528571Y-128984642D01*
X124600000Y-129136428D01*
X125457142Y-128600714D02*
X125528571Y-128752500D01*
X125528571Y-129109642D01*
X125457142Y-129243571D01*
X125314285Y-129297142D01*
X125171428Y-129279285D01*
X125028571Y-129190000D01*
X124957142Y-129038214D01*
X124957142Y-128681071D01*
X124885714Y-128529285D01*
X124528571Y-127127500D02*
X125528571Y-127252500D01*
X124528571Y-127770357D02*
X125314285Y-127868571D01*
X125457142Y-127815000D01*
X125528571Y-127681071D01*
X125528571Y-127466785D01*
X125457142Y-127315000D01*
X125385714Y-127234642D01*
X124528571Y-126556071D02*
X125528571Y-126323928D01*
X124528571Y-125841785D01*
X125457142Y-124815000D02*
X125528571Y-124966785D01*
X125528571Y-125252500D01*
X125457142Y-125386428D01*
X125314285Y-125440000D01*
X124742857Y-125368571D01*
X124600000Y-125279285D01*
X124528571Y-125127500D01*
X124528571Y-124841785D01*
X124600000Y-124707857D01*
X124742857Y-124654285D01*
X124885714Y-124672142D01*
X125028571Y-125404285D01*
X124742857Y-123511428D02*
X124742857Y-124011428D01*
X125528571Y-124109642D02*
X124028571Y-123922142D01*
X124028571Y-123207857D01*
X125457142Y-122243571D02*
X125528571Y-122395357D01*
X125528571Y-122681071D01*
X125457142Y-122815000D01*
X125314285Y-122868571D01*
X124742857Y-122797142D01*
X124600000Y-122707857D01*
X124528571Y-122556071D01*
X124528571Y-122270357D01*
X124600000Y-122136428D01*
X124742857Y-122082857D01*
X124885714Y-122100714D01*
X125028571Y-122832857D01*
X125528571Y-121538214D02*
X124528571Y-121413214D01*
X124814285Y-121448928D02*
X124671428Y-121359642D01*
X124600000Y-121279285D01*
X124528571Y-121127500D01*
X124528571Y-120984642D01*
X125528571Y-120609642D02*
X124528571Y-120484642D01*
X124814285Y-120520357D02*
X124671428Y-120431071D01*
X124600000Y-120350714D01*
X124528571Y-120198928D01*
X124528571Y-120056071D01*
X125457142Y-119100714D02*
X125528571Y-119252500D01*
X125528571Y-119538214D01*
X125457142Y-119672142D01*
X125314285Y-119725714D01*
X124742857Y-119654285D01*
X124600000Y-119565000D01*
X124528571Y-119413214D01*
X124528571Y-119127500D01*
X124600000Y-118993571D01*
X124742857Y-118940000D01*
X124885714Y-118957857D01*
X125028571Y-119690000D01*
X124528571Y-118484642D02*
X124528571Y-117913214D01*
X124028571Y-118207857D02*
X125314285Y-118368571D01*
X125457142Y-118315000D01*
X125528571Y-118181071D01*
X125528571Y-118038214D01*
D12*
X153225000Y-61675000D02*
X153725000Y-62175000D01*
X153225000Y-62675000D02*
X153225000Y-61675000D01*
X153725000Y-62175000D02*
X153225000Y-62675000D01*
X170605000Y-70490000D02*
X170605000Y-64815000D01*
X153965000Y-70490000D02*
X153965000Y-64815000D01*
X153965000Y-70490000D02*
X170605000Y-70490000D01*
X170605000Y-54610000D02*
X170605000Y-62315000D01*
X153965000Y-54610000D02*
X153965000Y-62315000D01*
X153965000Y-54610000D02*
X170605000Y-54610000D01*
X120215000Y-94780000D02*
X121865000Y-94780000D01*
X120215000Y-89580000D02*
X120215000Y-94780000D01*
X125515000Y-89580000D02*
X120215000Y-89580000D01*
X125515000Y-94780000D02*
X125515000Y-89580000D01*
X123865000Y-94780000D02*
X125515000Y-94780000D01*
X121865000Y-94780000D02*
G75*
G02X123865000Y-94780000I1000000J0D01*
G01*
X128935000Y-98800000D02*
X128245000Y-98800000D01*
X118315000Y-98800000D02*
X119005000Y-98800000D01*
X128245000Y-97080000D02*
X119005000Y-97080000D01*
X128245000Y-100520000D02*
X128245000Y-97080000D01*
X119005000Y-100520000D02*
X128245000Y-100520000D01*
X119005000Y-97080000D02*
X119005000Y-100520000D01*
X134350000Y-98770000D02*
X134350000Y-98000000D01*
X134350000Y-90690000D02*
X134350000Y-91460000D01*
X135720000Y-98000000D02*
X135720000Y-91460000D01*
X132980000Y-98000000D02*
X135720000Y-98000000D01*
X132980000Y-91460000D02*
X132980000Y-98000000D01*
X135720000Y-91460000D02*
X132980000Y-91460000D01*
X165150000Y-73540000D02*
X165150000Y-74230000D01*
X165150000Y-84160000D02*
X165150000Y-83470000D01*
X163430000Y-74230000D02*
X163430000Y-83470000D01*
X166870000Y-74230000D02*
X163430000Y-74230000D01*
X166870000Y-83470000D02*
X166870000Y-74230000D01*
X163430000Y-83470000D02*
X166870000Y-83470000D01*
X155305000Y-76784000D02*
X156815000Y-76784000D01*
X155305000Y-80485000D02*
X156815000Y-80485000D01*
X156815000Y-83755000D02*
X156815000Y-73515000D01*
X155305000Y-73515000D02*
X159946000Y-73515000D01*
X155305000Y-83755000D02*
X159946000Y-83755000D01*
X159946000Y-83755000D02*
X159946000Y-73515000D01*
X155305000Y-83755000D02*
X155305000Y-73515000D01*
X105770000Y-66995000D02*
X105770000Y-54255000D01*
X105770000Y-54255000D02*
X95530000Y-54255000D01*
X95530000Y-66995000D02*
X95530000Y-54255000D01*
X105770000Y-66995000D02*
X95530000Y-66995000D01*
X105770000Y-66995000D02*
X105770000Y-54255000D01*
X105770000Y-54255000D02*
X95530000Y-54255000D01*
X95530000Y-66995000D02*
X95530000Y-54255000D01*
X105770000Y-66995000D02*
X95530000Y-66995000D01*
X106150000Y-67375000D02*
X103150000Y-67375000D01*
X106150000Y-64375000D02*
X106150000Y-67375000D01*
X78234000Y-136139000D02*
X78234000Y-148879000D01*
X78234000Y-148879000D02*
X88474000Y-148879000D01*
X88474000Y-136139000D02*
X88474000Y-148879000D01*
X78234000Y-136139000D02*
X88474000Y-136139000D01*
X78234000Y-136139000D02*
X78234000Y-148879000D01*
X78234000Y-148879000D02*
X88474000Y-148879000D01*
X88474000Y-136139000D02*
X88474000Y-148879000D01*
X78234000Y-136139000D02*
X88474000Y-136139000D01*
X77854000Y-135759000D02*
X80854000Y-135759000D01*
X77854000Y-138759000D02*
X77854000Y-135759000D01*
X90045000Y-136139000D02*
X90045000Y-148879000D01*
X90045000Y-148879000D02*
X100285000Y-148879000D01*
X100285000Y-136139000D02*
X100285000Y-148879000D01*
X90045000Y-136139000D02*
X100285000Y-136139000D01*
X90045000Y-136139000D02*
X90045000Y-148879000D01*
X90045000Y-148879000D02*
X100285000Y-148879000D01*
X100285000Y-136139000D02*
X100285000Y-148879000D01*
X90045000Y-136139000D02*
X100285000Y-136139000D01*
X89665000Y-135759000D02*
X92665000Y-135759000D01*
X89665000Y-138759000D02*
X89665000Y-135759000D01*
X117220000Y-66720000D02*
X117220000Y-53980000D01*
X117220000Y-53980000D02*
X106980000Y-53980000D01*
X106980000Y-66720000D02*
X106980000Y-53980000D01*
X117220000Y-66720000D02*
X106980000Y-66720000D01*
X117220000Y-66720000D02*
X117220000Y-53980000D01*
X117220000Y-53980000D02*
X106980000Y-53980000D01*
X106980000Y-66720000D02*
X106980000Y-53980000D01*
X117220000Y-66720000D02*
X106980000Y-66720000D01*
X117600000Y-67100000D02*
X114600000Y-67100000D01*
X117600000Y-64100000D02*
X117600000Y-67100000D01*
X128770000Y-66845000D02*
X128770000Y-54105000D01*
X128770000Y-54105000D02*
X118530000Y-54105000D01*
X118530000Y-66845000D02*
X118530000Y-54105000D01*
X128770000Y-66845000D02*
X118530000Y-66845000D01*
X128770000Y-66845000D02*
X128770000Y-54105000D01*
X128770000Y-54105000D02*
X118530000Y-54105000D01*
X118530000Y-66845000D02*
X118530000Y-54105000D01*
X128770000Y-66845000D02*
X118530000Y-66845000D01*
X129150000Y-67225000D02*
X126150000Y-67225000D01*
X129150000Y-64225000D02*
X129150000Y-67225000D01*
X140345000Y-66995000D02*
X140345000Y-54255000D01*
X140345000Y-54255000D02*
X130105000Y-54255000D01*
X130105000Y-66995000D02*
X130105000Y-54255000D01*
X140345000Y-66995000D02*
X130105000Y-66995000D01*
X140345000Y-66995000D02*
X140345000Y-54255000D01*
X140345000Y-54255000D02*
X130105000Y-54255000D01*
X130105000Y-66995000D02*
X130105000Y-54255000D01*
X140345000Y-66995000D02*
X130105000Y-66995000D01*
X140725000Y-67375000D02*
X137725000Y-67375000D01*
X140725000Y-64375000D02*
X140725000Y-67375000D01*
X151895000Y-66995000D02*
X151895000Y-54255000D01*
X151895000Y-54255000D02*
X141655000Y-54255000D01*
X141655000Y-66995000D02*
X141655000Y-54255000D01*
X151895000Y-66995000D02*
X141655000Y-66995000D01*
X151895000Y-66995000D02*
X151895000Y-54255000D01*
X151895000Y-54255000D02*
X141655000Y-54255000D01*
X141655000Y-66995000D02*
X141655000Y-54255000D01*
X151895000Y-66995000D02*
X141655000Y-66995000D01*
X152275000Y-67375000D02*
X149275000Y-67375000D01*
X152275000Y-64375000D02*
X152275000Y-67375000D01*
X101856000Y-136139000D02*
X101856000Y-148879000D01*
X101856000Y-148879000D02*
X112096000Y-148879000D01*
X112096000Y-136139000D02*
X112096000Y-148879000D01*
X101856000Y-136139000D02*
X112096000Y-136139000D01*
X101856000Y-136139000D02*
X101856000Y-148879000D01*
X101856000Y-148879000D02*
X112096000Y-148879000D01*
X112096000Y-136139000D02*
X112096000Y-148879000D01*
X101856000Y-136139000D02*
X112096000Y-136139000D01*
X101476000Y-135759000D02*
X104476000Y-135759000D01*
X101476000Y-138759000D02*
X101476000Y-135759000D01*
X163830000Y-138555000D02*
X162180000Y-138555000D01*
X163830000Y-143755000D02*
X163830000Y-138555000D01*
X158530000Y-143755000D02*
X163830000Y-143755000D01*
X158530000Y-138555000D02*
X158530000Y-143755000D01*
X160180000Y-138555000D02*
X158530000Y-138555000D01*
X162180000Y-138555000D02*
G75*
G02X160180000Y-138555000I-1000000J0D01*
G01*
X163830000Y-117620000D02*
X162180000Y-117620000D01*
X163830000Y-122820000D02*
X163830000Y-117620000D01*
X158530000Y-122820000D02*
X163830000Y-122820000D01*
X158530000Y-117620000D02*
X158530000Y-122820000D01*
X160180000Y-117620000D02*
X158530000Y-117620000D01*
X162180000Y-117620000D02*
G75*
G02X160180000Y-117620000I-1000000J0D01*
G01*
X163830000Y-94895000D02*
X162180000Y-94895000D01*
X163830000Y-100095000D02*
X163830000Y-94895000D01*
X158530000Y-100095000D02*
X163830000Y-100095000D01*
X158530000Y-94895000D02*
X158530000Y-100095000D01*
X160180000Y-94895000D02*
X158530000Y-94895000D01*
X162180000Y-94895000D02*
G75*
G02X160180000Y-94895000I-1000000J0D01*
G01*
X147010000Y-138670000D02*
X145360000Y-138670000D01*
X147010000Y-143870000D02*
X147010000Y-138670000D01*
X141710000Y-143870000D02*
X147010000Y-143870000D01*
X141710000Y-138670000D02*
X141710000Y-143870000D01*
X143360000Y-138670000D02*
X141710000Y-138670000D01*
X145360000Y-138670000D02*
G75*
G02X143360000Y-138670000I-1000000J0D01*
G01*
X147010000Y-117295000D02*
X145360000Y-117295000D01*
X147010000Y-122495000D02*
X147010000Y-117295000D01*
X141710000Y-122495000D02*
X147010000Y-122495000D01*
X141710000Y-117295000D02*
X141710000Y-122495000D01*
X143360000Y-117295000D02*
X141710000Y-117295000D01*
X145360000Y-117295000D02*
G75*
G02X143360000Y-117295000I-1000000J0D01*
G01*
X147010000Y-94895000D02*
X145360000Y-94895000D01*
X147010000Y-100095000D02*
X147010000Y-94895000D01*
X141710000Y-100095000D02*
X147010000Y-100095000D01*
X141710000Y-94895000D02*
X141710000Y-100095000D01*
X143360000Y-94895000D02*
X141710000Y-94895000D01*
X145360000Y-94895000D02*
G75*
G02X143360000Y-94895000I-1000000J0D01*
G01*
X104760000Y-113345000D02*
X103110000Y-113345000D01*
X104760000Y-118545000D02*
X104760000Y-113345000D01*
X99460000Y-118545000D02*
X104760000Y-118545000D01*
X99460000Y-113345000D02*
X99460000Y-118545000D01*
X101110000Y-113345000D02*
X99460000Y-113345000D01*
X103110000Y-113345000D02*
G75*
G02X101110000Y-113345000I-1000000J0D01*
G01*
X104760000Y-90155000D02*
X103110000Y-90155000D01*
X104760000Y-95355000D02*
X104760000Y-90155000D01*
X99460000Y-95355000D02*
X104760000Y-95355000D01*
X99460000Y-90155000D02*
X99460000Y-95355000D01*
X101110000Y-90155000D02*
X99460000Y-90155000D01*
X103110000Y-90155000D02*
G75*
G02X101110000Y-90155000I-1000000J0D01*
G01*
X85885000Y-113570000D02*
X84235000Y-113570000D01*
X85885000Y-118770000D02*
X85885000Y-113570000D01*
X80585000Y-118770000D02*
X85885000Y-118770000D01*
X80585000Y-113570000D02*
X80585000Y-118770000D01*
X82235000Y-113570000D02*
X80585000Y-113570000D01*
X84235000Y-113570000D02*
G75*
G02X82235000Y-113570000I-1000000J0D01*
G01*
X80565000Y-95179000D02*
X82215000Y-95179000D01*
X80565000Y-89979000D02*
X80565000Y-95179000D01*
X85865000Y-89979000D02*
X80565000Y-89979000D01*
X85865000Y-95179000D02*
X85865000Y-89979000D01*
X84215000Y-95179000D02*
X85865000Y-95179000D01*
X82215000Y-95179000D02*
G75*
G02X84215000Y-95179000I1000000J0D01*
G01*
X165210000Y-134375000D02*
X164440000Y-134375000D01*
X157130000Y-134375000D02*
X157900000Y-134375000D01*
X164440000Y-133005000D02*
X157900000Y-133005000D01*
X164440000Y-135745000D02*
X164440000Y-133005000D01*
X157900000Y-135745000D02*
X164440000Y-135745000D01*
X157900000Y-133005000D02*
X157900000Y-135745000D01*
X165210000Y-112625000D02*
X164440000Y-112625000D01*
X157130000Y-112625000D02*
X157900000Y-112625000D01*
X164440000Y-111255000D02*
X157900000Y-111255000D01*
X164440000Y-113995000D02*
X164440000Y-111255000D01*
X157900000Y-113995000D02*
X164440000Y-113995000D01*
X157900000Y-111255000D02*
X157900000Y-113995000D01*
X165210000Y-90025000D02*
X164440000Y-90025000D01*
X157130000Y-90025000D02*
X157900000Y-90025000D01*
X164440000Y-88655000D02*
X157900000Y-88655000D01*
X164440000Y-91395000D02*
X164440000Y-88655000D01*
X157900000Y-91395000D02*
X164440000Y-91395000D01*
X157900000Y-88655000D02*
X157900000Y-91395000D01*
X148390000Y-134075000D02*
X147620000Y-134075000D01*
X140310000Y-134075000D02*
X141080000Y-134075000D01*
X147620000Y-132705000D02*
X141080000Y-132705000D01*
X147620000Y-135445000D02*
X147620000Y-132705000D01*
X141080000Y-135445000D02*
X147620000Y-135445000D01*
X141080000Y-132705000D02*
X141080000Y-135445000D01*
X148390000Y-112575000D02*
X147620000Y-112575000D01*
X140310000Y-112575000D02*
X141080000Y-112575000D01*
X147620000Y-111205000D02*
X141080000Y-111205000D01*
X147620000Y-113945000D02*
X147620000Y-111205000D01*
X141080000Y-113945000D02*
X147620000Y-113945000D01*
X141080000Y-111205000D02*
X141080000Y-113945000D01*
X148390000Y-90025000D02*
X147620000Y-90025000D01*
X140310000Y-90025000D02*
X141080000Y-90025000D01*
X147620000Y-88655000D02*
X141080000Y-88655000D01*
X147620000Y-91395000D02*
X147620000Y-88655000D01*
X141080000Y-91395000D02*
X147620000Y-91395000D01*
X141080000Y-88655000D02*
X141080000Y-91395000D01*
X166480000Y-147450000D02*
X165790000Y-147450000D01*
X155860000Y-147450000D02*
X156550000Y-147450000D01*
X165790000Y-145730000D02*
X156550000Y-145730000D01*
X165790000Y-149170000D02*
X165790000Y-145730000D01*
X156550000Y-149170000D02*
X165790000Y-149170000D01*
X156550000Y-145730000D02*
X156550000Y-149170000D01*
X166480000Y-127800000D02*
X165790000Y-127800000D01*
X155860000Y-127800000D02*
X156550000Y-127800000D01*
X165790000Y-126080000D02*
X156550000Y-126080000D01*
X165790000Y-129520000D02*
X165790000Y-126080000D01*
X156550000Y-129520000D02*
X165790000Y-129520000D01*
X156550000Y-126080000D02*
X156550000Y-129520000D01*
X166480000Y-105900000D02*
X165790000Y-105900000D01*
X155860000Y-105900000D02*
X156550000Y-105900000D01*
X165790000Y-104180000D02*
X156550000Y-104180000D01*
X165790000Y-107620000D02*
X165790000Y-104180000D01*
X156550000Y-107620000D02*
X165790000Y-107620000D01*
X156550000Y-104180000D02*
X156550000Y-107620000D01*
X149660000Y-147525000D02*
X148970000Y-147525000D01*
X139040000Y-147525000D02*
X139730000Y-147525000D01*
X148970000Y-145805000D02*
X139730000Y-145805000D01*
X148970000Y-149245000D02*
X148970000Y-145805000D01*
X139730000Y-149245000D02*
X148970000Y-149245000D01*
X139730000Y-145805000D02*
X139730000Y-149245000D01*
X149660000Y-127875000D02*
X148970000Y-127875000D01*
X139040000Y-127875000D02*
X139730000Y-127875000D01*
X148970000Y-126155000D02*
X139730000Y-126155000D01*
X148970000Y-129595000D02*
X148970000Y-126155000D01*
X139730000Y-129595000D02*
X148970000Y-129595000D01*
X139730000Y-126155000D02*
X139730000Y-129595000D01*
X149660000Y-105725000D02*
X148970000Y-105725000D01*
X139040000Y-105725000D02*
X139730000Y-105725000D01*
X148970000Y-104005000D02*
X139730000Y-104005000D01*
X148970000Y-107445000D02*
X148970000Y-104005000D01*
X139730000Y-107445000D02*
X148970000Y-107445000D01*
X139730000Y-104005000D02*
X139730000Y-107445000D01*
X107410000Y-131300000D02*
X106720000Y-131300000D01*
X96790000Y-131300000D02*
X97480000Y-131300000D01*
X106720000Y-129580000D02*
X97480000Y-129580000D01*
X106720000Y-133020000D02*
X106720000Y-129580000D01*
X97480000Y-133020000D02*
X106720000Y-133020000D01*
X97480000Y-129580000D02*
X97480000Y-133020000D01*
X106140000Y-124175000D02*
X105370000Y-124175000D01*
X98060000Y-124175000D02*
X98830000Y-124175000D01*
X105370000Y-122805000D02*
X98830000Y-122805000D01*
X105370000Y-125545000D02*
X105370000Y-122805000D01*
X98830000Y-125545000D02*
X105370000Y-125545000D01*
X98830000Y-122805000D02*
X98830000Y-125545000D01*
X107410000Y-108075000D02*
X106720000Y-108075000D01*
X96790000Y-108075000D02*
X97480000Y-108075000D01*
X106720000Y-106355000D02*
X97480000Y-106355000D01*
X106720000Y-109795000D02*
X106720000Y-106355000D01*
X97480000Y-109795000D02*
X106720000Y-109795000D01*
X97480000Y-106355000D02*
X97480000Y-109795000D01*
X106140000Y-101125000D02*
X105370000Y-101125000D01*
X98060000Y-101125000D02*
X98830000Y-101125000D01*
X105370000Y-99755000D02*
X98830000Y-99755000D01*
X105370000Y-102495000D02*
X105370000Y-99755000D01*
X98830000Y-102495000D02*
X105370000Y-102495000D01*
X98830000Y-99755000D02*
X98830000Y-102495000D01*
X88535000Y-131400000D02*
X87845000Y-131400000D01*
X77915000Y-131400000D02*
X78605000Y-131400000D01*
X87845000Y-129680000D02*
X78605000Y-129680000D01*
X87845000Y-133120000D02*
X87845000Y-129680000D01*
X78605000Y-133120000D02*
X87845000Y-133120000D01*
X78605000Y-129680000D02*
X78605000Y-133120000D01*
X87265000Y-124400000D02*
X86495000Y-124400000D01*
X79185000Y-124400000D02*
X79955000Y-124400000D01*
X86495000Y-123030000D02*
X79955000Y-123030000D01*
X86495000Y-125770000D02*
X86495000Y-123030000D01*
X79955000Y-125770000D02*
X86495000Y-125770000D01*
X79955000Y-123030000D02*
X79955000Y-125770000D01*
X88535000Y-107900000D02*
X87845000Y-107900000D01*
X77915000Y-107900000D02*
X78605000Y-107900000D01*
X87845000Y-106180000D02*
X78605000Y-106180000D01*
X87845000Y-109620000D02*
X87845000Y-106180000D01*
X78605000Y-109620000D02*
X87845000Y-109620000D01*
X78605000Y-106180000D02*
X78605000Y-109620000D01*
X87265000Y-101278000D02*
X86495000Y-101278000D01*
X79185000Y-101278000D02*
X79955000Y-101278000D01*
X86495000Y-99908000D02*
X79955000Y-99908000D01*
X86495000Y-102648000D02*
X86495000Y-99908000D01*
X79955000Y-102648000D02*
X86495000Y-102648000D01*
X79955000Y-99908000D02*
X79955000Y-102648000D01*
X145800000Y-73265000D02*
X145800000Y-73955000D01*
X145800000Y-83885000D02*
X145800000Y-83195000D01*
X144080000Y-73955000D02*
X144080000Y-83195000D01*
X147520000Y-73955000D02*
X144080000Y-73955000D01*
X147520000Y-83195000D02*
X147520000Y-73955000D01*
X144080000Y-83195000D02*
X147520000Y-83195000D01*
X126950000Y-73690000D02*
X126950000Y-74380000D01*
X126950000Y-84310000D02*
X126950000Y-83620000D01*
X125230000Y-74380000D02*
X125230000Y-83620000D01*
X128670000Y-74380000D02*
X125230000Y-74380000D01*
X128670000Y-83620000D02*
X128670000Y-74380000D01*
X125230000Y-83620000D02*
X128670000Y-83620000D01*
X107600000Y-73815000D02*
X107600000Y-74505000D01*
X107600000Y-84435000D02*
X107600000Y-83745000D01*
X105880000Y-74505000D02*
X105880000Y-83745000D01*
X109320000Y-74505000D02*
X105880000Y-74505000D01*
X109320000Y-83745000D02*
X109320000Y-74505000D01*
X105880000Y-83745000D02*
X109320000Y-83745000D01*
X89300000Y-74215000D02*
X89300000Y-74905000D01*
X89300000Y-84835000D02*
X89300000Y-84145000D01*
X87580000Y-74905000D02*
X87580000Y-84145000D01*
X91020000Y-74905000D02*
X87580000Y-74905000D01*
X91020000Y-84145000D02*
X91020000Y-74905000D01*
X87580000Y-84145000D02*
X91020000Y-84145000D01*
X136880000Y-76909000D02*
X138390000Y-76909000D01*
X136880000Y-80610000D02*
X138390000Y-80610000D01*
X138390000Y-83880000D02*
X138390000Y-73640000D01*
X136880000Y-73640000D02*
X141521000Y-73640000D01*
X136880000Y-83880000D02*
X141521000Y-83880000D01*
X141521000Y-83880000D02*
X141521000Y-73640000D01*
X136880000Y-83880000D02*
X136880000Y-73640000D01*
X117380000Y-77059000D02*
X118890000Y-77059000D01*
X117380000Y-80760000D02*
X118890000Y-80760000D01*
X118890000Y-84030000D02*
X118890000Y-73790000D01*
X117380000Y-73790000D02*
X122021000Y-73790000D01*
X117380000Y-84030000D02*
X122021000Y-84030000D01*
X122021000Y-84030000D02*
X122021000Y-73790000D01*
X117380000Y-84030000D02*
X117380000Y-73790000D01*
X98555000Y-77459000D02*
X100065000Y-77459000D01*
X98555000Y-81160000D02*
X100065000Y-81160000D01*
X100065000Y-84430000D02*
X100065000Y-74190000D01*
X98555000Y-74190000D02*
X103196000Y-74190000D01*
X98555000Y-84430000D02*
X103196000Y-84430000D01*
X103196000Y-84430000D02*
X103196000Y-74190000D01*
X98555000Y-84430000D02*
X98555000Y-74190000D01*
X80655000Y-77584000D02*
X82165000Y-77584000D01*
X80655000Y-81285000D02*
X82165000Y-81285000D01*
X82165000Y-84555000D02*
X82165000Y-74315000D01*
X80655000Y-74315000D02*
X85296000Y-74315000D01*
X80655000Y-84555000D02*
X85296000Y-84555000D01*
X85296000Y-84555000D02*
X85296000Y-74315000D01*
X80655000Y-84555000D02*
X80655000Y-74315000D01*
X75650000Y-61525000D02*
X76150000Y-62025000D01*
X75650000Y-62525000D02*
X75650000Y-61525000D01*
X76150000Y-62025000D02*
X75650000Y-62525000D01*
X93030000Y-70340000D02*
X93030000Y-64665000D01*
X76390000Y-70340000D02*
X76390000Y-64665000D01*
X76390000Y-70340000D02*
X93030000Y-70340000D01*
X93030000Y-54460000D02*
X93030000Y-62165000D01*
X76390000Y-54460000D02*
X76390000Y-62165000D01*
X76390000Y-54460000D02*
X93030000Y-54460000D01*
X133988000Y-102994000D02*
X115948000Y-102994000D01*
X133988000Y-146434000D02*
X133988000Y-102994000D01*
X115948000Y-146434000D02*
X133988000Y-146434000D01*
X118618000Y-143764000D02*
X115948000Y-143764000D01*
X118618000Y-108204000D02*
X118618000Y-143764000D01*
X118618000Y-108204000D02*
X115948000Y-108204000D01*
X131318000Y-143764000D02*
X133988000Y-143764000D01*
X131318000Y-105664000D02*
X131318000Y-143764000D01*
X131318000Y-105664000D02*
X133988000Y-105664000D01*
X115948000Y-102994000D02*
X115948000Y-105664000D01*
X115948000Y-108204000D02*
X115948000Y-146434000D01*
X118618000Y-105664000D02*
X115948000Y-105664000D01*
X118618000Y-108204000D02*
X118618000Y-105664000D01*
D13*
X161475476Y-52627380D02*
X161475476Y-53341666D01*
X161427857Y-53484523D01*
X161332619Y-53579761D01*
X161189761Y-53627380D01*
X161094523Y-53627380D01*
X162475476Y-53627380D02*
X161904047Y-53627380D01*
X162189761Y-53627380D02*
X162189761Y-52627380D01*
X162094523Y-52770238D01*
X161999285Y-52865476D01*
X161904047Y-52913095D01*
X163094523Y-52627380D02*
X163189761Y-52627380D01*
X163285000Y-52675000D01*
X163332619Y-52722619D01*
X163380238Y-52817857D01*
X163427857Y-53008333D01*
X163427857Y-53246428D01*
X163380238Y-53436904D01*
X163332619Y-53532142D01*
X163285000Y-53579761D01*
X163189761Y-53627380D01*
X163094523Y-53627380D01*
X162999285Y-53579761D01*
X162951666Y-53532142D01*
X162904047Y-53436904D01*
X162856428Y-53246428D01*
X162856428Y-53008333D01*
X162904047Y-52817857D01*
X162951666Y-52722619D01*
X162999285Y-52675000D01*
X163094523Y-52627380D01*
X122103095Y-95232380D02*
X122103095Y-96041904D01*
X122150714Y-96137142D01*
X122198333Y-96184761D01*
X122293571Y-96232380D01*
X122484047Y-96232380D01*
X122579285Y-96184761D01*
X122626904Y-96137142D01*
X122674523Y-96041904D01*
X122674523Y-95232380D01*
X123626904Y-95232380D02*
X123150714Y-95232380D01*
X123103095Y-95708571D01*
X123150714Y-95660952D01*
X123245952Y-95613333D01*
X123484047Y-95613333D01*
X123579285Y-95660952D01*
X123626904Y-95708571D01*
X123674523Y-95803809D01*
X123674523Y-96041904D01*
X123626904Y-96137142D01*
X123579285Y-96184761D01*
X123484047Y-96232380D01*
X123245952Y-96232380D01*
X123150714Y-96184761D01*
X123103095Y-96137142D01*
X125087142Y-96532380D02*
X124753809Y-96056190D01*
X124515714Y-96532380D02*
X124515714Y-95532380D01*
X124896666Y-95532380D01*
X124991904Y-95580000D01*
X125039523Y-95627619D01*
X125087142Y-95722857D01*
X125087142Y-95865714D01*
X125039523Y-95960952D01*
X124991904Y-96008571D01*
X124896666Y-96056190D01*
X124515714Y-96056190D01*
X126039523Y-96532380D02*
X125468095Y-96532380D01*
X125753809Y-96532380D02*
X125753809Y-95532380D01*
X125658571Y-95675238D01*
X125563333Y-95770476D01*
X125468095Y-95818095D01*
X126944285Y-95532380D02*
X126468095Y-95532380D01*
X126420476Y-96008571D01*
X126468095Y-95960952D01*
X126563333Y-95913333D01*
X126801428Y-95913333D01*
X126896666Y-95960952D01*
X126944285Y-96008571D01*
X126991904Y-96103809D01*
X126991904Y-96341904D01*
X126944285Y-96437142D01*
X126896666Y-96484761D01*
X126801428Y-96532380D01*
X126563333Y-96532380D01*
X126468095Y-96484761D01*
X126420476Y-96437142D01*
X137172380Y-95372857D02*
X136696190Y-95706190D01*
X137172380Y-95944285D02*
X136172380Y-95944285D01*
X136172380Y-95563333D01*
X136220000Y-95468095D01*
X136267619Y-95420476D01*
X136362857Y-95372857D01*
X136505714Y-95372857D01*
X136600952Y-95420476D01*
X136648571Y-95468095D01*
X136696190Y-95563333D01*
X136696190Y-95944285D01*
X137172380Y-94420476D02*
X137172380Y-94991904D01*
X137172380Y-94706190D02*
X136172380Y-94706190D01*
X136315238Y-94801428D01*
X136410476Y-94896666D01*
X136458095Y-94991904D01*
X136505714Y-93563333D02*
X137172380Y-93563333D01*
X136124761Y-93801428D02*
X136839047Y-94039523D01*
X136839047Y-93420476D01*
X162882380Y-79016666D02*
X162406190Y-79350000D01*
X162882380Y-79588095D02*
X161882380Y-79588095D01*
X161882380Y-79207142D01*
X161930000Y-79111904D01*
X161977619Y-79064285D01*
X162072857Y-79016666D01*
X162215714Y-79016666D01*
X162310952Y-79064285D01*
X162358571Y-79111904D01*
X162406190Y-79207142D01*
X162406190Y-79588095D01*
X161882380Y-78111904D02*
X161882380Y-78588095D01*
X162358571Y-78635714D01*
X162310952Y-78588095D01*
X162263333Y-78492857D01*
X162263333Y-78254761D01*
X162310952Y-78159523D01*
X162358571Y-78111904D01*
X162453809Y-78064285D01*
X162691904Y-78064285D01*
X162787142Y-78111904D01*
X162834761Y-78159523D01*
X162882380Y-78254761D01*
X162882380Y-78492857D01*
X162834761Y-78588095D01*
X162787142Y-78635714D01*
X154852619Y-78730238D02*
X154805000Y-78825476D01*
X154709761Y-78920714D01*
X154566904Y-79063571D01*
X154519285Y-79158809D01*
X154519285Y-79254047D01*
X154757380Y-79206428D02*
X154709761Y-79301666D01*
X154614523Y-79396904D01*
X154424047Y-79444523D01*
X154090714Y-79444523D01*
X153900238Y-79396904D01*
X153805000Y-79301666D01*
X153757380Y-79206428D01*
X153757380Y-79015952D01*
X153805000Y-78920714D01*
X153900238Y-78825476D01*
X154090714Y-78777857D01*
X154424047Y-78777857D01*
X154614523Y-78825476D01*
X154709761Y-78920714D01*
X154757380Y-79015952D01*
X154757380Y-79206428D01*
X153757380Y-77873095D02*
X153757380Y-78349285D01*
X154233571Y-78396904D01*
X154185952Y-78349285D01*
X154138333Y-78254047D01*
X154138333Y-78015952D01*
X154185952Y-77920714D01*
X154233571Y-77873095D01*
X154328809Y-77825476D01*
X154566904Y-77825476D01*
X154662142Y-77873095D01*
X154709761Y-77920714D01*
X154757380Y-78015952D01*
X154757380Y-78254047D01*
X154709761Y-78349285D01*
X154662142Y-78396904D01*
X102816666Y-67527380D02*
X102816666Y-68241666D01*
X102769047Y-68384523D01*
X102673809Y-68479761D01*
X102530952Y-68527380D01*
X102435714Y-68527380D01*
X103197619Y-67527380D02*
X103864285Y-67527380D01*
X103435714Y-68527380D01*
X98864285Y-53160714D02*
X98864285Y-54160714D01*
X98864285Y-53208333D02*
X98959523Y-53160714D01*
X99150000Y-53160714D01*
X99245238Y-53208333D01*
X99292857Y-53255952D01*
X99340476Y-53351190D01*
X99340476Y-53636904D01*
X99292857Y-53732142D01*
X99245238Y-53779761D01*
X99150000Y-53827380D01*
X98959523Y-53827380D01*
X98864285Y-53779761D01*
X100197619Y-53160714D02*
X100197619Y-53827380D01*
X99769047Y-53160714D02*
X99769047Y-53684523D01*
X99816666Y-53779761D01*
X99911904Y-53827380D01*
X100054761Y-53827380D01*
X100150000Y-53779761D01*
X100197619Y-53732142D01*
X100673809Y-53827380D02*
X100673809Y-53160714D01*
X100673809Y-53255952D02*
X100721428Y-53208333D01*
X100816666Y-53160714D01*
X100959523Y-53160714D01*
X101054761Y-53208333D01*
X101102380Y-53303571D01*
X101102380Y-53827380D01*
X101102380Y-53303571D02*
X101150000Y-53208333D01*
X101245238Y-53160714D01*
X101388095Y-53160714D01*
X101483333Y-53208333D01*
X101530952Y-53303571D01*
X101530952Y-53827380D01*
X102007142Y-53160714D02*
X102007142Y-54160714D01*
X102007142Y-53208333D02*
X102102380Y-53160714D01*
X102292857Y-53160714D01*
X102388095Y-53208333D01*
X102435714Y-53255952D01*
X102483333Y-53351190D01*
X102483333Y-53636904D01*
X102435714Y-53732142D01*
X102388095Y-53779761D01*
X102292857Y-53827380D01*
X102102380Y-53827380D01*
X102007142Y-53779761D01*
X80520666Y-134511380D02*
X80520666Y-135225666D01*
X80473047Y-135368523D01*
X80377809Y-135463761D01*
X80234952Y-135511380D01*
X80139714Y-135511380D01*
X81044476Y-135511380D02*
X81234952Y-135511380D01*
X81330190Y-135463761D01*
X81377809Y-135416142D01*
X81473047Y-135273285D01*
X81520666Y-135082809D01*
X81520666Y-134701857D01*
X81473047Y-134606619D01*
X81425428Y-134559000D01*
X81330190Y-134511380D01*
X81139714Y-134511380D01*
X81044476Y-134559000D01*
X80996857Y-134606619D01*
X80949238Y-134701857D01*
X80949238Y-134939952D01*
X80996857Y-135035190D01*
X81044476Y-135082809D01*
X81139714Y-135130428D01*
X81330190Y-135130428D01*
X81425428Y-135082809D01*
X81473047Y-135035190D01*
X81520666Y-134939952D01*
X92331666Y-134511380D02*
X92331666Y-135225666D01*
X92284047Y-135368523D01*
X92188809Y-135463761D01*
X92045952Y-135511380D01*
X91950714Y-135511380D01*
X92950714Y-134939952D02*
X92855476Y-134892333D01*
X92807857Y-134844714D01*
X92760238Y-134749476D01*
X92760238Y-134701857D01*
X92807857Y-134606619D01*
X92855476Y-134559000D01*
X92950714Y-134511380D01*
X93141190Y-134511380D01*
X93236428Y-134559000D01*
X93284047Y-134606619D01*
X93331666Y-134701857D01*
X93331666Y-134749476D01*
X93284047Y-134844714D01*
X93236428Y-134892333D01*
X93141190Y-134939952D01*
X92950714Y-134939952D01*
X92855476Y-134987571D01*
X92807857Y-135035190D01*
X92760238Y-135130428D01*
X92760238Y-135320904D01*
X92807857Y-135416142D01*
X92855476Y-135463761D01*
X92950714Y-135511380D01*
X93141190Y-135511380D01*
X93236428Y-135463761D01*
X93284047Y-135416142D01*
X93331666Y-135320904D01*
X93331666Y-135130428D01*
X93284047Y-135035190D01*
X93236428Y-134987571D01*
X93141190Y-134939952D01*
X114266666Y-67252380D02*
X114266666Y-67966666D01*
X114219047Y-68109523D01*
X114123809Y-68204761D01*
X113980952Y-68252380D01*
X113885714Y-68252380D01*
X115171428Y-67252380D02*
X114980952Y-67252380D01*
X114885714Y-67300000D01*
X114838095Y-67347619D01*
X114742857Y-67490476D01*
X114695238Y-67680952D01*
X114695238Y-68061904D01*
X114742857Y-68157142D01*
X114790476Y-68204761D01*
X114885714Y-68252380D01*
X115076190Y-68252380D01*
X115171428Y-68204761D01*
X115219047Y-68157142D01*
X115266666Y-68061904D01*
X115266666Y-67823809D01*
X115219047Y-67728571D01*
X115171428Y-67680952D01*
X115076190Y-67633333D01*
X114885714Y-67633333D01*
X114790476Y-67680952D01*
X114742857Y-67728571D01*
X114695238Y-67823809D01*
X109790476Y-53552380D02*
X109790476Y-52552380D01*
X109790476Y-52933333D02*
X109885714Y-52885714D01*
X110076190Y-52885714D01*
X110171428Y-52933333D01*
X110219047Y-52980952D01*
X110266666Y-53076190D01*
X110266666Y-53361904D01*
X110219047Y-53457142D01*
X110171428Y-53504761D01*
X110076190Y-53552380D01*
X109885714Y-53552380D01*
X109790476Y-53504761D01*
X110600000Y-52885714D02*
X110838095Y-53552380D01*
X111076190Y-52885714D02*
X110838095Y-53552380D01*
X110742857Y-53790476D01*
X110695238Y-53838095D01*
X110600000Y-53885714D01*
X111457142Y-52885714D02*
X111457142Y-53885714D01*
X111457142Y-52933333D02*
X111552380Y-52885714D01*
X111742857Y-52885714D01*
X111838095Y-52933333D01*
X111885714Y-52980952D01*
X111933333Y-53076190D01*
X111933333Y-53361904D01*
X111885714Y-53457142D01*
X111838095Y-53504761D01*
X111742857Y-53552380D01*
X111552380Y-53552380D01*
X111457142Y-53504761D01*
X112790476Y-53552380D02*
X112790476Y-53028571D01*
X112742857Y-52933333D01*
X112647619Y-52885714D01*
X112457142Y-52885714D01*
X112361904Y-52933333D01*
X112790476Y-53504761D02*
X112695238Y-53552380D01*
X112457142Y-53552380D01*
X112361904Y-53504761D01*
X112314285Y-53409523D01*
X112314285Y-53314285D01*
X112361904Y-53219047D01*
X112457142Y-53171428D01*
X112695238Y-53171428D01*
X112790476Y-53123809D01*
X113219047Y-53504761D02*
X113314285Y-53552380D01*
X113504761Y-53552380D01*
X113600000Y-53504761D01*
X113647619Y-53409523D01*
X113647619Y-53361904D01*
X113600000Y-53266666D01*
X113504761Y-53219047D01*
X113361904Y-53219047D01*
X113266666Y-53171428D01*
X113219047Y-53076190D01*
X113219047Y-53028571D01*
X113266666Y-52933333D01*
X113361904Y-52885714D01*
X113504761Y-52885714D01*
X113600000Y-52933333D01*
X114028571Y-53504761D02*
X114123809Y-53552380D01*
X114314285Y-53552380D01*
X114409523Y-53504761D01*
X114457142Y-53409523D01*
X114457142Y-53361904D01*
X114409523Y-53266666D01*
X114314285Y-53219047D01*
X114171428Y-53219047D01*
X114076190Y-53171428D01*
X114028571Y-53076190D01*
X114028571Y-53028571D01*
X114076190Y-52933333D01*
X114171428Y-52885714D01*
X114314285Y-52885714D01*
X114409523Y-52933333D01*
X125816666Y-67377380D02*
X125816666Y-68091666D01*
X125769047Y-68234523D01*
X125673809Y-68329761D01*
X125530952Y-68377380D01*
X125435714Y-68377380D01*
X126769047Y-67377380D02*
X126292857Y-67377380D01*
X126245238Y-67853571D01*
X126292857Y-67805952D01*
X126388095Y-67758333D01*
X126626190Y-67758333D01*
X126721428Y-67805952D01*
X126769047Y-67853571D01*
X126816666Y-67948809D01*
X126816666Y-68186904D01*
X126769047Y-68282142D01*
X126721428Y-68329761D01*
X126626190Y-68377380D01*
X126388095Y-68377380D01*
X126292857Y-68329761D01*
X126245238Y-68282142D01*
X121888095Y-53010714D02*
X122126190Y-53677380D01*
X122364285Y-53010714D01*
X123173809Y-53677380D02*
X123173809Y-53153571D01*
X123126190Y-53058333D01*
X123030952Y-53010714D01*
X122840476Y-53010714D01*
X122745238Y-53058333D01*
X123173809Y-53629761D02*
X123078571Y-53677380D01*
X122840476Y-53677380D01*
X122745238Y-53629761D01*
X122697619Y-53534523D01*
X122697619Y-53439285D01*
X122745238Y-53344047D01*
X122840476Y-53296428D01*
X123078571Y-53296428D01*
X123173809Y-53248809D01*
X123792857Y-53677380D02*
X123697619Y-53629761D01*
X123650000Y-53534523D01*
X123650000Y-52677380D01*
X124078571Y-53010714D02*
X124316666Y-53677380D01*
X124554761Y-53010714D01*
X125316666Y-53629761D02*
X125221428Y-53677380D01*
X125030952Y-53677380D01*
X124935714Y-53629761D01*
X124888095Y-53534523D01*
X124888095Y-53153571D01*
X124935714Y-53058333D01*
X125030952Y-53010714D01*
X125221428Y-53010714D01*
X125316666Y-53058333D01*
X125364285Y-53153571D01*
X125364285Y-53248809D01*
X124888095Y-53344047D01*
X137391666Y-67527380D02*
X137391666Y-68241666D01*
X137344047Y-68384523D01*
X137248809Y-68479761D01*
X137105952Y-68527380D01*
X137010714Y-68527380D01*
X138296428Y-67860714D02*
X138296428Y-68527380D01*
X138058333Y-67479761D02*
X137820238Y-68194047D01*
X138439285Y-68194047D01*
X134272619Y-53160714D02*
X134272619Y-53970238D01*
X134225000Y-54065476D01*
X134177380Y-54113095D01*
X134082142Y-54160714D01*
X133939285Y-54160714D01*
X133844047Y-54113095D01*
X134272619Y-53779761D02*
X134177380Y-53827380D01*
X133986904Y-53827380D01*
X133891666Y-53779761D01*
X133844047Y-53732142D01*
X133796428Y-53636904D01*
X133796428Y-53351190D01*
X133844047Y-53255952D01*
X133891666Y-53208333D01*
X133986904Y-53160714D01*
X134177380Y-53160714D01*
X134272619Y-53208333D01*
X135177380Y-53827380D02*
X135177380Y-53303571D01*
X135129761Y-53208333D01*
X135034523Y-53160714D01*
X134844047Y-53160714D01*
X134748809Y-53208333D01*
X135177380Y-53779761D02*
X135082142Y-53827380D01*
X134844047Y-53827380D01*
X134748809Y-53779761D01*
X134701190Y-53684523D01*
X134701190Y-53589285D01*
X134748809Y-53494047D01*
X134844047Y-53446428D01*
X135082142Y-53446428D01*
X135177380Y-53398809D01*
X135510714Y-53160714D02*
X135891666Y-53160714D01*
X135653571Y-52827380D02*
X135653571Y-53684523D01*
X135701190Y-53779761D01*
X135796428Y-53827380D01*
X135891666Y-53827380D01*
X136605952Y-53779761D02*
X136510714Y-53827380D01*
X136320238Y-53827380D01*
X136225000Y-53779761D01*
X136177380Y-53684523D01*
X136177380Y-53303571D01*
X136225000Y-53208333D01*
X136320238Y-53160714D01*
X136510714Y-53160714D01*
X136605952Y-53208333D01*
X136653571Y-53303571D01*
X136653571Y-53398809D01*
X136177380Y-53494047D01*
X148941666Y-67527380D02*
X148941666Y-68241666D01*
X148894047Y-68384523D01*
X148798809Y-68479761D01*
X148655952Y-68527380D01*
X148560714Y-68527380D01*
X149322619Y-67527380D02*
X149941666Y-67527380D01*
X149608333Y-67908333D01*
X149751190Y-67908333D01*
X149846428Y-67955952D01*
X149894047Y-68003571D01*
X149941666Y-68098809D01*
X149941666Y-68336904D01*
X149894047Y-68432142D01*
X149846428Y-68479761D01*
X149751190Y-68527380D01*
X149465476Y-68527380D01*
X149370238Y-68479761D01*
X149322619Y-68432142D01*
X144917857Y-53779761D02*
X145013095Y-53827380D01*
X145203571Y-53827380D01*
X145298809Y-53779761D01*
X145346428Y-53684523D01*
X145346428Y-53636904D01*
X145298809Y-53541666D01*
X145203571Y-53494047D01*
X145060714Y-53494047D01*
X144965476Y-53446428D01*
X144917857Y-53351190D01*
X144917857Y-53303571D01*
X144965476Y-53208333D01*
X145060714Y-53160714D01*
X145203571Y-53160714D01*
X145298809Y-53208333D01*
X145775000Y-53160714D02*
X145775000Y-54160714D01*
X145775000Y-53208333D02*
X145870238Y-53160714D01*
X146060714Y-53160714D01*
X146155952Y-53208333D01*
X146203571Y-53255952D01*
X146251190Y-53351190D01*
X146251190Y-53636904D01*
X146203571Y-53732142D01*
X146155952Y-53779761D01*
X146060714Y-53827380D01*
X145870238Y-53827380D01*
X145775000Y-53779761D01*
X147108333Y-53827380D02*
X147108333Y-53303571D01*
X147060714Y-53208333D01*
X146965476Y-53160714D01*
X146775000Y-53160714D01*
X146679761Y-53208333D01*
X147108333Y-53779761D02*
X147013095Y-53827380D01*
X146775000Y-53827380D01*
X146679761Y-53779761D01*
X146632142Y-53684523D01*
X146632142Y-53589285D01*
X146679761Y-53494047D01*
X146775000Y-53446428D01*
X147013095Y-53446428D01*
X147108333Y-53398809D01*
X147584523Y-53827380D02*
X147584523Y-53160714D01*
X147584523Y-53351190D02*
X147632142Y-53255952D01*
X147679761Y-53208333D01*
X147775000Y-53160714D01*
X147870238Y-53160714D01*
X148584523Y-53779761D02*
X148489285Y-53827380D01*
X148298809Y-53827380D01*
X148203571Y-53779761D01*
X148155952Y-53684523D01*
X148155952Y-53303571D01*
X148203571Y-53208333D01*
X148298809Y-53160714D01*
X148489285Y-53160714D01*
X148584523Y-53208333D01*
X148632142Y-53303571D01*
X148632142Y-53398809D01*
X148155952Y-53494047D01*
X104142666Y-134511380D02*
X104142666Y-135225666D01*
X104095047Y-135368523D01*
X103999809Y-135463761D01*
X103856952Y-135511380D01*
X103761714Y-135511380D01*
X104571238Y-134606619D02*
X104618857Y-134559000D01*
X104714095Y-134511380D01*
X104952190Y-134511380D01*
X105047428Y-134559000D01*
X105095047Y-134606619D01*
X105142666Y-134701857D01*
X105142666Y-134797095D01*
X105095047Y-134939952D01*
X104523619Y-135511380D01*
X105142666Y-135511380D01*
X159941904Y-137007380D02*
X159941904Y-137816904D01*
X159989523Y-137912142D01*
X160037142Y-137959761D01*
X160132380Y-138007380D01*
X160322857Y-138007380D01*
X160418095Y-137959761D01*
X160465714Y-137912142D01*
X160513333Y-137816904D01*
X160513333Y-137007380D01*
X161513333Y-138007380D02*
X160941904Y-138007380D01*
X161227619Y-138007380D02*
X161227619Y-137007380D01*
X161132380Y-137150238D01*
X161037142Y-137245476D01*
X160941904Y-137293095D01*
X162465714Y-138007380D02*
X161894285Y-138007380D01*
X162180000Y-138007380D02*
X162180000Y-137007380D01*
X162084761Y-137150238D01*
X161989523Y-137245476D01*
X161894285Y-137293095D01*
X159941904Y-116072380D02*
X159941904Y-116881904D01*
X159989523Y-116977142D01*
X160037142Y-117024761D01*
X160132380Y-117072380D01*
X160322857Y-117072380D01*
X160418095Y-117024761D01*
X160465714Y-116977142D01*
X160513333Y-116881904D01*
X160513333Y-116072380D01*
X161513333Y-117072380D02*
X160941904Y-117072380D01*
X161227619Y-117072380D02*
X161227619Y-116072380D01*
X161132380Y-116215238D01*
X161037142Y-116310476D01*
X160941904Y-116358095D01*
X162132380Y-116072380D02*
X162227619Y-116072380D01*
X162322857Y-116120000D01*
X162370476Y-116167619D01*
X162418095Y-116262857D01*
X162465714Y-116453333D01*
X162465714Y-116691428D01*
X162418095Y-116881904D01*
X162370476Y-116977142D01*
X162322857Y-117024761D01*
X162227619Y-117072380D01*
X162132380Y-117072380D01*
X162037142Y-117024761D01*
X161989523Y-116977142D01*
X161941904Y-116881904D01*
X161894285Y-116691428D01*
X161894285Y-116453333D01*
X161941904Y-116262857D01*
X161989523Y-116167619D01*
X162037142Y-116120000D01*
X162132380Y-116072380D01*
X160418095Y-93347380D02*
X160418095Y-94156904D01*
X160465714Y-94252142D01*
X160513333Y-94299761D01*
X160608571Y-94347380D01*
X160799047Y-94347380D01*
X160894285Y-94299761D01*
X160941904Y-94252142D01*
X160989523Y-94156904D01*
X160989523Y-93347380D01*
X161513333Y-94347380D02*
X161703809Y-94347380D01*
X161799047Y-94299761D01*
X161846666Y-94252142D01*
X161941904Y-94109285D01*
X161989523Y-93918809D01*
X161989523Y-93537857D01*
X161941904Y-93442619D01*
X161894285Y-93395000D01*
X161799047Y-93347380D01*
X161608571Y-93347380D01*
X161513333Y-93395000D01*
X161465714Y-93442619D01*
X161418095Y-93537857D01*
X161418095Y-93775952D01*
X161465714Y-93871190D01*
X161513333Y-93918809D01*
X161608571Y-93966428D01*
X161799047Y-93966428D01*
X161894285Y-93918809D01*
X161941904Y-93871190D01*
X161989523Y-93775952D01*
X143598095Y-137122380D02*
X143598095Y-137931904D01*
X143645714Y-138027142D01*
X143693333Y-138074761D01*
X143788571Y-138122380D01*
X143979047Y-138122380D01*
X144074285Y-138074761D01*
X144121904Y-138027142D01*
X144169523Y-137931904D01*
X144169523Y-137122380D01*
X144788571Y-137550952D02*
X144693333Y-137503333D01*
X144645714Y-137455714D01*
X144598095Y-137360476D01*
X144598095Y-137312857D01*
X144645714Y-137217619D01*
X144693333Y-137170000D01*
X144788571Y-137122380D01*
X144979047Y-137122380D01*
X145074285Y-137170000D01*
X145121904Y-137217619D01*
X145169523Y-137312857D01*
X145169523Y-137360476D01*
X145121904Y-137455714D01*
X145074285Y-137503333D01*
X144979047Y-137550952D01*
X144788571Y-137550952D01*
X144693333Y-137598571D01*
X144645714Y-137646190D01*
X144598095Y-137741428D01*
X144598095Y-137931904D01*
X144645714Y-138027142D01*
X144693333Y-138074761D01*
X144788571Y-138122380D01*
X144979047Y-138122380D01*
X145074285Y-138074761D01*
X145121904Y-138027142D01*
X145169523Y-137931904D01*
X145169523Y-137741428D01*
X145121904Y-137646190D01*
X145074285Y-137598571D01*
X144979047Y-137550952D01*
X143598095Y-115747380D02*
X143598095Y-116556904D01*
X143645714Y-116652142D01*
X143693333Y-116699761D01*
X143788571Y-116747380D01*
X143979047Y-116747380D01*
X144074285Y-116699761D01*
X144121904Y-116652142D01*
X144169523Y-116556904D01*
X144169523Y-115747380D01*
X144550476Y-115747380D02*
X145217142Y-115747380D01*
X144788571Y-116747380D01*
X143598095Y-93347380D02*
X143598095Y-94156904D01*
X143645714Y-94252142D01*
X143693333Y-94299761D01*
X143788571Y-94347380D01*
X143979047Y-94347380D01*
X144074285Y-94299761D01*
X144121904Y-94252142D01*
X144169523Y-94156904D01*
X144169523Y-93347380D01*
X145074285Y-93347380D02*
X144883809Y-93347380D01*
X144788571Y-93395000D01*
X144740952Y-93442619D01*
X144645714Y-93585476D01*
X144598095Y-93775952D01*
X144598095Y-94156904D01*
X144645714Y-94252142D01*
X144693333Y-94299761D01*
X144788571Y-94347380D01*
X144979047Y-94347380D01*
X145074285Y-94299761D01*
X145121904Y-94252142D01*
X145169523Y-94156904D01*
X145169523Y-93918809D01*
X145121904Y-93823571D01*
X145074285Y-93775952D01*
X144979047Y-93728333D01*
X144788571Y-93728333D01*
X144693333Y-93775952D01*
X144645714Y-93823571D01*
X144598095Y-93918809D01*
X101348095Y-111797380D02*
X101348095Y-112606904D01*
X101395714Y-112702142D01*
X101443333Y-112749761D01*
X101538571Y-112797380D01*
X101729047Y-112797380D01*
X101824285Y-112749761D01*
X101871904Y-112702142D01*
X101919523Y-112606904D01*
X101919523Y-111797380D01*
X102824285Y-112130714D02*
X102824285Y-112797380D01*
X102586190Y-111749761D02*
X102348095Y-112464047D01*
X102967142Y-112464047D01*
X101348095Y-88607380D02*
X101348095Y-89416904D01*
X101395714Y-89512142D01*
X101443333Y-89559761D01*
X101538571Y-89607380D01*
X101729047Y-89607380D01*
X101824285Y-89559761D01*
X101871904Y-89512142D01*
X101919523Y-89416904D01*
X101919523Y-88607380D01*
X102300476Y-88607380D02*
X102919523Y-88607380D01*
X102586190Y-88988333D01*
X102729047Y-88988333D01*
X102824285Y-89035952D01*
X102871904Y-89083571D01*
X102919523Y-89178809D01*
X102919523Y-89416904D01*
X102871904Y-89512142D01*
X102824285Y-89559761D01*
X102729047Y-89607380D01*
X102443333Y-89607380D01*
X102348095Y-89559761D01*
X102300476Y-89512142D01*
X82473095Y-112022380D02*
X82473095Y-112831904D01*
X82520714Y-112927142D01*
X82568333Y-112974761D01*
X82663571Y-113022380D01*
X82854047Y-113022380D01*
X82949285Y-112974761D01*
X82996904Y-112927142D01*
X83044523Y-112831904D01*
X83044523Y-112022380D01*
X83473095Y-112117619D02*
X83520714Y-112070000D01*
X83615952Y-112022380D01*
X83854047Y-112022380D01*
X83949285Y-112070000D01*
X83996904Y-112117619D01*
X84044523Y-112212857D01*
X84044523Y-112308095D01*
X83996904Y-112450952D01*
X83425476Y-113022380D01*
X84044523Y-113022380D01*
X82453095Y-95631380D02*
X82453095Y-96440904D01*
X82500714Y-96536142D01*
X82548333Y-96583761D01*
X82643571Y-96631380D01*
X82834047Y-96631380D01*
X82929285Y-96583761D01*
X82976904Y-96536142D01*
X83024523Y-96440904D01*
X83024523Y-95631380D01*
X84024523Y-96631380D02*
X83453095Y-96631380D01*
X83738809Y-96631380D02*
X83738809Y-95631380D01*
X83643571Y-95774238D01*
X83548333Y-95869476D01*
X83453095Y-95917095D01*
X160527142Y-132457380D02*
X160193809Y-131981190D01*
X159955714Y-132457380D02*
X159955714Y-131457380D01*
X160336666Y-131457380D01*
X160431904Y-131505000D01*
X160479523Y-131552619D01*
X160527142Y-131647857D01*
X160527142Y-131790714D01*
X160479523Y-131885952D01*
X160431904Y-131933571D01*
X160336666Y-131981190D01*
X159955714Y-131981190D01*
X160908095Y-131552619D02*
X160955714Y-131505000D01*
X161050952Y-131457380D01*
X161289047Y-131457380D01*
X161384285Y-131505000D01*
X161431904Y-131552619D01*
X161479523Y-131647857D01*
X161479523Y-131743095D01*
X161431904Y-131885952D01*
X160860476Y-132457380D01*
X161479523Y-132457380D01*
X161812857Y-131457380D02*
X162479523Y-131457380D01*
X162050952Y-132457380D01*
X160527142Y-110707380D02*
X160193809Y-110231190D01*
X159955714Y-110707380D02*
X159955714Y-109707380D01*
X160336666Y-109707380D01*
X160431904Y-109755000D01*
X160479523Y-109802619D01*
X160527142Y-109897857D01*
X160527142Y-110040714D01*
X160479523Y-110135952D01*
X160431904Y-110183571D01*
X160336666Y-110231190D01*
X159955714Y-110231190D01*
X160908095Y-109802619D02*
X160955714Y-109755000D01*
X161050952Y-109707380D01*
X161289047Y-109707380D01*
X161384285Y-109755000D01*
X161431904Y-109802619D01*
X161479523Y-109897857D01*
X161479523Y-109993095D01*
X161431904Y-110135952D01*
X160860476Y-110707380D01*
X161479523Y-110707380D01*
X162336666Y-109707380D02*
X162146190Y-109707380D01*
X162050952Y-109755000D01*
X162003333Y-109802619D01*
X161908095Y-109945476D01*
X161860476Y-110135952D01*
X161860476Y-110516904D01*
X161908095Y-110612142D01*
X161955714Y-110659761D01*
X162050952Y-110707380D01*
X162241428Y-110707380D01*
X162336666Y-110659761D01*
X162384285Y-110612142D01*
X162431904Y-110516904D01*
X162431904Y-110278809D01*
X162384285Y-110183571D01*
X162336666Y-110135952D01*
X162241428Y-110088333D01*
X162050952Y-110088333D01*
X161955714Y-110135952D01*
X161908095Y-110183571D01*
X161860476Y-110278809D01*
X160527142Y-88107380D02*
X160193809Y-87631190D01*
X159955714Y-88107380D02*
X159955714Y-87107380D01*
X160336666Y-87107380D01*
X160431904Y-87155000D01*
X160479523Y-87202619D01*
X160527142Y-87297857D01*
X160527142Y-87440714D01*
X160479523Y-87535952D01*
X160431904Y-87583571D01*
X160336666Y-87631190D01*
X159955714Y-87631190D01*
X160908095Y-87202619D02*
X160955714Y-87155000D01*
X161050952Y-87107380D01*
X161289047Y-87107380D01*
X161384285Y-87155000D01*
X161431904Y-87202619D01*
X161479523Y-87297857D01*
X161479523Y-87393095D01*
X161431904Y-87535952D01*
X160860476Y-88107380D01*
X161479523Y-88107380D01*
X162384285Y-87107380D02*
X161908095Y-87107380D01*
X161860476Y-87583571D01*
X161908095Y-87535952D01*
X162003333Y-87488333D01*
X162241428Y-87488333D01*
X162336666Y-87535952D01*
X162384285Y-87583571D01*
X162431904Y-87678809D01*
X162431904Y-87916904D01*
X162384285Y-88012142D01*
X162336666Y-88059761D01*
X162241428Y-88107380D01*
X162003333Y-88107380D01*
X161908095Y-88059761D01*
X161860476Y-88012142D01*
X143707142Y-132157380D02*
X143373809Y-131681190D01*
X143135714Y-132157380D02*
X143135714Y-131157380D01*
X143516666Y-131157380D01*
X143611904Y-131205000D01*
X143659523Y-131252619D01*
X143707142Y-131347857D01*
X143707142Y-131490714D01*
X143659523Y-131585952D01*
X143611904Y-131633571D01*
X143516666Y-131681190D01*
X143135714Y-131681190D01*
X144088095Y-131252619D02*
X144135714Y-131205000D01*
X144230952Y-131157380D01*
X144469047Y-131157380D01*
X144564285Y-131205000D01*
X144611904Y-131252619D01*
X144659523Y-131347857D01*
X144659523Y-131443095D01*
X144611904Y-131585952D01*
X144040476Y-132157380D01*
X144659523Y-132157380D01*
X145516666Y-131490714D02*
X145516666Y-132157380D01*
X145278571Y-131109761D02*
X145040476Y-131824047D01*
X145659523Y-131824047D01*
X143707142Y-110657380D02*
X143373809Y-110181190D01*
X143135714Y-110657380D02*
X143135714Y-109657380D01*
X143516666Y-109657380D01*
X143611904Y-109705000D01*
X143659523Y-109752619D01*
X143707142Y-109847857D01*
X143707142Y-109990714D01*
X143659523Y-110085952D01*
X143611904Y-110133571D01*
X143516666Y-110181190D01*
X143135714Y-110181190D01*
X144088095Y-109752619D02*
X144135714Y-109705000D01*
X144230952Y-109657380D01*
X144469047Y-109657380D01*
X144564285Y-109705000D01*
X144611904Y-109752619D01*
X144659523Y-109847857D01*
X144659523Y-109943095D01*
X144611904Y-110085952D01*
X144040476Y-110657380D01*
X144659523Y-110657380D01*
X144992857Y-109657380D02*
X145611904Y-109657380D01*
X145278571Y-110038333D01*
X145421428Y-110038333D01*
X145516666Y-110085952D01*
X145564285Y-110133571D01*
X145611904Y-110228809D01*
X145611904Y-110466904D01*
X145564285Y-110562142D01*
X145516666Y-110609761D01*
X145421428Y-110657380D01*
X145135714Y-110657380D01*
X145040476Y-110609761D01*
X144992857Y-110562142D01*
X143707142Y-88107380D02*
X143373809Y-87631190D01*
X143135714Y-88107380D02*
X143135714Y-87107380D01*
X143516666Y-87107380D01*
X143611904Y-87155000D01*
X143659523Y-87202619D01*
X143707142Y-87297857D01*
X143707142Y-87440714D01*
X143659523Y-87535952D01*
X143611904Y-87583571D01*
X143516666Y-87631190D01*
X143135714Y-87631190D01*
X144088095Y-87202619D02*
X144135714Y-87155000D01*
X144230952Y-87107380D01*
X144469047Y-87107380D01*
X144564285Y-87155000D01*
X144611904Y-87202619D01*
X144659523Y-87297857D01*
X144659523Y-87393095D01*
X144611904Y-87535952D01*
X144040476Y-88107380D01*
X144659523Y-88107380D01*
X145040476Y-87202619D02*
X145088095Y-87155000D01*
X145183333Y-87107380D01*
X145421428Y-87107380D01*
X145516666Y-87155000D01*
X145564285Y-87202619D01*
X145611904Y-87297857D01*
X145611904Y-87393095D01*
X145564285Y-87535952D01*
X144992857Y-88107380D01*
X145611904Y-88107380D01*
X160527142Y-145182380D02*
X160193809Y-144706190D01*
X159955714Y-145182380D02*
X159955714Y-144182380D01*
X160336666Y-144182380D01*
X160431904Y-144230000D01*
X160479523Y-144277619D01*
X160527142Y-144372857D01*
X160527142Y-144515714D01*
X160479523Y-144610952D01*
X160431904Y-144658571D01*
X160336666Y-144706190D01*
X159955714Y-144706190D01*
X160908095Y-144277619D02*
X160955714Y-144230000D01*
X161050952Y-144182380D01*
X161289047Y-144182380D01*
X161384285Y-144230000D01*
X161431904Y-144277619D01*
X161479523Y-144372857D01*
X161479523Y-144468095D01*
X161431904Y-144610952D01*
X160860476Y-145182380D01*
X161479523Y-145182380D01*
X162431904Y-145182380D02*
X161860476Y-145182380D01*
X162146190Y-145182380D02*
X162146190Y-144182380D01*
X162050952Y-144325238D01*
X161955714Y-144420476D01*
X161860476Y-144468095D01*
X160527142Y-125532380D02*
X160193809Y-125056190D01*
X159955714Y-125532380D02*
X159955714Y-124532380D01*
X160336666Y-124532380D01*
X160431904Y-124580000D01*
X160479523Y-124627619D01*
X160527142Y-124722857D01*
X160527142Y-124865714D01*
X160479523Y-124960952D01*
X160431904Y-125008571D01*
X160336666Y-125056190D01*
X159955714Y-125056190D01*
X160908095Y-124627619D02*
X160955714Y-124580000D01*
X161050952Y-124532380D01*
X161289047Y-124532380D01*
X161384285Y-124580000D01*
X161431904Y-124627619D01*
X161479523Y-124722857D01*
X161479523Y-124818095D01*
X161431904Y-124960952D01*
X160860476Y-125532380D01*
X161479523Y-125532380D01*
X162098571Y-124532380D02*
X162193809Y-124532380D01*
X162289047Y-124580000D01*
X162336666Y-124627619D01*
X162384285Y-124722857D01*
X162431904Y-124913333D01*
X162431904Y-125151428D01*
X162384285Y-125341904D01*
X162336666Y-125437142D01*
X162289047Y-125484761D01*
X162193809Y-125532380D01*
X162098571Y-125532380D01*
X162003333Y-125484761D01*
X161955714Y-125437142D01*
X161908095Y-125341904D01*
X161860476Y-125151428D01*
X161860476Y-124913333D01*
X161908095Y-124722857D01*
X161955714Y-124627619D01*
X162003333Y-124580000D01*
X162098571Y-124532380D01*
X160527142Y-103632380D02*
X160193809Y-103156190D01*
X159955714Y-103632380D02*
X159955714Y-102632380D01*
X160336666Y-102632380D01*
X160431904Y-102680000D01*
X160479523Y-102727619D01*
X160527142Y-102822857D01*
X160527142Y-102965714D01*
X160479523Y-103060952D01*
X160431904Y-103108571D01*
X160336666Y-103156190D01*
X159955714Y-103156190D01*
X161479523Y-103632380D02*
X160908095Y-103632380D01*
X161193809Y-103632380D02*
X161193809Y-102632380D01*
X161098571Y-102775238D01*
X161003333Y-102870476D01*
X160908095Y-102918095D01*
X161955714Y-103632380D02*
X162146190Y-103632380D01*
X162241428Y-103584761D01*
X162289047Y-103537142D01*
X162384285Y-103394285D01*
X162431904Y-103203809D01*
X162431904Y-102822857D01*
X162384285Y-102727619D01*
X162336666Y-102680000D01*
X162241428Y-102632380D01*
X162050952Y-102632380D01*
X161955714Y-102680000D01*
X161908095Y-102727619D01*
X161860476Y-102822857D01*
X161860476Y-103060952D01*
X161908095Y-103156190D01*
X161955714Y-103203809D01*
X162050952Y-103251428D01*
X162241428Y-103251428D01*
X162336666Y-103203809D01*
X162384285Y-103156190D01*
X162431904Y-103060952D01*
X143707142Y-145257380D02*
X143373809Y-144781190D01*
X143135714Y-145257380D02*
X143135714Y-144257380D01*
X143516666Y-144257380D01*
X143611904Y-144305000D01*
X143659523Y-144352619D01*
X143707142Y-144447857D01*
X143707142Y-144590714D01*
X143659523Y-144685952D01*
X143611904Y-144733571D01*
X143516666Y-144781190D01*
X143135714Y-144781190D01*
X144659523Y-145257380D02*
X144088095Y-145257380D01*
X144373809Y-145257380D02*
X144373809Y-144257380D01*
X144278571Y-144400238D01*
X144183333Y-144495476D01*
X144088095Y-144543095D01*
X145230952Y-144685952D02*
X145135714Y-144638333D01*
X145088095Y-144590714D01*
X145040476Y-144495476D01*
X145040476Y-144447857D01*
X145088095Y-144352619D01*
X145135714Y-144305000D01*
X145230952Y-144257380D01*
X145421428Y-144257380D01*
X145516666Y-144305000D01*
X145564285Y-144352619D01*
X145611904Y-144447857D01*
X145611904Y-144495476D01*
X145564285Y-144590714D01*
X145516666Y-144638333D01*
X145421428Y-144685952D01*
X145230952Y-144685952D01*
X145135714Y-144733571D01*
X145088095Y-144781190D01*
X145040476Y-144876428D01*
X145040476Y-145066904D01*
X145088095Y-145162142D01*
X145135714Y-145209761D01*
X145230952Y-145257380D01*
X145421428Y-145257380D01*
X145516666Y-145209761D01*
X145564285Y-145162142D01*
X145611904Y-145066904D01*
X145611904Y-144876428D01*
X145564285Y-144781190D01*
X145516666Y-144733571D01*
X145421428Y-144685952D01*
X143707142Y-125607380D02*
X143373809Y-125131190D01*
X143135714Y-125607380D02*
X143135714Y-124607380D01*
X143516666Y-124607380D01*
X143611904Y-124655000D01*
X143659523Y-124702619D01*
X143707142Y-124797857D01*
X143707142Y-124940714D01*
X143659523Y-125035952D01*
X143611904Y-125083571D01*
X143516666Y-125131190D01*
X143135714Y-125131190D01*
X144659523Y-125607380D02*
X144088095Y-125607380D01*
X144373809Y-125607380D02*
X144373809Y-124607380D01*
X144278571Y-124750238D01*
X144183333Y-124845476D01*
X144088095Y-124893095D01*
X144992857Y-124607380D02*
X145659523Y-124607380D01*
X145230952Y-125607380D01*
X143707142Y-103457380D02*
X143373809Y-102981190D01*
X143135714Y-103457380D02*
X143135714Y-102457380D01*
X143516666Y-102457380D01*
X143611904Y-102505000D01*
X143659523Y-102552619D01*
X143707142Y-102647857D01*
X143707142Y-102790714D01*
X143659523Y-102885952D01*
X143611904Y-102933571D01*
X143516666Y-102981190D01*
X143135714Y-102981190D01*
X144659523Y-103457380D02*
X144088095Y-103457380D01*
X144373809Y-103457380D02*
X144373809Y-102457380D01*
X144278571Y-102600238D01*
X144183333Y-102695476D01*
X144088095Y-102743095D01*
X145516666Y-102457380D02*
X145326190Y-102457380D01*
X145230952Y-102505000D01*
X145183333Y-102552619D01*
X145088095Y-102695476D01*
X145040476Y-102885952D01*
X145040476Y-103266904D01*
X145088095Y-103362142D01*
X145135714Y-103409761D01*
X145230952Y-103457380D01*
X145421428Y-103457380D01*
X145516666Y-103409761D01*
X145564285Y-103362142D01*
X145611904Y-103266904D01*
X145611904Y-103028809D01*
X145564285Y-102933571D01*
X145516666Y-102885952D01*
X145421428Y-102838333D01*
X145230952Y-102838333D01*
X145135714Y-102885952D01*
X145088095Y-102933571D01*
X145040476Y-103028809D01*
X101457142Y-129032380D02*
X101123809Y-128556190D01*
X100885714Y-129032380D02*
X100885714Y-128032380D01*
X101266666Y-128032380D01*
X101361904Y-128080000D01*
X101409523Y-128127619D01*
X101457142Y-128222857D01*
X101457142Y-128365714D01*
X101409523Y-128460952D01*
X101361904Y-128508571D01*
X101266666Y-128556190D01*
X100885714Y-128556190D01*
X102409523Y-129032380D02*
X101838095Y-129032380D01*
X102123809Y-129032380D02*
X102123809Y-128032380D01*
X102028571Y-128175238D01*
X101933333Y-128270476D01*
X101838095Y-128318095D01*
X102742857Y-128032380D02*
X103361904Y-128032380D01*
X103028571Y-128413333D01*
X103171428Y-128413333D01*
X103266666Y-128460952D01*
X103314285Y-128508571D01*
X103361904Y-128603809D01*
X103361904Y-128841904D01*
X103314285Y-128937142D01*
X103266666Y-128984761D01*
X103171428Y-129032380D01*
X102885714Y-129032380D01*
X102790476Y-128984761D01*
X102742857Y-128937142D01*
X101457142Y-122257380D02*
X101123809Y-121781190D01*
X100885714Y-122257380D02*
X100885714Y-121257380D01*
X101266666Y-121257380D01*
X101361904Y-121305000D01*
X101409523Y-121352619D01*
X101457142Y-121447857D01*
X101457142Y-121590714D01*
X101409523Y-121685952D01*
X101361904Y-121733571D01*
X101266666Y-121781190D01*
X100885714Y-121781190D01*
X102409523Y-122257380D02*
X101838095Y-122257380D01*
X102123809Y-122257380D02*
X102123809Y-121257380D01*
X102028571Y-121400238D01*
X101933333Y-121495476D01*
X101838095Y-121543095D01*
X102790476Y-121352619D02*
X102838095Y-121305000D01*
X102933333Y-121257380D01*
X103171428Y-121257380D01*
X103266666Y-121305000D01*
X103314285Y-121352619D01*
X103361904Y-121447857D01*
X103361904Y-121543095D01*
X103314285Y-121685952D01*
X102742857Y-122257380D01*
X103361904Y-122257380D01*
X101457142Y-105807380D02*
X101123809Y-105331190D01*
X100885714Y-105807380D02*
X100885714Y-104807380D01*
X101266666Y-104807380D01*
X101361904Y-104855000D01*
X101409523Y-104902619D01*
X101457142Y-104997857D01*
X101457142Y-105140714D01*
X101409523Y-105235952D01*
X101361904Y-105283571D01*
X101266666Y-105331190D01*
X100885714Y-105331190D01*
X102409523Y-105807380D02*
X101838095Y-105807380D01*
X102123809Y-105807380D02*
X102123809Y-104807380D01*
X102028571Y-104950238D01*
X101933333Y-105045476D01*
X101838095Y-105093095D01*
X103361904Y-105807380D02*
X102790476Y-105807380D01*
X103076190Y-105807380D02*
X103076190Y-104807380D01*
X102980952Y-104950238D01*
X102885714Y-105045476D01*
X102790476Y-105093095D01*
X101457142Y-99207380D02*
X101123809Y-98731190D01*
X100885714Y-99207380D02*
X100885714Y-98207380D01*
X101266666Y-98207380D01*
X101361904Y-98255000D01*
X101409523Y-98302619D01*
X101457142Y-98397857D01*
X101457142Y-98540714D01*
X101409523Y-98635952D01*
X101361904Y-98683571D01*
X101266666Y-98731190D01*
X100885714Y-98731190D01*
X102409523Y-99207380D02*
X101838095Y-99207380D01*
X102123809Y-99207380D02*
X102123809Y-98207380D01*
X102028571Y-98350238D01*
X101933333Y-98445476D01*
X101838095Y-98493095D01*
X103028571Y-98207380D02*
X103123809Y-98207380D01*
X103219047Y-98255000D01*
X103266666Y-98302619D01*
X103314285Y-98397857D01*
X103361904Y-98588333D01*
X103361904Y-98826428D01*
X103314285Y-99016904D01*
X103266666Y-99112142D01*
X103219047Y-99159761D01*
X103123809Y-99207380D01*
X103028571Y-99207380D01*
X102933333Y-99159761D01*
X102885714Y-99112142D01*
X102838095Y-99016904D01*
X102790476Y-98826428D01*
X102790476Y-98588333D01*
X102838095Y-98397857D01*
X102885714Y-98302619D01*
X102933333Y-98255000D01*
X103028571Y-98207380D01*
X83058333Y-129132380D02*
X82725000Y-128656190D01*
X82486904Y-129132380D02*
X82486904Y-128132380D01*
X82867857Y-128132380D01*
X82963095Y-128180000D01*
X83010714Y-128227619D01*
X83058333Y-128322857D01*
X83058333Y-128465714D01*
X83010714Y-128560952D01*
X82963095Y-128608571D01*
X82867857Y-128656190D01*
X82486904Y-128656190D01*
X83534523Y-129132380D02*
X83725000Y-129132380D01*
X83820238Y-129084761D01*
X83867857Y-129037142D01*
X83963095Y-128894285D01*
X84010714Y-128703809D01*
X84010714Y-128322857D01*
X83963095Y-128227619D01*
X83915476Y-128180000D01*
X83820238Y-128132380D01*
X83629761Y-128132380D01*
X83534523Y-128180000D01*
X83486904Y-128227619D01*
X83439285Y-128322857D01*
X83439285Y-128560952D01*
X83486904Y-128656190D01*
X83534523Y-128703809D01*
X83629761Y-128751428D01*
X83820238Y-128751428D01*
X83915476Y-128703809D01*
X83963095Y-128656190D01*
X84010714Y-128560952D01*
X83058333Y-122482380D02*
X82725000Y-122006190D01*
X82486904Y-122482380D02*
X82486904Y-121482380D01*
X82867857Y-121482380D01*
X82963095Y-121530000D01*
X83010714Y-121577619D01*
X83058333Y-121672857D01*
X83058333Y-121815714D01*
X83010714Y-121910952D01*
X82963095Y-121958571D01*
X82867857Y-122006190D01*
X82486904Y-122006190D01*
X83629761Y-121910952D02*
X83534523Y-121863333D01*
X83486904Y-121815714D01*
X83439285Y-121720476D01*
X83439285Y-121672857D01*
X83486904Y-121577619D01*
X83534523Y-121530000D01*
X83629761Y-121482380D01*
X83820238Y-121482380D01*
X83915476Y-121530000D01*
X83963095Y-121577619D01*
X84010714Y-121672857D01*
X84010714Y-121720476D01*
X83963095Y-121815714D01*
X83915476Y-121863333D01*
X83820238Y-121910952D01*
X83629761Y-121910952D01*
X83534523Y-121958571D01*
X83486904Y-122006190D01*
X83439285Y-122101428D01*
X83439285Y-122291904D01*
X83486904Y-122387142D01*
X83534523Y-122434761D01*
X83629761Y-122482380D01*
X83820238Y-122482380D01*
X83915476Y-122434761D01*
X83963095Y-122387142D01*
X84010714Y-122291904D01*
X84010714Y-122101428D01*
X83963095Y-122006190D01*
X83915476Y-121958571D01*
X83820238Y-121910952D01*
X83058333Y-105632380D02*
X82725000Y-105156190D01*
X82486904Y-105632380D02*
X82486904Y-104632380D01*
X82867857Y-104632380D01*
X82963095Y-104680000D01*
X83010714Y-104727619D01*
X83058333Y-104822857D01*
X83058333Y-104965714D01*
X83010714Y-105060952D01*
X82963095Y-105108571D01*
X82867857Y-105156190D01*
X82486904Y-105156190D01*
X83391666Y-104632380D02*
X84058333Y-104632380D01*
X83629761Y-105632380D01*
X83058333Y-99360380D02*
X82725000Y-98884190D01*
X82486904Y-99360380D02*
X82486904Y-98360380D01*
X82867857Y-98360380D01*
X82963095Y-98408000D01*
X83010714Y-98455619D01*
X83058333Y-98550857D01*
X83058333Y-98693714D01*
X83010714Y-98788952D01*
X82963095Y-98836571D01*
X82867857Y-98884190D01*
X82486904Y-98884190D01*
X83915476Y-98360380D02*
X83725000Y-98360380D01*
X83629761Y-98408000D01*
X83582142Y-98455619D01*
X83486904Y-98598476D01*
X83439285Y-98788952D01*
X83439285Y-99169904D01*
X83486904Y-99265142D01*
X83534523Y-99312761D01*
X83629761Y-99360380D01*
X83820238Y-99360380D01*
X83915476Y-99312761D01*
X83963095Y-99265142D01*
X84010714Y-99169904D01*
X84010714Y-98931809D01*
X83963095Y-98836571D01*
X83915476Y-98788952D01*
X83820238Y-98741333D01*
X83629761Y-98741333D01*
X83534523Y-98788952D01*
X83486904Y-98836571D01*
X83439285Y-98931809D01*
X143532380Y-78741666D02*
X143056190Y-79075000D01*
X143532380Y-79313095D02*
X142532380Y-79313095D01*
X142532380Y-78932142D01*
X142580000Y-78836904D01*
X142627619Y-78789285D01*
X142722857Y-78741666D01*
X142865714Y-78741666D01*
X142960952Y-78789285D01*
X143008571Y-78836904D01*
X143056190Y-78932142D01*
X143056190Y-79313095D01*
X142865714Y-77884523D02*
X143532380Y-77884523D01*
X142484761Y-78122619D02*
X143199047Y-78360714D01*
X143199047Y-77741666D01*
X124682380Y-79166666D02*
X124206190Y-79500000D01*
X124682380Y-79738095D02*
X123682380Y-79738095D01*
X123682380Y-79357142D01*
X123730000Y-79261904D01*
X123777619Y-79214285D01*
X123872857Y-79166666D01*
X124015714Y-79166666D01*
X124110952Y-79214285D01*
X124158571Y-79261904D01*
X124206190Y-79357142D01*
X124206190Y-79738095D01*
X123682380Y-78833333D02*
X123682380Y-78214285D01*
X124063333Y-78547619D01*
X124063333Y-78404761D01*
X124110952Y-78309523D01*
X124158571Y-78261904D01*
X124253809Y-78214285D01*
X124491904Y-78214285D01*
X124587142Y-78261904D01*
X124634761Y-78309523D01*
X124682380Y-78404761D01*
X124682380Y-78690476D01*
X124634761Y-78785714D01*
X124587142Y-78833333D01*
X105332380Y-79291666D02*
X104856190Y-79625000D01*
X105332380Y-79863095D02*
X104332380Y-79863095D01*
X104332380Y-79482142D01*
X104380000Y-79386904D01*
X104427619Y-79339285D01*
X104522857Y-79291666D01*
X104665714Y-79291666D01*
X104760952Y-79339285D01*
X104808571Y-79386904D01*
X104856190Y-79482142D01*
X104856190Y-79863095D01*
X104427619Y-78910714D02*
X104380000Y-78863095D01*
X104332380Y-78767857D01*
X104332380Y-78529761D01*
X104380000Y-78434523D01*
X104427619Y-78386904D01*
X104522857Y-78339285D01*
X104618095Y-78339285D01*
X104760952Y-78386904D01*
X105332380Y-78958333D01*
X105332380Y-78339285D01*
X87032380Y-79691666D02*
X86556190Y-80025000D01*
X87032380Y-80263095D02*
X86032380Y-80263095D01*
X86032380Y-79882142D01*
X86080000Y-79786904D01*
X86127619Y-79739285D01*
X86222857Y-79691666D01*
X86365714Y-79691666D01*
X86460952Y-79739285D01*
X86508571Y-79786904D01*
X86556190Y-79882142D01*
X86556190Y-80263095D01*
X87032380Y-78739285D02*
X87032380Y-79310714D01*
X87032380Y-79025000D02*
X86032380Y-79025000D01*
X86175238Y-79120238D01*
X86270476Y-79215476D01*
X86318095Y-79310714D01*
X136427619Y-78855238D02*
X136380000Y-78950476D01*
X136284761Y-79045714D01*
X136141904Y-79188571D01*
X136094285Y-79283809D01*
X136094285Y-79379047D01*
X136332380Y-79331428D02*
X136284761Y-79426666D01*
X136189523Y-79521904D01*
X135999047Y-79569523D01*
X135665714Y-79569523D01*
X135475238Y-79521904D01*
X135380000Y-79426666D01*
X135332380Y-79331428D01*
X135332380Y-79140952D01*
X135380000Y-79045714D01*
X135475238Y-78950476D01*
X135665714Y-78902857D01*
X135999047Y-78902857D01*
X136189523Y-78950476D01*
X136284761Y-79045714D01*
X136332380Y-79140952D01*
X136332380Y-79331428D01*
X135665714Y-78045714D02*
X136332380Y-78045714D01*
X135284761Y-78283809D02*
X135999047Y-78521904D01*
X135999047Y-77902857D01*
X116927619Y-79005238D02*
X116880000Y-79100476D01*
X116784761Y-79195714D01*
X116641904Y-79338571D01*
X116594285Y-79433809D01*
X116594285Y-79529047D01*
X116832380Y-79481428D02*
X116784761Y-79576666D01*
X116689523Y-79671904D01*
X116499047Y-79719523D01*
X116165714Y-79719523D01*
X115975238Y-79671904D01*
X115880000Y-79576666D01*
X115832380Y-79481428D01*
X115832380Y-79290952D01*
X115880000Y-79195714D01*
X115975238Y-79100476D01*
X116165714Y-79052857D01*
X116499047Y-79052857D01*
X116689523Y-79100476D01*
X116784761Y-79195714D01*
X116832380Y-79290952D01*
X116832380Y-79481428D01*
X115832380Y-78719523D02*
X115832380Y-78100476D01*
X116213333Y-78433809D01*
X116213333Y-78290952D01*
X116260952Y-78195714D01*
X116308571Y-78148095D01*
X116403809Y-78100476D01*
X116641904Y-78100476D01*
X116737142Y-78148095D01*
X116784761Y-78195714D01*
X116832380Y-78290952D01*
X116832380Y-78576666D01*
X116784761Y-78671904D01*
X116737142Y-78719523D01*
X98102619Y-79405238D02*
X98055000Y-79500476D01*
X97959761Y-79595714D01*
X97816904Y-79738571D01*
X97769285Y-79833809D01*
X97769285Y-79929047D01*
X98007380Y-79881428D02*
X97959761Y-79976666D01*
X97864523Y-80071904D01*
X97674047Y-80119523D01*
X97340714Y-80119523D01*
X97150238Y-80071904D01*
X97055000Y-79976666D01*
X97007380Y-79881428D01*
X97007380Y-79690952D01*
X97055000Y-79595714D01*
X97150238Y-79500476D01*
X97340714Y-79452857D01*
X97674047Y-79452857D01*
X97864523Y-79500476D01*
X97959761Y-79595714D01*
X98007380Y-79690952D01*
X98007380Y-79881428D01*
X97102619Y-79071904D02*
X97055000Y-79024285D01*
X97007380Y-78929047D01*
X97007380Y-78690952D01*
X97055000Y-78595714D01*
X97102619Y-78548095D01*
X97197857Y-78500476D01*
X97293095Y-78500476D01*
X97435952Y-78548095D01*
X98007380Y-79119523D01*
X98007380Y-78500476D01*
X80202619Y-79530238D02*
X80155000Y-79625476D01*
X80059761Y-79720714D01*
X79916904Y-79863571D01*
X79869285Y-79958809D01*
X79869285Y-80054047D01*
X80107380Y-80006428D02*
X80059761Y-80101666D01*
X79964523Y-80196904D01*
X79774047Y-80244523D01*
X79440714Y-80244523D01*
X79250238Y-80196904D01*
X79155000Y-80101666D01*
X79107380Y-80006428D01*
X79107380Y-79815952D01*
X79155000Y-79720714D01*
X79250238Y-79625476D01*
X79440714Y-79577857D01*
X79774047Y-79577857D01*
X79964523Y-79625476D01*
X80059761Y-79720714D01*
X80107380Y-79815952D01*
X80107380Y-80006428D01*
X80107380Y-78625476D02*
X80107380Y-79196904D01*
X80107380Y-78911190D02*
X79107380Y-78911190D01*
X79250238Y-79006428D01*
X79345476Y-79101666D01*
X79393095Y-79196904D01*
X84376666Y-52477380D02*
X84376666Y-53191666D01*
X84329047Y-53334523D01*
X84233809Y-53429761D01*
X84090952Y-53477380D01*
X83995714Y-53477380D01*
X85376666Y-53477380D02*
X84805238Y-53477380D01*
X85090952Y-53477380D02*
X85090952Y-52477380D01*
X84995714Y-52620238D01*
X84900476Y-52715476D01*
X84805238Y-52763095D01*
X124253714Y-102020666D02*
X124729904Y-102020666D01*
X124158476Y-102306380D02*
X124491809Y-101306380D01*
X124825142Y-102306380D01*
X125682285Y-102306380D02*
X125110857Y-102306380D01*
X125396571Y-102306380D02*
X125396571Y-101306380D01*
X125301333Y-101449238D01*
X125206095Y-101544476D01*
X125110857Y-101592095D01*
M02*
