%FSLAX45Y45*%
G04 Gerber Fmt 4.5, Leading zero omitted, Abs format (unit mm)*
G04 Created by KiCad (PCBNEW (5.1.5)-3) date 2020-02-24 21:21:06*
%MOMM*%
%LPD*%
G04 APERTURE LIST*
%TA.AperFunction,Profile*%
%ADD10C,0.100000*%
%TD*%
%ADD11C,0.200000*%
%ADD12C,0.300000*%
G04 APERTURE END LIST*
D10*
X7360000Y-14885000D02*
X7357500Y-5200000D01*
X7360000Y-15130000D02*
X7360000Y-14885000D01*
X17310000Y-15127500D02*
X7360000Y-15130000D01*
X17305000Y-5202500D02*
X17310000Y-15127500D01*
X7357500Y-5200000D02*
X17305000Y-5202500D01*
D11*
X9923880Y-7214560D02*
X9963880Y-7254560D01*
X9963880Y-7214560D02*
X9923880Y-7254560D01*
X13910560Y-6418650D02*
X13950560Y-6458650D01*
X13950560Y-6418650D02*
X13910560Y-6458650D01*
X13475000Y-8965000D02*
G75*
G03X13475000Y-8965000I-40000J0D01*
G01*
X13475000Y-9981000D02*
G75*
G03X13475000Y-9981000I-40000J0D01*
G01*
X13840000Y-10572500D02*
G75*
G03X13840000Y-10572500I-40000J0D01*
G01*
X15110000Y-10572500D02*
G75*
G03X15110000Y-10572500I-40000J0D01*
G01*
X9615000Y-13130000D02*
G75*
G03X9615000Y-13130000I-40000J0D01*
G01*
X10885000Y-13130000D02*
G75*
G03X10885000Y-13130000I-40000J0D01*
G01*
X11767500Y-9880000D02*
G75*
G03X11767500Y-9880000I-40000J0D01*
G01*
X13037500Y-9880000D02*
G75*
G03X13037500Y-9880000I-40000J0D01*
G01*
X7982500Y-11490000D02*
G75*
G03X7982500Y-11490000I-40000J0D01*
G01*
X7982500Y-11744000D02*
G75*
G03X7982500Y-11744000I-40000J0D01*
G01*
X8744500Y-11490000D02*
G75*
G03X8744500Y-11490000I-40000J0D01*
G01*
X8744500Y-11744000D02*
G75*
G03X8744500Y-11744000I-40000J0D01*
G01*
X13967000Y-9002500D02*
G75*
G03X13967000Y-9002500I-40000J0D01*
G01*
X14983000Y-9002500D02*
G75*
G03X14983000Y-9002500I-40000J0D01*
G01*
X15522000Y-10590000D02*
G75*
G03X15522000Y-10590000I-40000J0D01*
G01*
X16792000Y-10590000D02*
G75*
G03X16792000Y-10590000I-40000J0D01*
G01*
X11774800Y-10693400D02*
G75*
G03X11774800Y-10693400I-40000J0D01*
G01*
X11774800Y-10947400D02*
G75*
G03X11774800Y-10947400I-40000J0D01*
G01*
X11774800Y-11201400D02*
G75*
G03X11774800Y-11201400I-40000J0D01*
G01*
X11774800Y-11455400D02*
G75*
G03X11774800Y-11455400I-40000J0D01*
G01*
X11774800Y-11709400D02*
G75*
G03X11774800Y-11709400I-40000J0D01*
G01*
X11774800Y-11963400D02*
G75*
G03X11774800Y-11963400I-40000J0D01*
G01*
X11774800Y-12217400D02*
G75*
G03X11774800Y-12217400I-40000J0D01*
G01*
X11774800Y-12471400D02*
G75*
G03X11774800Y-12471400I-40000J0D01*
G01*
X11774800Y-12725400D02*
G75*
G03X11774800Y-12725400I-40000J0D01*
G01*
X11774800Y-12979400D02*
G75*
G03X11774800Y-12979400I-40000J0D01*
G01*
X11774800Y-13233400D02*
G75*
G03X11774800Y-13233400I-40000J0D01*
G01*
X11774800Y-13487400D02*
G75*
G03X11774800Y-13487400I-40000J0D01*
G01*
X11774800Y-13741400D02*
G75*
G03X11774800Y-13741400I-40000J0D01*
G01*
X11774800Y-13995400D02*
G75*
G03X11774800Y-13995400I-40000J0D01*
G01*
X11774800Y-14249400D02*
G75*
G03X11774800Y-14249400I-40000J0D01*
G01*
X13298800Y-10693400D02*
G75*
G03X13298800Y-10693400I-40000J0D01*
G01*
X13298800Y-10947400D02*
G75*
G03X13298800Y-10947400I-40000J0D01*
G01*
X13298800Y-11201400D02*
G75*
G03X13298800Y-11201400I-40000J0D01*
G01*
X13298800Y-11455400D02*
G75*
G03X13298800Y-11455400I-40000J0D01*
G01*
X13298800Y-11709400D02*
G75*
G03X13298800Y-11709400I-40000J0D01*
G01*
X13298800Y-11963400D02*
G75*
G03X13298800Y-11963400I-40000J0D01*
G01*
X13298800Y-12217400D02*
G75*
G03X13298800Y-12217400I-40000J0D01*
G01*
X13298800Y-12471400D02*
G75*
G03X13298800Y-12471400I-40000J0D01*
G01*
X13298800Y-12725400D02*
G75*
G03X13298800Y-12725400I-40000J0D01*
G01*
X13298800Y-12979400D02*
G75*
G03X13298800Y-12979400I-40000J0D01*
G01*
X13298800Y-13233400D02*
G75*
G03X13298800Y-13233400I-40000J0D01*
G01*
X13298800Y-13487400D02*
G75*
G03X13298800Y-13487400I-40000J0D01*
G01*
X13298800Y-13741400D02*
G75*
G03X13298800Y-13741400I-40000J0D01*
G01*
X13298800Y-13995400D02*
G75*
G03X13298800Y-13995400I-40000J0D01*
G01*
X13298800Y-14249400D02*
G75*
G03X13298800Y-14249400I-40000J0D01*
G01*
X16555000Y-7250000D02*
G75*
G03X16555000Y-7250000I-40000J0D01*
G01*
X16555000Y-8520000D02*
G75*
G03X16555000Y-8520000I-40000J0D01*
G01*
X9870000Y-9148500D02*
G75*
G03X9870000Y-9148500I-40000J0D01*
G01*
X9870000Y-9402500D02*
G75*
G03X9870000Y-9402500I-40000J0D01*
G01*
X10632000Y-9148500D02*
G75*
G03X10632000Y-9148500I-40000J0D01*
G01*
X10632000Y-9402500D02*
G75*
G03X10632000Y-9402500I-40000J0D01*
G01*
X13840000Y-14752500D02*
G75*
G03X13840000Y-14752500I-40000J0D01*
G01*
X15110000Y-14752500D02*
G75*
G03X15110000Y-14752500I-40000J0D01*
G01*
X15649000Y-9002500D02*
G75*
G03X15649000Y-9002500I-40000J0D01*
G01*
X16665000Y-9002500D02*
G75*
G03X16665000Y-9002500I-40000J0D01*
G01*
X13840000Y-12787500D02*
G75*
G03X13840000Y-12787500I-40000J0D01*
G01*
X15110000Y-12787500D02*
G75*
G03X15110000Y-12787500I-40000J0D01*
G01*
X10800000Y-7277500D02*
G75*
G03X10800000Y-7277500I-40000J0D01*
G01*
X10800000Y-8547500D02*
G75*
G03X10800000Y-8547500I-40000J0D01*
G01*
X12587500Y-11015000D02*
G75*
G03X12587500Y-11015000I-40000J0D01*
G01*
X12587500Y-11265000D02*
G75*
G03X12587500Y-11265000I-40000J0D01*
G01*
X14095000Y-9622500D02*
G75*
G03X14095000Y-9622500I-40000J0D01*
G01*
X14095000Y-9876500D02*
G75*
G03X14095000Y-9876500I-40000J0D01*
G01*
X14857000Y-9622500D02*
G75*
G03X14857000Y-9622500I-40000J0D01*
G01*
X14857000Y-9876500D02*
G75*
G03X14857000Y-9876500I-40000J0D01*
G01*
X9870000Y-11467500D02*
G75*
G03X9870000Y-11467500I-40000J0D01*
G01*
X9870000Y-11721500D02*
G75*
G03X9870000Y-11721500I-40000J0D01*
G01*
X10632000Y-11467500D02*
G75*
G03X10632000Y-11467500I-40000J0D01*
G01*
X10632000Y-11721500D02*
G75*
G03X10632000Y-11721500I-40000J0D01*
G01*
X15522000Y-14745000D02*
G75*
G03X15522000Y-14745000I-40000J0D01*
G01*
X16792000Y-14745000D02*
G75*
G03X16792000Y-14745000I-40000J0D01*
G01*
X15649000Y-11262500D02*
G75*
G03X15649000Y-11262500I-40000J0D01*
G01*
X16665000Y-11262500D02*
G75*
G03X16665000Y-11262500I-40000J0D01*
G01*
X15522000Y-12780000D02*
G75*
G03X15522000Y-12780000I-40000J0D01*
G01*
X16792000Y-12780000D02*
G75*
G03X16792000Y-12780000I-40000J0D01*
G01*
X14620000Y-7222500D02*
G75*
G03X14620000Y-7222500I-40000J0D01*
G01*
X14620000Y-8492500D02*
G75*
G03X14620000Y-8492500I-40000J0D01*
G01*
X14095000Y-11862500D02*
G75*
G03X14095000Y-11862500I-40000J0D01*
G01*
X14095000Y-12116500D02*
G75*
G03X14095000Y-12116500I-40000J0D01*
G01*
X14857000Y-11862500D02*
G75*
G03X14857000Y-11862500I-40000J0D01*
G01*
X14857000Y-12116500D02*
G75*
G03X14857000Y-12116500I-40000J0D01*
G01*
X15649000Y-13437500D02*
G75*
G03X15649000Y-13437500I-40000J0D01*
G01*
X16665000Y-13437500D02*
G75*
G03X16665000Y-13437500I-40000J0D01*
G01*
X15777000Y-11895000D02*
G75*
G03X15777000Y-11895000I-40000J0D01*
G01*
X15777000Y-12149000D02*
G75*
G03X15777000Y-12149000I-40000J0D01*
G01*
X16539000Y-11895000D02*
G75*
G03X16539000Y-11895000I-40000J0D01*
G01*
X16539000Y-12149000D02*
G75*
G03X16539000Y-12149000I-40000J0D01*
G01*
X9615000Y-10807500D02*
G75*
G03X9615000Y-10807500I-40000J0D01*
G01*
X10885000Y-10807500D02*
G75*
G03X10885000Y-10807500I-40000J0D01*
G01*
X7854500Y-12440000D02*
G75*
G03X7854500Y-12440000I-40000J0D01*
G01*
X8870500Y-12440000D02*
G75*
G03X8870500Y-12440000I-40000J0D01*
G01*
X13967000Y-11257500D02*
G75*
G03X13967000Y-11257500I-40000J0D01*
G01*
X14983000Y-11257500D02*
G75*
G03X14983000Y-11257500I-40000J0D01*
G01*
X8970000Y-7317500D02*
G75*
G03X8970000Y-7317500I-40000J0D01*
G01*
X8970000Y-8587500D02*
G75*
G03X8970000Y-8587500I-40000J0D01*
G01*
X7854500Y-10127800D02*
G75*
G03X7854500Y-10127800I-40000J0D01*
G01*
X8870500Y-10127800D02*
G75*
G03X8870500Y-10127800I-40000J0D01*
G01*
X11945500Y-9091000D02*
G75*
G03X11945500Y-9091000I-40000J0D01*
G01*
X11945500Y-9345000D02*
G75*
G03X11945500Y-9345000I-40000J0D01*
G01*
X12707500Y-9091000D02*
G75*
G03X12707500Y-9091000I-40000J0D01*
G01*
X12707500Y-9345000D02*
G75*
G03X12707500Y-9345000I-40000J0D01*
G01*
X7980500Y-9130900D02*
G75*
G03X7980500Y-9130900I-40000J0D01*
G01*
X7980500Y-9384900D02*
G75*
G03X7980500Y-9384900I-40000J0D01*
G01*
X8742500Y-9130900D02*
G75*
G03X8742500Y-9130900I-40000J0D01*
G01*
X8742500Y-9384900D02*
G75*
G03X8742500Y-9384900I-40000J0D01*
G01*
X15777000Y-13988500D02*
G75*
G03X15777000Y-13988500I-40000J0D01*
G01*
X15777000Y-14242500D02*
G75*
G03X15777000Y-14242500I-40000J0D01*
G01*
X16539000Y-13988500D02*
G75*
G03X16539000Y-13988500I-40000J0D01*
G01*
X16539000Y-14242500D02*
G75*
G03X16539000Y-14242500I-40000J0D01*
G01*
X13967000Y-13407500D02*
G75*
G03X13967000Y-13407500I-40000J0D01*
G01*
X14983000Y-13407500D02*
G75*
G03X14983000Y-13407500I-40000J0D01*
G01*
X9742000Y-12417500D02*
G75*
G03X9742000Y-12417500I-40000J0D01*
G01*
X10758000Y-12417500D02*
G75*
G03X10758000Y-12417500I-40000J0D01*
G01*
X9742000Y-10112500D02*
G75*
G03X9742000Y-10112500I-40000J0D01*
G01*
X10758000Y-10112500D02*
G75*
G03X10758000Y-10112500I-40000J0D01*
G01*
X12735000Y-7265000D02*
G75*
G03X12735000Y-7265000I-40000J0D01*
G01*
X12735000Y-8535000D02*
G75*
G03X12735000Y-8535000I-40000J0D01*
G01*
X14095000Y-14000000D02*
G75*
G03X14095000Y-14000000I-40000J0D01*
G01*
X14095000Y-14254000D02*
G75*
G03X14095000Y-14254000I-40000J0D01*
G01*
X14857000Y-14000000D02*
G75*
G03X14857000Y-14000000I-40000J0D01*
G01*
X14857000Y-14254000D02*
G75*
G03X14857000Y-14254000I-40000J0D01*
G01*
X15777000Y-9622500D02*
G75*
G03X15777000Y-9622500I-40000J0D01*
G01*
X15777000Y-9876500D02*
G75*
G03X15777000Y-9876500I-40000J0D01*
G01*
X16539000Y-9622500D02*
G75*
G03X16539000Y-9622500I-40000J0D01*
G01*
X16539000Y-9876500D02*
G75*
G03X16539000Y-9876500I-40000J0D01*
G01*
X7727500Y-10790000D02*
G75*
G03X7727500Y-10790000I-40000J0D01*
G01*
X8997500Y-10790000D02*
G75*
G03X8997500Y-10790000I-40000J0D01*
G01*
X7727500Y-13140000D02*
G75*
G03X7727500Y-13140000I-40000J0D01*
G01*
X8997500Y-13140000D02*
G75*
G03X8997500Y-13140000I-40000J0D01*
G01*
X8115000Y-6208000D02*
X8115000Y-6297000D01*
X8070500Y-6252500D02*
X8159500Y-6252500D01*
X8217000Y-6386000D02*
X8217000Y-6475000D01*
X8172500Y-6430500D02*
X8261500Y-6430500D01*
X8319000Y-6208000D02*
X8319000Y-6297000D01*
X8274500Y-6252500D02*
X8363500Y-6252500D01*
X8421000Y-6386000D02*
X8421000Y-6475000D01*
X8376500Y-6430500D02*
X8465500Y-6430500D01*
X8523000Y-6208000D02*
X8523000Y-6297000D01*
X8478500Y-6252500D02*
X8567500Y-6252500D01*
X8625000Y-6386000D02*
X8625000Y-6475000D01*
X8580500Y-6430500D02*
X8669500Y-6430500D01*
X8727000Y-6208000D02*
X8727000Y-6297000D01*
X8682500Y-6252500D02*
X8771500Y-6252500D01*
X8829000Y-6386000D02*
X8829000Y-6475000D01*
X8784500Y-6430500D02*
X8873500Y-6430500D01*
X15872500Y-6223000D02*
X15872500Y-6312000D01*
X15828000Y-6267500D02*
X15917000Y-6267500D01*
X15974500Y-6401000D02*
X15974500Y-6490000D01*
X15930000Y-6445500D02*
X16019000Y-6445500D01*
X16076500Y-6223000D02*
X16076500Y-6312000D01*
X16032000Y-6267500D02*
X16121000Y-6267500D01*
X16178500Y-6401000D02*
X16178500Y-6490000D01*
X16134000Y-6445500D02*
X16223000Y-6445500D01*
X16280500Y-6223000D02*
X16280500Y-6312000D01*
X16236000Y-6267500D02*
X16325000Y-6267500D01*
X16382500Y-6401000D02*
X16382500Y-6490000D01*
X16338000Y-6445500D02*
X16427000Y-6445500D01*
X16484500Y-6223000D02*
X16484500Y-6312000D01*
X16440000Y-6267500D02*
X16529000Y-6267500D01*
X16586500Y-6401000D02*
X16586500Y-6490000D01*
X16542000Y-6445500D02*
X16631000Y-6445500D01*
X9521391Y-7596891D02*
X9521391Y-7519109D01*
X9443609Y-7519109D01*
X9443609Y-7596891D01*
X9521391Y-7596891D01*
X9521391Y-8358891D02*
X9521391Y-8281109D01*
X9443609Y-8281109D01*
X9443609Y-8358891D01*
X9521391Y-8358891D01*
X7718891Y-7621891D02*
X7718891Y-7544109D01*
X7641109Y-7544109D01*
X7641109Y-7621891D01*
X7718891Y-7621891D01*
X7718891Y-8383891D02*
X7718891Y-8306109D01*
X7641109Y-8306109D01*
X7641109Y-8383891D01*
X7718891Y-8383891D01*
X13313891Y-7541891D02*
X13313891Y-7464109D01*
X13236109Y-7464109D01*
X13236109Y-7541891D01*
X13313891Y-7541891D01*
X13313891Y-8303891D02*
X13313891Y-8226109D01*
X13236109Y-8226109D01*
X13236109Y-8303891D01*
X13313891Y-8303891D01*
X15156391Y-7501891D02*
X15156391Y-7424109D01*
X15078609Y-7424109D01*
X15078609Y-7501891D01*
X15156391Y-7501891D01*
X15156391Y-8263891D02*
X15156391Y-8186109D01*
X15078609Y-8186109D01*
X15078609Y-8263891D01*
X15156391Y-8263891D01*
X14053891Y-7660891D02*
X14053891Y-7583109D01*
X13976109Y-7583109D01*
X13976109Y-7660891D01*
X14053891Y-7660891D01*
X14053891Y-7914891D02*
X14053891Y-7837109D01*
X13976109Y-7837109D01*
X13976109Y-7914891D01*
X14053891Y-7914891D01*
X14053891Y-8168891D02*
X14053891Y-8091109D01*
X13976109Y-8091109D01*
X13976109Y-8168891D01*
X14053891Y-8168891D01*
X11348891Y-7536391D02*
X11348891Y-7458609D01*
X11271109Y-7458609D01*
X11271109Y-7536391D01*
X11348891Y-7536391D01*
X11348891Y-8298391D02*
X11348891Y-8220609D01*
X11271109Y-8220609D01*
X11271109Y-8298391D01*
X11348891Y-8298391D01*
X12103891Y-7675891D02*
X12103891Y-7598109D01*
X12026109Y-7598109D01*
X12026109Y-7675891D01*
X12103891Y-7675891D01*
X12103891Y-7929891D02*
X12103891Y-7852109D01*
X12026109Y-7852109D01*
X12026109Y-7929891D01*
X12103891Y-7929891D01*
X12103891Y-8183891D02*
X12103891Y-8106109D01*
X12026109Y-8106109D01*
X12026109Y-8183891D01*
X12103891Y-8183891D01*
X8431391Y-7728391D02*
X8431391Y-7650609D01*
X8353609Y-7650609D01*
X8353609Y-7728391D01*
X8431391Y-7728391D01*
X8431391Y-7982391D02*
X8431391Y-7904609D01*
X8353609Y-7904609D01*
X8353609Y-7982391D01*
X8431391Y-7982391D01*
X8431391Y-8236391D02*
X8431391Y-8158609D01*
X8353609Y-8158609D01*
X8353609Y-8236391D01*
X8431391Y-8236391D01*
X15896391Y-7648391D02*
X15896391Y-7570609D01*
X15818609Y-7570609D01*
X15818609Y-7648391D01*
X15896391Y-7648391D01*
X15896391Y-7902391D02*
X15896391Y-7824609D01*
X15818609Y-7824609D01*
X15818609Y-7902391D01*
X15896391Y-7902391D01*
X15896391Y-8156391D02*
X15896391Y-8078609D01*
X15818609Y-8078609D01*
X15818609Y-8156391D01*
X15896391Y-8156391D01*
X10221391Y-7715891D02*
X10221391Y-7638109D01*
X10143609Y-7638109D01*
X10143609Y-7715891D01*
X10221391Y-7715891D01*
X10221391Y-7969891D02*
X10221391Y-7892109D01*
X10143609Y-7892109D01*
X10143609Y-7969891D01*
X10221391Y-7969891D01*
X10221391Y-8223891D02*
X10221391Y-8146109D01*
X10143609Y-8146109D01*
X10143609Y-8223891D01*
X10221391Y-8223891D01*
X8085400Y-14300900D02*
X8160400Y-14225900D01*
X8085400Y-14150900D01*
X8010400Y-14225900D01*
X8085400Y-14300900D01*
X8585400Y-14300900D02*
X8660400Y-14225900D01*
X8585400Y-14150900D01*
X8510400Y-14225900D01*
X8585400Y-14300900D01*
X12115000Y-6147500D02*
X12190000Y-6072500D01*
X12115000Y-5997500D01*
X12040000Y-6072500D01*
X12115000Y-6147500D01*
X12615000Y-6147500D02*
X12690000Y-6072500D01*
X12615000Y-5997500D01*
X12540000Y-6072500D01*
X12615000Y-6147500D01*
X9815000Y-6162500D02*
X9890000Y-6087500D01*
X9815000Y-6012500D01*
X9740000Y-6087500D01*
X9815000Y-6162500D01*
X10315000Y-6162500D02*
X10390000Y-6087500D01*
X10315000Y-6012500D01*
X10240000Y-6087500D01*
X10315000Y-6162500D01*
X10960000Y-6135000D02*
X11035000Y-6060000D01*
X10960000Y-5985000D01*
X10885000Y-6060000D01*
X10960000Y-6135000D01*
X11460000Y-6135000D02*
X11535000Y-6060000D01*
X11460000Y-5985000D01*
X11385000Y-6060000D01*
X11460000Y-6135000D01*
X13272500Y-6162500D02*
X13347500Y-6087500D01*
X13272500Y-6012500D01*
X13197500Y-6087500D01*
X13272500Y-6162500D01*
X13772500Y-6162500D02*
X13847500Y-6087500D01*
X13772500Y-6012500D01*
X13697500Y-6087500D01*
X13772500Y-6162500D01*
X10447600Y-14300900D02*
X10522600Y-14225900D01*
X10447600Y-14150900D01*
X10372600Y-14225900D01*
X10447600Y-14300900D01*
X10947600Y-14300900D02*
X11022600Y-14225900D01*
X10947600Y-14150900D01*
X10872600Y-14225900D01*
X10947600Y-14300900D01*
X14427500Y-6162500D02*
X14502500Y-6087500D01*
X14427500Y-6012500D01*
X14352500Y-6087500D01*
X14427500Y-6162500D01*
X14927500Y-6162500D02*
X15002500Y-6087500D01*
X14927500Y-6012500D01*
X14852500Y-6087500D01*
X14927500Y-6162500D01*
X9266500Y-14300900D02*
X9341500Y-14225900D01*
X9266500Y-14150900D01*
X9191500Y-14225900D01*
X9266500Y-14300900D01*
X9766500Y-14300900D02*
X9841500Y-14225900D01*
X9766500Y-14150900D01*
X9691500Y-14225900D01*
X9766500Y-14300900D01*
X7579500Y-6263000D02*
X7736500Y-6420000D01*
X7736500Y-6263000D02*
X7579500Y-6420000D01*
X7736500Y-6341500D02*
G75*
G03X7736500Y-6341500I-78500J0D01*
G01*
X9205500Y-6263000D02*
X9362500Y-6420000D01*
X9362500Y-6263000D02*
X9205500Y-6420000D01*
X9362500Y-6341500D02*
G75*
G03X9362500Y-6341500I-78500J0D01*
G01*
X15337000Y-6278000D02*
X15494000Y-6435000D01*
X15494000Y-6278000D02*
X15337000Y-6435000D01*
X15494000Y-6356500D02*
G75*
G03X15494000Y-6356500I-78500J0D01*
G01*
X16963000Y-6278000D02*
X17120000Y-6435000D01*
X17120000Y-6278000D02*
X16963000Y-6435000D01*
X17120000Y-6356500D02*
G75*
G03X17120000Y-6356500I-78500J0D01*
G01*
X7460000Y-14064000D02*
X7780000Y-14384000D01*
X7780000Y-14064000D02*
X7460000Y-14384000D01*
X7620000Y-14064000D02*
X7620000Y-14384000D01*
X7460000Y-14224000D02*
X7780000Y-14224000D01*
X16908000Y-7460000D02*
X17228000Y-7780000D01*
X17228000Y-7460000D02*
X16908000Y-7780000D01*
X17068000Y-7460000D02*
X17068000Y-7780000D01*
X16908000Y-7620000D02*
X17228000Y-7620000D01*
X16908000Y-14064000D02*
X17228000Y-14384000D01*
X17228000Y-14064000D02*
X16908000Y-14384000D01*
X17068000Y-14064000D02*
X17068000Y-14384000D01*
X16908000Y-14224000D02*
X17228000Y-14224000D01*
X7673500Y-5836000D02*
X7998500Y-6161000D01*
X7998500Y-5836000D02*
X7673500Y-6161000D01*
X7950906Y-6113406D02*
X7950906Y-5883594D01*
X7721094Y-5883594D01*
X7721094Y-6113406D01*
X7950906Y-6113406D01*
X8943500Y-5836000D02*
X9268500Y-6161000D01*
X9268500Y-5836000D02*
X8943500Y-6161000D01*
X9220906Y-6113406D02*
X9220906Y-5883594D01*
X8991094Y-5883594D01*
X8991094Y-6113406D01*
X9220906Y-6113406D01*
X15431000Y-5851000D02*
X15756000Y-6176000D01*
X15756000Y-5851000D02*
X15431000Y-6176000D01*
X15708406Y-6128406D02*
X15708406Y-5898594D01*
X15478594Y-5898594D01*
X15478594Y-6128406D01*
X15708406Y-6128406D01*
X16701000Y-5851000D02*
X17026000Y-6176000D01*
X17026000Y-5851000D02*
X16701000Y-6176000D01*
X16978406Y-6128406D02*
X16978406Y-5898594D01*
X16748594Y-5898594D01*
X16748594Y-6128406D01*
X16978406Y-6128406D01*
D12*
X7638928Y-15600714D02*
X7638928Y-15300714D01*
X7710357Y-15300714D01*
X7753214Y-15315000D01*
X7781786Y-15343571D01*
X7796071Y-15372143D01*
X7810357Y-15429286D01*
X7810357Y-15472143D01*
X7796071Y-15529286D01*
X7781786Y-15557857D01*
X7753214Y-15586429D01*
X7710357Y-15600714D01*
X7638928Y-15600714D01*
X7938928Y-15600714D02*
X7938928Y-15400714D01*
X7938928Y-15457857D02*
X7953214Y-15429286D01*
X7967500Y-15415000D01*
X7996071Y-15400714D01*
X8024643Y-15400714D01*
X8124643Y-15600714D02*
X8124643Y-15400714D01*
X8124643Y-15300714D02*
X8110357Y-15315000D01*
X8124643Y-15329286D01*
X8138928Y-15315000D01*
X8124643Y-15300714D01*
X8124643Y-15329286D01*
X8310357Y-15600714D02*
X8281786Y-15586429D01*
X8267500Y-15557857D01*
X8267500Y-15300714D01*
X8467500Y-15600714D02*
X8438928Y-15586429D01*
X8424643Y-15557857D01*
X8424643Y-15300714D01*
X8810357Y-15600714D02*
X8810357Y-15300714D01*
X8910357Y-15515000D01*
X9010357Y-15300714D01*
X9010357Y-15600714D01*
X9281786Y-15600714D02*
X9281786Y-15443571D01*
X9267500Y-15415000D01*
X9238928Y-15400714D01*
X9181786Y-15400714D01*
X9153214Y-15415000D01*
X9281786Y-15586429D02*
X9253214Y-15600714D01*
X9181786Y-15600714D01*
X9153214Y-15586429D01*
X9138928Y-15557857D01*
X9138928Y-15529286D01*
X9153214Y-15500714D01*
X9181786Y-15486429D01*
X9253214Y-15486429D01*
X9281786Y-15472143D01*
X9424643Y-15400714D02*
X9424643Y-15700714D01*
X9424643Y-15415000D02*
X9453214Y-15400714D01*
X9510357Y-15400714D01*
X9538928Y-15415000D01*
X9553214Y-15429286D01*
X9567500Y-15457857D01*
X9567500Y-15543571D01*
X9553214Y-15572143D01*
X9538928Y-15586429D01*
X9510357Y-15600714D01*
X9453214Y-15600714D01*
X9424643Y-15586429D01*
X9696071Y-15572143D02*
X9710357Y-15586429D01*
X9696071Y-15600714D01*
X9681786Y-15586429D01*
X9696071Y-15572143D01*
X9696071Y-15600714D01*
X9696071Y-15415000D02*
X9710357Y-15429286D01*
X9696071Y-15443571D01*
X9681786Y-15429286D01*
X9696071Y-15415000D01*
X9696071Y-15443571D01*
X7312500Y-16075000D02*
X7352500Y-16115000D01*
X7352500Y-16075000D02*
X7312500Y-16115000D01*
X7696071Y-15930714D02*
X7724643Y-15930714D01*
X7753214Y-15945000D01*
X7767500Y-15959286D01*
X7781786Y-15987857D01*
X7796071Y-16045000D01*
X7796071Y-16116429D01*
X7781786Y-16173571D01*
X7767500Y-16202143D01*
X7753214Y-16216429D01*
X7724643Y-16230714D01*
X7696071Y-16230714D01*
X7667500Y-16216429D01*
X7653214Y-16202143D01*
X7638928Y-16173571D01*
X7624643Y-16116429D01*
X7624643Y-16045000D01*
X7638928Y-15987857D01*
X7653214Y-15959286D01*
X7667500Y-15945000D01*
X7696071Y-15930714D01*
X7924643Y-16202143D02*
X7938928Y-16216429D01*
X7924643Y-16230714D01*
X7910357Y-16216429D01*
X7924643Y-16202143D01*
X7924643Y-16230714D01*
X8196071Y-16030714D02*
X8196071Y-16230714D01*
X8124643Y-15916429D02*
X8053214Y-16130714D01*
X8238928Y-16130714D01*
X8410357Y-15930714D02*
X8438928Y-15930714D01*
X8467500Y-15945000D01*
X8481786Y-15959286D01*
X8496071Y-15987857D01*
X8510357Y-16045000D01*
X8510357Y-16116429D01*
X8496071Y-16173571D01*
X8481786Y-16202143D01*
X8467500Y-16216429D01*
X8438928Y-16230714D01*
X8410357Y-16230714D01*
X8381786Y-16216429D01*
X8367500Y-16202143D01*
X8353214Y-16173571D01*
X8338928Y-16116429D01*
X8338928Y-16045000D01*
X8353214Y-15987857D01*
X8367500Y-15959286D01*
X8381786Y-15945000D01*
X8410357Y-15930714D01*
X8638928Y-16230714D02*
X8638928Y-16030714D01*
X8638928Y-16059286D02*
X8653214Y-16045000D01*
X8681786Y-16030714D01*
X8724643Y-16030714D01*
X8753214Y-16045000D01*
X8767500Y-16073571D01*
X8767500Y-16230714D01*
X8767500Y-16073571D02*
X8781786Y-16045000D01*
X8810357Y-16030714D01*
X8853214Y-16030714D01*
X8881786Y-16045000D01*
X8896071Y-16073571D01*
X8896071Y-16230714D01*
X9038928Y-16230714D02*
X9038928Y-16030714D01*
X9038928Y-16059286D02*
X9053214Y-16045000D01*
X9081786Y-16030714D01*
X9124643Y-16030714D01*
X9153214Y-16045000D01*
X9167500Y-16073571D01*
X9167500Y-16230714D01*
X9167500Y-16073571D02*
X9181786Y-16045000D01*
X9210357Y-16030714D01*
X9253214Y-16030714D01*
X9281786Y-16045000D01*
X9296071Y-16073571D01*
X9296071Y-16230714D01*
X9881786Y-15916429D02*
X9624643Y-16302143D01*
X10267500Y-15930714D02*
X10296071Y-15930714D01*
X10324643Y-15945000D01*
X10338928Y-15959286D01*
X10353214Y-15987857D01*
X10367500Y-16045000D01*
X10367500Y-16116429D01*
X10353214Y-16173571D01*
X10338928Y-16202143D01*
X10324643Y-16216429D01*
X10296071Y-16230714D01*
X10267500Y-16230714D01*
X10238928Y-16216429D01*
X10224643Y-16202143D01*
X10210357Y-16173571D01*
X10196071Y-16116429D01*
X10196071Y-16045000D01*
X10210357Y-15987857D01*
X10224643Y-15959286D01*
X10238928Y-15945000D01*
X10267500Y-15930714D01*
X10496071Y-16202143D02*
X10510357Y-16216429D01*
X10496071Y-16230714D01*
X10481786Y-16216429D01*
X10496071Y-16202143D01*
X10496071Y-16230714D01*
X10696071Y-15930714D02*
X10724643Y-15930714D01*
X10753214Y-15945000D01*
X10767500Y-15959286D01*
X10781786Y-15987857D01*
X10796071Y-16045000D01*
X10796071Y-16116429D01*
X10781786Y-16173571D01*
X10767500Y-16202143D01*
X10753214Y-16216429D01*
X10724643Y-16230714D01*
X10696071Y-16230714D01*
X10667500Y-16216429D01*
X10653214Y-16202143D01*
X10638928Y-16173571D01*
X10624643Y-16116429D01*
X10624643Y-16045000D01*
X10638928Y-15987857D01*
X10653214Y-15959286D01*
X10667500Y-15945000D01*
X10696071Y-15930714D01*
X11081786Y-16230714D02*
X10910357Y-16230714D01*
X10996071Y-16230714D02*
X10996071Y-15930714D01*
X10967500Y-15973571D01*
X10938928Y-16002143D01*
X10910357Y-16016429D01*
X11338928Y-15930714D02*
X11281786Y-15930714D01*
X11253214Y-15945000D01*
X11238928Y-15959286D01*
X11210357Y-16002143D01*
X11196071Y-16059286D01*
X11196071Y-16173571D01*
X11210357Y-16202143D01*
X11224643Y-16216429D01*
X11253214Y-16230714D01*
X11310357Y-16230714D01*
X11338928Y-16216429D01*
X11353214Y-16202143D01*
X11367500Y-16173571D01*
X11367500Y-16102143D01*
X11353214Y-16073571D01*
X11338928Y-16059286D01*
X11310357Y-16045000D01*
X11253214Y-16045000D01*
X11224643Y-16059286D01*
X11210357Y-16073571D01*
X11196071Y-16102143D01*
X11481786Y-15930714D02*
X11481786Y-15987857D01*
X11596071Y-15930714D02*
X11596071Y-15987857D01*
X12038928Y-16345000D02*
X12024643Y-16330714D01*
X11996071Y-16287857D01*
X11981786Y-16259286D01*
X11967500Y-16216429D01*
X11953214Y-16145000D01*
X11953214Y-16087857D01*
X11967500Y-16016429D01*
X11981786Y-15973571D01*
X11996071Y-15945000D01*
X12024643Y-15902143D01*
X12038928Y-15887857D01*
X12138928Y-15959286D02*
X12153214Y-15945000D01*
X12181786Y-15930714D01*
X12253214Y-15930714D01*
X12281786Y-15945000D01*
X12296071Y-15959286D01*
X12310357Y-15987857D01*
X12310357Y-16016429D01*
X12296071Y-16059286D01*
X12124643Y-16230714D01*
X12310357Y-16230714D01*
X12667500Y-16230714D02*
X12667500Y-15930714D01*
X12796071Y-16230714D02*
X12796071Y-16073571D01*
X12781786Y-16045000D01*
X12753214Y-16030714D01*
X12710357Y-16030714D01*
X12681786Y-16045000D01*
X12667500Y-16059286D01*
X12981786Y-16230714D02*
X12953214Y-16216429D01*
X12938928Y-16202143D01*
X12924643Y-16173571D01*
X12924643Y-16087857D01*
X12938928Y-16059286D01*
X12953214Y-16045000D01*
X12981786Y-16030714D01*
X13024643Y-16030714D01*
X13053214Y-16045000D01*
X13067500Y-16059286D01*
X13081786Y-16087857D01*
X13081786Y-16173571D01*
X13067500Y-16202143D01*
X13053214Y-16216429D01*
X13024643Y-16230714D01*
X12981786Y-16230714D01*
X13253214Y-16230714D02*
X13224643Y-16216429D01*
X13210357Y-16187857D01*
X13210357Y-15930714D01*
X13481786Y-16216429D02*
X13453214Y-16230714D01*
X13396071Y-16230714D01*
X13367500Y-16216429D01*
X13353214Y-16187857D01*
X13353214Y-16073571D01*
X13367500Y-16045000D01*
X13396071Y-16030714D01*
X13453214Y-16030714D01*
X13481786Y-16045000D01*
X13496071Y-16073571D01*
X13496071Y-16102143D01*
X13353214Y-16130714D01*
X13610357Y-16216429D02*
X13638928Y-16230714D01*
X13696071Y-16230714D01*
X13724643Y-16216429D01*
X13738928Y-16187857D01*
X13738928Y-16173571D01*
X13724643Y-16145000D01*
X13696071Y-16130714D01*
X13653214Y-16130714D01*
X13624643Y-16116429D01*
X13610357Y-16087857D01*
X13610357Y-16073571D01*
X13624643Y-16045000D01*
X13653214Y-16030714D01*
X13696071Y-16030714D01*
X13724643Y-16045000D01*
X13838928Y-16345000D02*
X13853214Y-16330714D01*
X13881786Y-16287857D01*
X13896071Y-16259286D01*
X13910357Y-16216429D01*
X13924643Y-16145000D01*
X13924643Y-16087857D01*
X13910357Y-16016429D01*
X13896071Y-15973571D01*
X13881786Y-15945000D01*
X13853214Y-15902143D01*
X13838928Y-15887857D01*
X7352500Y-16491000D02*
G75*
G03X7352500Y-16491000I-40000J0D01*
G01*
X7696071Y-16326714D02*
X7724643Y-16326714D01*
X7753214Y-16341000D01*
X7767500Y-16355286D01*
X7781786Y-16383857D01*
X7796071Y-16441000D01*
X7796071Y-16512429D01*
X7781786Y-16569571D01*
X7767500Y-16598143D01*
X7753214Y-16612429D01*
X7724643Y-16626714D01*
X7696071Y-16626714D01*
X7667500Y-16612429D01*
X7653214Y-16598143D01*
X7638928Y-16569571D01*
X7624643Y-16512429D01*
X7624643Y-16441000D01*
X7638928Y-16383857D01*
X7653214Y-16355286D01*
X7667500Y-16341000D01*
X7696071Y-16326714D01*
X7924643Y-16598143D02*
X7938928Y-16612429D01*
X7924643Y-16626714D01*
X7910357Y-16612429D01*
X7924643Y-16598143D01*
X7924643Y-16626714D01*
X8110357Y-16455286D02*
X8081786Y-16441000D01*
X8067500Y-16426714D01*
X8053214Y-16398143D01*
X8053214Y-16383857D01*
X8067500Y-16355286D01*
X8081786Y-16341000D01*
X8110357Y-16326714D01*
X8167500Y-16326714D01*
X8196071Y-16341000D01*
X8210357Y-16355286D01*
X8224643Y-16383857D01*
X8224643Y-16398143D01*
X8210357Y-16426714D01*
X8196071Y-16441000D01*
X8167500Y-16455286D01*
X8110357Y-16455286D01*
X8081786Y-16469571D01*
X8067500Y-16483857D01*
X8053214Y-16512429D01*
X8053214Y-16569571D01*
X8067500Y-16598143D01*
X8081786Y-16612429D01*
X8110357Y-16626714D01*
X8167500Y-16626714D01*
X8196071Y-16612429D01*
X8210357Y-16598143D01*
X8224643Y-16569571D01*
X8224643Y-16512429D01*
X8210357Y-16483857D01*
X8196071Y-16469571D01*
X8167500Y-16455286D01*
X8410357Y-16326714D02*
X8438928Y-16326714D01*
X8467500Y-16341000D01*
X8481786Y-16355286D01*
X8496071Y-16383857D01*
X8510357Y-16441000D01*
X8510357Y-16512429D01*
X8496071Y-16569571D01*
X8481786Y-16598143D01*
X8467500Y-16612429D01*
X8438928Y-16626714D01*
X8410357Y-16626714D01*
X8381786Y-16612429D01*
X8367500Y-16598143D01*
X8353214Y-16569571D01*
X8338928Y-16512429D01*
X8338928Y-16441000D01*
X8353214Y-16383857D01*
X8367500Y-16355286D01*
X8381786Y-16341000D01*
X8410357Y-16326714D01*
X8638928Y-16626714D02*
X8638928Y-16426714D01*
X8638928Y-16455286D02*
X8653214Y-16441000D01*
X8681786Y-16426714D01*
X8724643Y-16426714D01*
X8753214Y-16441000D01*
X8767500Y-16469571D01*
X8767500Y-16626714D01*
X8767500Y-16469571D02*
X8781786Y-16441000D01*
X8810357Y-16426714D01*
X8853214Y-16426714D01*
X8881786Y-16441000D01*
X8896071Y-16469571D01*
X8896071Y-16626714D01*
X9038928Y-16626714D02*
X9038928Y-16426714D01*
X9038928Y-16455286D02*
X9053214Y-16441000D01*
X9081786Y-16426714D01*
X9124643Y-16426714D01*
X9153214Y-16441000D01*
X9167500Y-16469571D01*
X9167500Y-16626714D01*
X9167500Y-16469571D02*
X9181786Y-16441000D01*
X9210357Y-16426714D01*
X9253214Y-16426714D01*
X9281786Y-16441000D01*
X9296071Y-16469571D01*
X9296071Y-16626714D01*
X9881786Y-16312429D02*
X9624643Y-16698143D01*
X10267500Y-16326714D02*
X10296071Y-16326714D01*
X10324643Y-16341000D01*
X10338928Y-16355286D01*
X10353214Y-16383857D01*
X10367500Y-16441000D01*
X10367500Y-16512429D01*
X10353214Y-16569571D01*
X10338928Y-16598143D01*
X10324643Y-16612429D01*
X10296071Y-16626714D01*
X10267500Y-16626714D01*
X10238928Y-16612429D01*
X10224643Y-16598143D01*
X10210357Y-16569571D01*
X10196071Y-16512429D01*
X10196071Y-16441000D01*
X10210357Y-16383857D01*
X10224643Y-16355286D01*
X10238928Y-16341000D01*
X10267500Y-16326714D01*
X10496071Y-16598143D02*
X10510357Y-16612429D01*
X10496071Y-16626714D01*
X10481786Y-16612429D01*
X10496071Y-16598143D01*
X10496071Y-16626714D01*
X10696071Y-16326714D02*
X10724643Y-16326714D01*
X10753214Y-16341000D01*
X10767500Y-16355286D01*
X10781786Y-16383857D01*
X10796071Y-16441000D01*
X10796071Y-16512429D01*
X10781786Y-16569571D01*
X10767500Y-16598143D01*
X10753214Y-16612429D01*
X10724643Y-16626714D01*
X10696071Y-16626714D01*
X10667500Y-16612429D01*
X10653214Y-16598143D01*
X10638928Y-16569571D01*
X10624643Y-16512429D01*
X10624643Y-16441000D01*
X10638928Y-16383857D01*
X10653214Y-16355286D01*
X10667500Y-16341000D01*
X10696071Y-16326714D01*
X10896071Y-16326714D02*
X11081786Y-16326714D01*
X10981786Y-16441000D01*
X11024643Y-16441000D01*
X11053214Y-16455286D01*
X11067500Y-16469571D01*
X11081786Y-16498143D01*
X11081786Y-16569571D01*
X11067500Y-16598143D01*
X11053214Y-16612429D01*
X11024643Y-16626714D01*
X10938928Y-16626714D01*
X10910357Y-16612429D01*
X10896071Y-16598143D01*
X11367500Y-16626714D02*
X11196071Y-16626714D01*
X11281786Y-16626714D02*
X11281786Y-16326714D01*
X11253214Y-16369571D01*
X11224643Y-16398143D01*
X11196071Y-16412429D01*
X11481786Y-16326714D02*
X11481786Y-16383857D01*
X11596071Y-16326714D02*
X11596071Y-16383857D01*
X12038928Y-16741000D02*
X12024643Y-16726714D01*
X11996071Y-16683857D01*
X11981786Y-16655286D01*
X11967500Y-16612429D01*
X11953214Y-16541000D01*
X11953214Y-16483857D01*
X11967500Y-16412429D01*
X11981786Y-16369571D01*
X11996071Y-16341000D01*
X12024643Y-16298143D01*
X12038928Y-16283857D01*
X12310357Y-16626714D02*
X12138928Y-16626714D01*
X12224643Y-16626714D02*
X12224643Y-16326714D01*
X12196071Y-16369571D01*
X12167500Y-16398143D01*
X12138928Y-16412429D01*
X12410357Y-16326714D02*
X12596071Y-16326714D01*
X12496071Y-16441000D01*
X12538928Y-16441000D01*
X12567500Y-16455286D01*
X12581786Y-16469571D01*
X12596071Y-16498143D01*
X12596071Y-16569571D01*
X12581786Y-16598143D01*
X12567500Y-16612429D01*
X12538928Y-16626714D01*
X12453214Y-16626714D01*
X12424643Y-16612429D01*
X12410357Y-16598143D01*
X12781786Y-16326714D02*
X12810357Y-16326714D01*
X12838928Y-16341000D01*
X12853214Y-16355286D01*
X12867500Y-16383857D01*
X12881786Y-16441000D01*
X12881786Y-16512429D01*
X12867500Y-16569571D01*
X12853214Y-16598143D01*
X12838928Y-16612429D01*
X12810357Y-16626714D01*
X12781786Y-16626714D01*
X12753214Y-16612429D01*
X12738928Y-16598143D01*
X12724643Y-16569571D01*
X12710357Y-16512429D01*
X12710357Y-16441000D01*
X12724643Y-16383857D01*
X12738928Y-16355286D01*
X12753214Y-16341000D01*
X12781786Y-16326714D01*
X13238928Y-16626714D02*
X13238928Y-16326714D01*
X13367500Y-16626714D02*
X13367500Y-16469571D01*
X13353214Y-16441000D01*
X13324643Y-16426714D01*
X13281786Y-16426714D01*
X13253214Y-16441000D01*
X13238928Y-16455286D01*
X13553214Y-16626714D02*
X13524643Y-16612429D01*
X13510357Y-16598143D01*
X13496071Y-16569571D01*
X13496071Y-16483857D01*
X13510357Y-16455286D01*
X13524643Y-16441000D01*
X13553214Y-16426714D01*
X13596071Y-16426714D01*
X13624643Y-16441000D01*
X13638928Y-16455286D01*
X13653214Y-16483857D01*
X13653214Y-16569571D01*
X13638928Y-16598143D01*
X13624643Y-16612429D01*
X13596071Y-16626714D01*
X13553214Y-16626714D01*
X13824643Y-16626714D02*
X13796071Y-16612429D01*
X13781786Y-16583857D01*
X13781786Y-16326714D01*
X14053214Y-16612429D02*
X14024643Y-16626714D01*
X13967500Y-16626714D01*
X13938928Y-16612429D01*
X13924643Y-16583857D01*
X13924643Y-16469571D01*
X13938928Y-16441000D01*
X13967500Y-16426714D01*
X14024643Y-16426714D01*
X14053214Y-16441000D01*
X14067500Y-16469571D01*
X14067500Y-16498143D01*
X13924643Y-16526714D01*
X14181786Y-16612429D02*
X14210357Y-16626714D01*
X14267500Y-16626714D01*
X14296071Y-16612429D01*
X14310357Y-16583857D01*
X14310357Y-16569571D01*
X14296071Y-16541000D01*
X14267500Y-16526714D01*
X14224643Y-16526714D01*
X14196071Y-16512429D01*
X14181786Y-16483857D01*
X14181786Y-16469571D01*
X14196071Y-16441000D01*
X14224643Y-16426714D01*
X14267500Y-16426714D01*
X14296071Y-16441000D01*
X14410357Y-16741000D02*
X14424643Y-16726714D01*
X14453214Y-16683857D01*
X14467500Y-16655286D01*
X14481786Y-16612429D01*
X14496071Y-16541000D01*
X14496071Y-16483857D01*
X14481786Y-16412429D01*
X14467500Y-16369571D01*
X14453214Y-16341000D01*
X14424643Y-16298143D01*
X14410357Y-16283857D01*
X7308000Y-16842500D02*
X7308000Y-16931500D01*
X7263500Y-16887000D02*
X7352500Y-16887000D01*
X7696071Y-16722714D02*
X7724643Y-16722714D01*
X7753214Y-16737000D01*
X7767500Y-16751286D01*
X7781786Y-16779857D01*
X7796071Y-16837000D01*
X7796071Y-16908429D01*
X7781786Y-16965572D01*
X7767500Y-16994143D01*
X7753214Y-17008429D01*
X7724643Y-17022714D01*
X7696071Y-17022714D01*
X7667500Y-17008429D01*
X7653214Y-16994143D01*
X7638928Y-16965572D01*
X7624643Y-16908429D01*
X7624643Y-16837000D01*
X7638928Y-16779857D01*
X7653214Y-16751286D01*
X7667500Y-16737000D01*
X7696071Y-16722714D01*
X7924643Y-16994143D02*
X7938928Y-17008429D01*
X7924643Y-17022714D01*
X7910357Y-17008429D01*
X7924643Y-16994143D01*
X7924643Y-17022714D01*
X8110357Y-16851286D02*
X8081786Y-16837000D01*
X8067500Y-16822714D01*
X8053214Y-16794143D01*
X8053214Y-16779857D01*
X8067500Y-16751286D01*
X8081786Y-16737000D01*
X8110357Y-16722714D01*
X8167500Y-16722714D01*
X8196071Y-16737000D01*
X8210357Y-16751286D01*
X8224643Y-16779857D01*
X8224643Y-16794143D01*
X8210357Y-16822714D01*
X8196071Y-16837000D01*
X8167500Y-16851286D01*
X8110357Y-16851286D01*
X8081786Y-16865572D01*
X8067500Y-16879857D01*
X8053214Y-16908429D01*
X8053214Y-16965572D01*
X8067500Y-16994143D01*
X8081786Y-17008429D01*
X8110357Y-17022714D01*
X8167500Y-17022714D01*
X8196071Y-17008429D01*
X8210357Y-16994143D01*
X8224643Y-16965572D01*
X8224643Y-16908429D01*
X8210357Y-16879857D01*
X8196071Y-16865572D01*
X8167500Y-16851286D01*
X8367500Y-17022714D02*
X8424643Y-17022714D01*
X8453214Y-17008429D01*
X8467500Y-16994143D01*
X8496071Y-16951286D01*
X8510357Y-16894143D01*
X8510357Y-16779857D01*
X8496071Y-16751286D01*
X8481786Y-16737000D01*
X8453214Y-16722714D01*
X8396071Y-16722714D01*
X8367500Y-16737000D01*
X8353214Y-16751286D01*
X8338928Y-16779857D01*
X8338928Y-16851286D01*
X8353214Y-16879857D01*
X8367500Y-16894143D01*
X8396071Y-16908429D01*
X8453214Y-16908429D01*
X8481786Y-16894143D01*
X8496071Y-16879857D01*
X8510357Y-16851286D01*
X8638928Y-17022714D02*
X8638928Y-16822714D01*
X8638928Y-16851286D02*
X8653214Y-16837000D01*
X8681786Y-16822714D01*
X8724643Y-16822714D01*
X8753214Y-16837000D01*
X8767500Y-16865572D01*
X8767500Y-17022714D01*
X8767500Y-16865572D02*
X8781786Y-16837000D01*
X8810357Y-16822714D01*
X8853214Y-16822714D01*
X8881786Y-16837000D01*
X8896071Y-16865572D01*
X8896071Y-17022714D01*
X9038928Y-17022714D02*
X9038928Y-16822714D01*
X9038928Y-16851286D02*
X9053214Y-16837000D01*
X9081786Y-16822714D01*
X9124643Y-16822714D01*
X9153214Y-16837000D01*
X9167500Y-16865572D01*
X9167500Y-17022714D01*
X9167500Y-16865572D02*
X9181786Y-16837000D01*
X9210357Y-16822714D01*
X9253214Y-16822714D01*
X9281786Y-16837000D01*
X9296071Y-16865572D01*
X9296071Y-17022714D01*
X9881786Y-16708429D02*
X9624643Y-17094143D01*
X10267500Y-16722714D02*
X10296071Y-16722714D01*
X10324643Y-16737000D01*
X10338928Y-16751286D01*
X10353214Y-16779857D01*
X10367500Y-16837000D01*
X10367500Y-16908429D01*
X10353214Y-16965572D01*
X10338928Y-16994143D01*
X10324643Y-17008429D01*
X10296071Y-17022714D01*
X10267500Y-17022714D01*
X10238928Y-17008429D01*
X10224643Y-16994143D01*
X10210357Y-16965572D01*
X10196071Y-16908429D01*
X10196071Y-16837000D01*
X10210357Y-16779857D01*
X10224643Y-16751286D01*
X10238928Y-16737000D01*
X10267500Y-16722714D01*
X10496071Y-16994143D02*
X10510357Y-17008429D01*
X10496071Y-17022714D01*
X10481786Y-17008429D01*
X10496071Y-16994143D01*
X10496071Y-17022714D01*
X10696071Y-16722714D02*
X10724643Y-16722714D01*
X10753214Y-16737000D01*
X10767500Y-16751286D01*
X10781786Y-16779857D01*
X10796071Y-16837000D01*
X10796071Y-16908429D01*
X10781786Y-16965572D01*
X10767500Y-16994143D01*
X10753214Y-17008429D01*
X10724643Y-17022714D01*
X10696071Y-17022714D01*
X10667500Y-17008429D01*
X10653214Y-16994143D01*
X10638928Y-16965572D01*
X10624643Y-16908429D01*
X10624643Y-16837000D01*
X10638928Y-16779857D01*
X10653214Y-16751286D01*
X10667500Y-16737000D01*
X10696071Y-16722714D01*
X10896071Y-16722714D02*
X11081786Y-16722714D01*
X10981786Y-16837000D01*
X11024643Y-16837000D01*
X11053214Y-16851286D01*
X11067500Y-16865572D01*
X11081786Y-16894143D01*
X11081786Y-16965572D01*
X11067500Y-16994143D01*
X11053214Y-17008429D01*
X11024643Y-17022714D01*
X10938928Y-17022714D01*
X10910357Y-17008429D01*
X10896071Y-16994143D01*
X11353214Y-16722714D02*
X11210357Y-16722714D01*
X11196071Y-16865572D01*
X11210357Y-16851286D01*
X11238928Y-16837000D01*
X11310357Y-16837000D01*
X11338928Y-16851286D01*
X11353214Y-16865572D01*
X11367500Y-16894143D01*
X11367500Y-16965572D01*
X11353214Y-16994143D01*
X11338928Y-17008429D01*
X11310357Y-17022714D01*
X11238928Y-17022714D01*
X11210357Y-17008429D01*
X11196071Y-16994143D01*
X11481786Y-16722714D02*
X11481786Y-16779857D01*
X11596071Y-16722714D02*
X11596071Y-16779857D01*
X12038928Y-17137000D02*
X12024643Y-17122714D01*
X11996071Y-17079857D01*
X11981786Y-17051286D01*
X11967500Y-17008429D01*
X11953214Y-16937000D01*
X11953214Y-16879857D01*
X11967500Y-16808429D01*
X11981786Y-16765571D01*
X11996071Y-16737000D01*
X12024643Y-16694143D01*
X12038928Y-16679857D01*
X12310357Y-17022714D02*
X12138928Y-17022714D01*
X12224643Y-17022714D02*
X12224643Y-16722714D01*
X12196071Y-16765571D01*
X12167500Y-16794143D01*
X12138928Y-16808429D01*
X12567500Y-16722714D02*
X12510357Y-16722714D01*
X12481786Y-16737000D01*
X12467500Y-16751286D01*
X12438928Y-16794143D01*
X12424643Y-16851286D01*
X12424643Y-16965572D01*
X12438928Y-16994143D01*
X12453214Y-17008429D01*
X12481786Y-17022714D01*
X12538928Y-17022714D01*
X12567500Y-17008429D01*
X12581786Y-16994143D01*
X12596071Y-16965572D01*
X12596071Y-16894143D01*
X12581786Y-16865572D01*
X12567500Y-16851286D01*
X12538928Y-16837000D01*
X12481786Y-16837000D01*
X12453214Y-16851286D01*
X12438928Y-16865572D01*
X12424643Y-16894143D01*
X12953214Y-17022714D02*
X12953214Y-16722714D01*
X13081786Y-17022714D02*
X13081786Y-16865572D01*
X13067500Y-16837000D01*
X13038928Y-16822714D01*
X12996071Y-16822714D01*
X12967500Y-16837000D01*
X12953214Y-16851286D01*
X13267500Y-17022714D02*
X13238928Y-17008429D01*
X13224643Y-16994143D01*
X13210357Y-16965572D01*
X13210357Y-16879857D01*
X13224643Y-16851286D01*
X13238928Y-16837000D01*
X13267500Y-16822714D01*
X13310357Y-16822714D01*
X13338928Y-16837000D01*
X13353214Y-16851286D01*
X13367500Y-16879857D01*
X13367500Y-16965572D01*
X13353214Y-16994143D01*
X13338928Y-17008429D01*
X13310357Y-17022714D01*
X13267500Y-17022714D01*
X13538928Y-17022714D02*
X13510357Y-17008429D01*
X13496071Y-16979857D01*
X13496071Y-16722714D01*
X13767500Y-17008429D02*
X13738928Y-17022714D01*
X13681786Y-17022714D01*
X13653214Y-17008429D01*
X13638928Y-16979857D01*
X13638928Y-16865572D01*
X13653214Y-16837000D01*
X13681786Y-16822714D01*
X13738928Y-16822714D01*
X13767500Y-16837000D01*
X13781786Y-16865572D01*
X13781786Y-16894143D01*
X13638928Y-16922714D01*
X13896071Y-17008429D02*
X13924643Y-17022714D01*
X13981786Y-17022714D01*
X14010357Y-17008429D01*
X14024643Y-16979857D01*
X14024643Y-16965572D01*
X14010357Y-16937000D01*
X13981786Y-16922714D01*
X13938928Y-16922714D01*
X13910357Y-16908429D01*
X13896071Y-16879857D01*
X13896071Y-16865572D01*
X13910357Y-16837000D01*
X13938928Y-16822714D01*
X13981786Y-16822714D01*
X14010357Y-16837000D01*
X14124643Y-17137000D02*
X14138928Y-17122714D01*
X14167500Y-17079857D01*
X14181786Y-17051286D01*
X14196071Y-17008429D01*
X14210357Y-16937000D01*
X14210357Y-16879857D01*
X14196071Y-16808429D01*
X14181786Y-16765571D01*
X14167500Y-16737000D01*
X14138928Y-16694143D01*
X14124643Y-16679857D01*
X7336391Y-17321891D02*
X7336391Y-17244109D01*
X7258609Y-17244109D01*
X7258609Y-17321891D01*
X7336391Y-17321891D01*
X7796071Y-17418714D02*
X7624643Y-17418714D01*
X7710357Y-17418714D02*
X7710357Y-17118714D01*
X7681786Y-17161572D01*
X7653214Y-17190143D01*
X7624643Y-17204429D01*
X7924643Y-17390143D02*
X7938928Y-17404429D01*
X7924643Y-17418714D01*
X7910357Y-17404429D01*
X7924643Y-17390143D01*
X7924643Y-17418714D01*
X8224643Y-17418714D02*
X8053214Y-17418714D01*
X8138928Y-17418714D02*
X8138928Y-17118714D01*
X8110357Y-17161572D01*
X8081786Y-17190143D01*
X8053214Y-17204429D01*
X8410357Y-17118714D02*
X8438928Y-17118714D01*
X8467500Y-17133000D01*
X8481786Y-17147286D01*
X8496071Y-17175857D01*
X8510357Y-17233000D01*
X8510357Y-17304429D01*
X8496071Y-17361572D01*
X8481786Y-17390143D01*
X8467500Y-17404429D01*
X8438928Y-17418714D01*
X8410357Y-17418714D01*
X8381786Y-17404429D01*
X8367500Y-17390143D01*
X8353214Y-17361572D01*
X8338928Y-17304429D01*
X8338928Y-17233000D01*
X8353214Y-17175857D01*
X8367500Y-17147286D01*
X8381786Y-17133000D01*
X8410357Y-17118714D01*
X8638928Y-17418714D02*
X8638928Y-17218714D01*
X8638928Y-17247286D02*
X8653214Y-17233000D01*
X8681786Y-17218714D01*
X8724643Y-17218714D01*
X8753214Y-17233000D01*
X8767500Y-17261572D01*
X8767500Y-17418714D01*
X8767500Y-17261572D02*
X8781786Y-17233000D01*
X8810357Y-17218714D01*
X8853214Y-17218714D01*
X8881786Y-17233000D01*
X8896071Y-17261572D01*
X8896071Y-17418714D01*
X9038928Y-17418714D02*
X9038928Y-17218714D01*
X9038928Y-17247286D02*
X9053214Y-17233000D01*
X9081786Y-17218714D01*
X9124643Y-17218714D01*
X9153214Y-17233000D01*
X9167500Y-17261572D01*
X9167500Y-17418714D01*
X9167500Y-17261572D02*
X9181786Y-17233000D01*
X9210357Y-17218714D01*
X9253214Y-17218714D01*
X9281786Y-17233000D01*
X9296071Y-17261572D01*
X9296071Y-17418714D01*
X9881786Y-17104429D02*
X9624643Y-17490143D01*
X10267500Y-17118714D02*
X10296071Y-17118714D01*
X10324643Y-17133000D01*
X10338928Y-17147286D01*
X10353214Y-17175857D01*
X10367500Y-17233000D01*
X10367500Y-17304429D01*
X10353214Y-17361572D01*
X10338928Y-17390143D01*
X10324643Y-17404429D01*
X10296071Y-17418714D01*
X10267500Y-17418714D01*
X10238928Y-17404429D01*
X10224643Y-17390143D01*
X10210357Y-17361572D01*
X10196071Y-17304429D01*
X10196071Y-17233000D01*
X10210357Y-17175857D01*
X10224643Y-17147286D01*
X10238928Y-17133000D01*
X10267500Y-17118714D01*
X10496071Y-17390143D02*
X10510357Y-17404429D01*
X10496071Y-17418714D01*
X10481786Y-17404429D01*
X10496071Y-17390143D01*
X10496071Y-17418714D01*
X10696071Y-17118714D02*
X10724643Y-17118714D01*
X10753214Y-17133000D01*
X10767500Y-17147286D01*
X10781786Y-17175857D01*
X10796071Y-17233000D01*
X10796071Y-17304429D01*
X10781786Y-17361572D01*
X10767500Y-17390143D01*
X10753214Y-17404429D01*
X10724643Y-17418714D01*
X10696071Y-17418714D01*
X10667500Y-17404429D01*
X10653214Y-17390143D01*
X10638928Y-17361572D01*
X10624643Y-17304429D01*
X10624643Y-17233000D01*
X10638928Y-17175857D01*
X10653214Y-17147286D01*
X10667500Y-17133000D01*
X10696071Y-17118714D01*
X11053214Y-17218714D02*
X11053214Y-17418714D01*
X10981786Y-17104429D02*
X10910357Y-17318714D01*
X11096071Y-17318714D01*
X11181786Y-17118714D02*
X11367500Y-17118714D01*
X11267500Y-17233000D01*
X11310357Y-17233000D01*
X11338928Y-17247286D01*
X11353214Y-17261572D01*
X11367500Y-17290143D01*
X11367500Y-17361572D01*
X11353214Y-17390143D01*
X11338928Y-17404429D01*
X11310357Y-17418714D01*
X11224643Y-17418714D01*
X11196071Y-17404429D01*
X11181786Y-17390143D01*
X11481786Y-17118714D02*
X11481786Y-17175857D01*
X11596071Y-17118714D02*
X11596071Y-17175857D01*
X12038928Y-17533000D02*
X12024643Y-17518714D01*
X11996071Y-17475857D01*
X11981786Y-17447286D01*
X11967500Y-17404429D01*
X11953214Y-17333000D01*
X11953214Y-17275857D01*
X11967500Y-17204429D01*
X11981786Y-17161572D01*
X11996071Y-17133000D01*
X12024643Y-17090143D01*
X12038928Y-17075857D01*
X12138928Y-17147286D02*
X12153214Y-17133000D01*
X12181786Y-17118714D01*
X12253214Y-17118714D01*
X12281786Y-17133000D01*
X12296071Y-17147286D01*
X12310357Y-17175857D01*
X12310357Y-17204429D01*
X12296071Y-17247286D01*
X12124643Y-17418714D01*
X12310357Y-17418714D01*
X12581786Y-17118714D02*
X12438928Y-17118714D01*
X12424643Y-17261572D01*
X12438928Y-17247286D01*
X12467500Y-17233000D01*
X12538928Y-17233000D01*
X12567500Y-17247286D01*
X12581786Y-17261572D01*
X12596071Y-17290143D01*
X12596071Y-17361572D01*
X12581786Y-17390143D01*
X12567500Y-17404429D01*
X12538928Y-17418714D01*
X12467500Y-17418714D01*
X12438928Y-17404429D01*
X12424643Y-17390143D01*
X12953214Y-17418714D02*
X12953214Y-17118714D01*
X13081786Y-17418714D02*
X13081786Y-17261572D01*
X13067500Y-17233000D01*
X13038928Y-17218714D01*
X12996071Y-17218714D01*
X12967500Y-17233000D01*
X12953214Y-17247286D01*
X13267500Y-17418714D02*
X13238928Y-17404429D01*
X13224643Y-17390143D01*
X13210357Y-17361572D01*
X13210357Y-17275857D01*
X13224643Y-17247286D01*
X13238928Y-17233000D01*
X13267500Y-17218714D01*
X13310357Y-17218714D01*
X13338928Y-17233000D01*
X13353214Y-17247286D01*
X13367500Y-17275857D01*
X13367500Y-17361572D01*
X13353214Y-17390143D01*
X13338928Y-17404429D01*
X13310357Y-17418714D01*
X13267500Y-17418714D01*
X13538928Y-17418714D02*
X13510357Y-17404429D01*
X13496071Y-17375857D01*
X13496071Y-17118714D01*
X13767500Y-17404429D02*
X13738928Y-17418714D01*
X13681786Y-17418714D01*
X13653214Y-17404429D01*
X13638928Y-17375857D01*
X13638928Y-17261572D01*
X13653214Y-17233000D01*
X13681786Y-17218714D01*
X13738928Y-17218714D01*
X13767500Y-17233000D01*
X13781786Y-17261572D01*
X13781786Y-17290143D01*
X13638928Y-17318714D01*
X13896071Y-17404429D02*
X13924643Y-17418714D01*
X13981786Y-17418714D01*
X14010357Y-17404429D01*
X14024643Y-17375857D01*
X14024643Y-17361572D01*
X14010357Y-17333000D01*
X13981786Y-17318714D01*
X13938928Y-17318714D01*
X13910357Y-17304429D01*
X13896071Y-17275857D01*
X13896071Y-17261572D01*
X13910357Y-17233000D01*
X13938928Y-17218714D01*
X13981786Y-17218714D01*
X14010357Y-17233000D01*
X14124643Y-17533000D02*
X14138928Y-17518714D01*
X14167500Y-17475857D01*
X14181786Y-17447286D01*
X14196071Y-17404429D01*
X14210357Y-17333000D01*
X14210357Y-17275857D01*
X14196071Y-17204429D01*
X14181786Y-17161572D01*
X14167500Y-17133000D01*
X14138928Y-17090143D01*
X14124643Y-17075857D01*
X7277500Y-17754000D02*
X7352500Y-17679000D01*
X7277500Y-17604000D01*
X7202500Y-17679000D01*
X7277500Y-17754000D01*
X7796071Y-17814714D02*
X7624643Y-17814714D01*
X7710357Y-17814714D02*
X7710357Y-17514714D01*
X7681786Y-17557572D01*
X7653214Y-17586143D01*
X7624643Y-17600429D01*
X7924643Y-17786143D02*
X7938928Y-17800429D01*
X7924643Y-17814714D01*
X7910357Y-17800429D01*
X7924643Y-17786143D01*
X7924643Y-17814714D01*
X8210357Y-17514714D02*
X8067500Y-17514714D01*
X8053214Y-17657572D01*
X8067500Y-17643286D01*
X8096071Y-17629000D01*
X8167500Y-17629000D01*
X8196071Y-17643286D01*
X8210357Y-17657572D01*
X8224643Y-17686143D01*
X8224643Y-17757572D01*
X8210357Y-17786143D01*
X8196071Y-17800429D01*
X8167500Y-17814714D01*
X8096071Y-17814714D01*
X8067500Y-17800429D01*
X8053214Y-17786143D01*
X8410357Y-17514714D02*
X8438928Y-17514714D01*
X8467500Y-17529000D01*
X8481786Y-17543286D01*
X8496071Y-17571857D01*
X8510357Y-17629000D01*
X8510357Y-17700429D01*
X8496071Y-17757572D01*
X8481786Y-17786143D01*
X8467500Y-17800429D01*
X8438928Y-17814714D01*
X8410357Y-17814714D01*
X8381786Y-17800429D01*
X8367500Y-17786143D01*
X8353214Y-17757572D01*
X8338928Y-17700429D01*
X8338928Y-17629000D01*
X8353214Y-17571857D01*
X8367500Y-17543286D01*
X8381786Y-17529000D01*
X8410357Y-17514714D01*
X8638928Y-17814714D02*
X8638928Y-17614714D01*
X8638928Y-17643286D02*
X8653214Y-17629000D01*
X8681786Y-17614714D01*
X8724643Y-17614714D01*
X8753214Y-17629000D01*
X8767500Y-17657572D01*
X8767500Y-17814714D01*
X8767500Y-17657572D02*
X8781786Y-17629000D01*
X8810357Y-17614714D01*
X8853214Y-17614714D01*
X8881786Y-17629000D01*
X8896071Y-17657572D01*
X8896071Y-17814714D01*
X9038928Y-17814714D02*
X9038928Y-17614714D01*
X9038928Y-17643286D02*
X9053214Y-17629000D01*
X9081786Y-17614714D01*
X9124643Y-17614714D01*
X9153214Y-17629000D01*
X9167500Y-17657572D01*
X9167500Y-17814714D01*
X9167500Y-17657572D02*
X9181786Y-17629000D01*
X9210357Y-17614714D01*
X9253214Y-17614714D01*
X9281786Y-17629000D01*
X9296071Y-17657572D01*
X9296071Y-17814714D01*
X9881786Y-17500429D02*
X9624643Y-17886143D01*
X10267500Y-17514714D02*
X10296071Y-17514714D01*
X10324643Y-17529000D01*
X10338928Y-17543286D01*
X10353214Y-17571857D01*
X10367500Y-17629000D01*
X10367500Y-17700429D01*
X10353214Y-17757572D01*
X10338928Y-17786143D01*
X10324643Y-17800429D01*
X10296071Y-17814714D01*
X10267500Y-17814714D01*
X10238928Y-17800429D01*
X10224643Y-17786143D01*
X10210357Y-17757572D01*
X10196071Y-17700429D01*
X10196071Y-17629000D01*
X10210357Y-17571857D01*
X10224643Y-17543286D01*
X10238928Y-17529000D01*
X10267500Y-17514714D01*
X10496071Y-17786143D02*
X10510357Y-17800429D01*
X10496071Y-17814714D01*
X10481786Y-17800429D01*
X10496071Y-17786143D01*
X10496071Y-17814714D01*
X10696071Y-17514714D02*
X10724643Y-17514714D01*
X10753214Y-17529000D01*
X10767500Y-17543286D01*
X10781786Y-17571857D01*
X10796071Y-17629000D01*
X10796071Y-17700429D01*
X10781786Y-17757572D01*
X10767500Y-17786143D01*
X10753214Y-17800429D01*
X10724643Y-17814714D01*
X10696071Y-17814714D01*
X10667500Y-17800429D01*
X10653214Y-17786143D01*
X10638928Y-17757572D01*
X10624643Y-17700429D01*
X10624643Y-17629000D01*
X10638928Y-17571857D01*
X10653214Y-17543286D01*
X10667500Y-17529000D01*
X10696071Y-17514714D01*
X11067500Y-17514714D02*
X10924643Y-17514714D01*
X10910357Y-17657572D01*
X10924643Y-17643286D01*
X10953214Y-17629000D01*
X11024643Y-17629000D01*
X11053214Y-17643286D01*
X11067500Y-17657572D01*
X11081786Y-17686143D01*
X11081786Y-17757572D01*
X11067500Y-17786143D01*
X11053214Y-17800429D01*
X11024643Y-17814714D01*
X10953214Y-17814714D01*
X10924643Y-17800429D01*
X10910357Y-17786143D01*
X11224643Y-17814714D02*
X11281786Y-17814714D01*
X11310357Y-17800429D01*
X11324643Y-17786143D01*
X11353214Y-17743286D01*
X11367500Y-17686143D01*
X11367500Y-17571857D01*
X11353214Y-17543286D01*
X11338928Y-17529000D01*
X11310357Y-17514714D01*
X11253214Y-17514714D01*
X11224643Y-17529000D01*
X11210357Y-17543286D01*
X11196071Y-17571857D01*
X11196071Y-17643286D01*
X11210357Y-17671857D01*
X11224643Y-17686143D01*
X11253214Y-17700429D01*
X11310357Y-17700429D01*
X11338928Y-17686143D01*
X11353214Y-17671857D01*
X11367500Y-17643286D01*
X11481786Y-17514714D02*
X11481786Y-17571857D01*
X11596071Y-17514714D02*
X11596071Y-17571857D01*
X12038928Y-17929000D02*
X12024643Y-17914714D01*
X11996071Y-17871857D01*
X11981786Y-17843286D01*
X11967500Y-17800429D01*
X11953214Y-17729000D01*
X11953214Y-17671857D01*
X11967500Y-17600429D01*
X11981786Y-17557572D01*
X11996071Y-17529000D01*
X12024643Y-17486143D01*
X12038928Y-17471857D01*
X12310357Y-17814714D02*
X12138928Y-17814714D01*
X12224643Y-17814714D02*
X12224643Y-17514714D01*
X12196071Y-17557572D01*
X12167500Y-17586143D01*
X12138928Y-17600429D01*
X12567500Y-17514714D02*
X12510357Y-17514714D01*
X12481786Y-17529000D01*
X12467500Y-17543286D01*
X12438928Y-17586143D01*
X12424643Y-17643286D01*
X12424643Y-17757572D01*
X12438928Y-17786143D01*
X12453214Y-17800429D01*
X12481786Y-17814714D01*
X12538928Y-17814714D01*
X12567500Y-17800429D01*
X12581786Y-17786143D01*
X12596071Y-17757572D01*
X12596071Y-17686143D01*
X12581786Y-17657572D01*
X12567500Y-17643286D01*
X12538928Y-17629000D01*
X12481786Y-17629000D01*
X12453214Y-17643286D01*
X12438928Y-17657572D01*
X12424643Y-17686143D01*
X12953214Y-17814714D02*
X12953214Y-17514714D01*
X13081786Y-17814714D02*
X13081786Y-17657572D01*
X13067500Y-17629000D01*
X13038928Y-17614714D01*
X12996071Y-17614714D01*
X12967500Y-17629000D01*
X12953214Y-17643286D01*
X13267500Y-17814714D02*
X13238928Y-17800429D01*
X13224643Y-17786143D01*
X13210357Y-17757572D01*
X13210357Y-17671857D01*
X13224643Y-17643286D01*
X13238928Y-17629000D01*
X13267500Y-17614714D01*
X13310357Y-17614714D01*
X13338928Y-17629000D01*
X13353214Y-17643286D01*
X13367500Y-17671857D01*
X13367500Y-17757572D01*
X13353214Y-17786143D01*
X13338928Y-17800429D01*
X13310357Y-17814714D01*
X13267500Y-17814714D01*
X13538928Y-17814714D02*
X13510357Y-17800429D01*
X13496071Y-17771857D01*
X13496071Y-17514714D01*
X13767500Y-17800429D02*
X13738928Y-17814714D01*
X13681786Y-17814714D01*
X13653214Y-17800429D01*
X13638928Y-17771857D01*
X13638928Y-17657572D01*
X13653214Y-17629000D01*
X13681786Y-17614714D01*
X13738928Y-17614714D01*
X13767500Y-17629000D01*
X13781786Y-17657572D01*
X13781786Y-17686143D01*
X13638928Y-17714714D01*
X13896071Y-17800429D02*
X13924643Y-17814714D01*
X13981786Y-17814714D01*
X14010357Y-17800429D01*
X14024643Y-17771857D01*
X14024643Y-17757572D01*
X14010357Y-17729000D01*
X13981786Y-17714714D01*
X13938928Y-17714714D01*
X13910357Y-17700429D01*
X13896071Y-17671857D01*
X13896071Y-17657572D01*
X13910357Y-17629000D01*
X13938928Y-17614714D01*
X13981786Y-17614714D01*
X14010357Y-17629000D01*
X14124643Y-17929000D02*
X14138928Y-17914714D01*
X14167500Y-17871857D01*
X14181786Y-17843286D01*
X14196071Y-17800429D01*
X14210357Y-17729000D01*
X14210357Y-17671857D01*
X14196071Y-17600429D01*
X14181786Y-17557572D01*
X14167500Y-17529000D01*
X14138928Y-17486143D01*
X14124643Y-17471857D01*
X7195500Y-17996500D02*
X7352500Y-18153500D01*
X7352500Y-17996500D02*
X7195500Y-18153500D01*
X7352500Y-18075000D02*
G75*
G03X7352500Y-18075000I-78500J0D01*
G01*
X7796071Y-18210714D02*
X7624643Y-18210714D01*
X7710357Y-18210714D02*
X7710357Y-17910714D01*
X7681786Y-17953572D01*
X7653214Y-17982143D01*
X7624643Y-17996429D01*
X7924643Y-18182143D02*
X7938928Y-18196429D01*
X7924643Y-18210714D01*
X7910357Y-18196429D01*
X7924643Y-18182143D01*
X7924643Y-18210714D01*
X8210357Y-17910714D02*
X8067500Y-17910714D01*
X8053214Y-18053572D01*
X8067500Y-18039286D01*
X8096071Y-18025000D01*
X8167500Y-18025000D01*
X8196071Y-18039286D01*
X8210357Y-18053572D01*
X8224643Y-18082143D01*
X8224643Y-18153572D01*
X8210357Y-18182143D01*
X8196071Y-18196429D01*
X8167500Y-18210714D01*
X8096071Y-18210714D01*
X8067500Y-18196429D01*
X8053214Y-18182143D01*
X8324643Y-17910714D02*
X8524643Y-17910714D01*
X8396071Y-18210714D01*
X8638928Y-18210714D02*
X8638928Y-18010714D01*
X8638928Y-18039286D02*
X8653214Y-18025000D01*
X8681786Y-18010714D01*
X8724643Y-18010714D01*
X8753214Y-18025000D01*
X8767500Y-18053572D01*
X8767500Y-18210714D01*
X8767500Y-18053572D02*
X8781786Y-18025000D01*
X8810357Y-18010714D01*
X8853214Y-18010714D01*
X8881786Y-18025000D01*
X8896071Y-18053572D01*
X8896071Y-18210714D01*
X9038928Y-18210714D02*
X9038928Y-18010714D01*
X9038928Y-18039286D02*
X9053214Y-18025000D01*
X9081786Y-18010714D01*
X9124643Y-18010714D01*
X9153214Y-18025000D01*
X9167500Y-18053572D01*
X9167500Y-18210714D01*
X9167500Y-18053572D02*
X9181786Y-18025000D01*
X9210357Y-18010714D01*
X9253214Y-18010714D01*
X9281786Y-18025000D01*
X9296071Y-18053572D01*
X9296071Y-18210714D01*
X9881786Y-17896429D02*
X9624643Y-18282143D01*
X10267500Y-17910714D02*
X10296071Y-17910714D01*
X10324643Y-17925000D01*
X10338928Y-17939286D01*
X10353214Y-17967857D01*
X10367500Y-18025000D01*
X10367500Y-18096429D01*
X10353214Y-18153572D01*
X10338928Y-18182143D01*
X10324643Y-18196429D01*
X10296071Y-18210714D01*
X10267500Y-18210714D01*
X10238928Y-18196429D01*
X10224643Y-18182143D01*
X10210357Y-18153572D01*
X10196071Y-18096429D01*
X10196071Y-18025000D01*
X10210357Y-17967857D01*
X10224643Y-17939286D01*
X10238928Y-17925000D01*
X10267500Y-17910714D01*
X10496071Y-18182143D02*
X10510357Y-18196429D01*
X10496071Y-18210714D01*
X10481786Y-18196429D01*
X10496071Y-18182143D01*
X10496071Y-18210714D01*
X10696071Y-17910714D02*
X10724643Y-17910714D01*
X10753214Y-17925000D01*
X10767500Y-17939286D01*
X10781786Y-17967857D01*
X10796071Y-18025000D01*
X10796071Y-18096429D01*
X10781786Y-18153572D01*
X10767500Y-18182143D01*
X10753214Y-18196429D01*
X10724643Y-18210714D01*
X10696071Y-18210714D01*
X10667500Y-18196429D01*
X10653214Y-18182143D01*
X10638928Y-18153572D01*
X10624643Y-18096429D01*
X10624643Y-18025000D01*
X10638928Y-17967857D01*
X10653214Y-17939286D01*
X10667500Y-17925000D01*
X10696071Y-17910714D01*
X11053214Y-17910714D02*
X10996071Y-17910714D01*
X10967500Y-17925000D01*
X10953214Y-17939286D01*
X10924643Y-17982143D01*
X10910357Y-18039286D01*
X10910357Y-18153572D01*
X10924643Y-18182143D01*
X10938928Y-18196429D01*
X10967500Y-18210714D01*
X11024643Y-18210714D01*
X11053214Y-18196429D01*
X11067500Y-18182143D01*
X11081786Y-18153572D01*
X11081786Y-18082143D01*
X11067500Y-18053572D01*
X11053214Y-18039286D01*
X11024643Y-18025000D01*
X10967500Y-18025000D01*
X10938928Y-18039286D01*
X10924643Y-18053572D01*
X10910357Y-18082143D01*
X11196071Y-17939286D02*
X11210357Y-17925000D01*
X11238928Y-17910714D01*
X11310357Y-17910714D01*
X11338928Y-17925000D01*
X11353214Y-17939286D01*
X11367500Y-17967857D01*
X11367500Y-17996429D01*
X11353214Y-18039286D01*
X11181786Y-18210714D01*
X11367500Y-18210714D01*
X11481786Y-17910714D02*
X11481786Y-17967857D01*
X11596071Y-17910714D02*
X11596071Y-17967857D01*
X12038928Y-18325000D02*
X12024643Y-18310714D01*
X11996071Y-18267857D01*
X11981786Y-18239286D01*
X11967500Y-18196429D01*
X11953214Y-18125000D01*
X11953214Y-18067857D01*
X11967500Y-17996429D01*
X11981786Y-17953572D01*
X11996071Y-17925000D01*
X12024643Y-17882143D01*
X12038928Y-17867857D01*
X12281786Y-18010714D02*
X12281786Y-18210714D01*
X12210357Y-17896429D02*
X12138928Y-18110714D01*
X12324643Y-18110714D01*
X12667500Y-18210714D02*
X12667500Y-17910714D01*
X12796071Y-18210714D02*
X12796071Y-18053572D01*
X12781786Y-18025000D01*
X12753214Y-18010714D01*
X12710357Y-18010714D01*
X12681786Y-18025000D01*
X12667500Y-18039286D01*
X12981786Y-18210714D02*
X12953214Y-18196429D01*
X12938928Y-18182143D01*
X12924643Y-18153572D01*
X12924643Y-18067857D01*
X12938928Y-18039286D01*
X12953214Y-18025000D01*
X12981786Y-18010714D01*
X13024643Y-18010714D01*
X13053214Y-18025000D01*
X13067500Y-18039286D01*
X13081786Y-18067857D01*
X13081786Y-18153572D01*
X13067500Y-18182143D01*
X13053214Y-18196429D01*
X13024643Y-18210714D01*
X12981786Y-18210714D01*
X13253214Y-18210714D02*
X13224643Y-18196429D01*
X13210357Y-18167857D01*
X13210357Y-17910714D01*
X13481786Y-18196429D02*
X13453214Y-18210714D01*
X13396071Y-18210714D01*
X13367500Y-18196429D01*
X13353214Y-18167857D01*
X13353214Y-18053572D01*
X13367500Y-18025000D01*
X13396071Y-18010714D01*
X13453214Y-18010714D01*
X13481786Y-18025000D01*
X13496071Y-18053572D01*
X13496071Y-18082143D01*
X13353214Y-18110714D01*
X13610357Y-18196429D02*
X13638928Y-18210714D01*
X13696071Y-18210714D01*
X13724643Y-18196429D01*
X13738928Y-18167857D01*
X13738928Y-18153572D01*
X13724643Y-18125000D01*
X13696071Y-18110714D01*
X13653214Y-18110714D01*
X13624643Y-18096429D01*
X13610357Y-18067857D01*
X13610357Y-18053572D01*
X13624643Y-18025000D01*
X13653214Y-18010714D01*
X13696071Y-18010714D01*
X13724643Y-18025000D01*
X13838928Y-18325000D02*
X13853214Y-18310714D01*
X13881786Y-18267857D01*
X13896071Y-18239286D01*
X13910357Y-18196429D01*
X13924643Y-18125000D01*
X13924643Y-18067857D01*
X13910357Y-17996429D01*
X13896071Y-17953572D01*
X13881786Y-17925000D01*
X13853214Y-17882143D01*
X13838928Y-17867857D01*
X7032500Y-18311000D02*
X7352500Y-18631000D01*
X7352500Y-18311000D02*
X7032500Y-18631000D01*
X7192500Y-18311000D02*
X7192500Y-18631000D01*
X7032500Y-18471000D02*
X7352500Y-18471000D01*
X7610357Y-18306714D02*
X7796071Y-18306714D01*
X7696071Y-18421000D01*
X7738928Y-18421000D01*
X7767500Y-18435286D01*
X7781786Y-18449572D01*
X7796071Y-18478143D01*
X7796071Y-18549572D01*
X7781786Y-18578143D01*
X7767500Y-18592429D01*
X7738928Y-18606714D01*
X7653214Y-18606714D01*
X7624643Y-18592429D01*
X7610357Y-18578143D01*
X7924643Y-18578143D02*
X7938928Y-18592429D01*
X7924643Y-18606714D01*
X7910357Y-18592429D01*
X7924643Y-18578143D01*
X7924643Y-18606714D01*
X8053214Y-18335286D02*
X8067500Y-18321000D01*
X8096071Y-18306714D01*
X8167500Y-18306714D01*
X8196071Y-18321000D01*
X8210357Y-18335286D01*
X8224643Y-18363857D01*
X8224643Y-18392429D01*
X8210357Y-18435286D01*
X8038928Y-18606714D01*
X8224643Y-18606714D01*
X8410357Y-18306714D02*
X8438928Y-18306714D01*
X8467500Y-18321000D01*
X8481786Y-18335286D01*
X8496071Y-18363857D01*
X8510357Y-18421000D01*
X8510357Y-18492429D01*
X8496071Y-18549572D01*
X8481786Y-18578143D01*
X8467500Y-18592429D01*
X8438928Y-18606714D01*
X8410357Y-18606714D01*
X8381786Y-18592429D01*
X8367500Y-18578143D01*
X8353214Y-18549572D01*
X8338928Y-18492429D01*
X8338928Y-18421000D01*
X8353214Y-18363857D01*
X8367500Y-18335286D01*
X8381786Y-18321000D01*
X8410357Y-18306714D01*
X8638928Y-18606714D02*
X8638928Y-18406714D01*
X8638928Y-18435286D02*
X8653214Y-18421000D01*
X8681786Y-18406714D01*
X8724643Y-18406714D01*
X8753214Y-18421000D01*
X8767500Y-18449572D01*
X8767500Y-18606714D01*
X8767500Y-18449572D02*
X8781786Y-18421000D01*
X8810357Y-18406714D01*
X8853214Y-18406714D01*
X8881786Y-18421000D01*
X8896071Y-18449572D01*
X8896071Y-18606714D01*
X9038928Y-18606714D02*
X9038928Y-18406714D01*
X9038928Y-18435286D02*
X9053214Y-18421000D01*
X9081786Y-18406714D01*
X9124643Y-18406714D01*
X9153214Y-18421000D01*
X9167500Y-18449572D01*
X9167500Y-18606714D01*
X9167500Y-18449572D02*
X9181786Y-18421000D01*
X9210357Y-18406714D01*
X9253214Y-18406714D01*
X9281786Y-18421000D01*
X9296071Y-18449572D01*
X9296071Y-18606714D01*
X9881786Y-18292429D02*
X9624643Y-18678143D01*
X10267500Y-18306714D02*
X10296071Y-18306714D01*
X10324643Y-18321000D01*
X10338928Y-18335286D01*
X10353214Y-18363857D01*
X10367500Y-18421000D01*
X10367500Y-18492429D01*
X10353214Y-18549572D01*
X10338928Y-18578143D01*
X10324643Y-18592429D01*
X10296071Y-18606714D01*
X10267500Y-18606714D01*
X10238928Y-18592429D01*
X10224643Y-18578143D01*
X10210357Y-18549572D01*
X10196071Y-18492429D01*
X10196071Y-18421000D01*
X10210357Y-18363857D01*
X10224643Y-18335286D01*
X10238928Y-18321000D01*
X10267500Y-18306714D01*
X10496071Y-18578143D02*
X10510357Y-18592429D01*
X10496071Y-18606714D01*
X10481786Y-18592429D01*
X10496071Y-18578143D01*
X10496071Y-18606714D01*
X10796071Y-18606714D02*
X10624643Y-18606714D01*
X10710357Y-18606714D02*
X10710357Y-18306714D01*
X10681786Y-18349572D01*
X10653214Y-18378143D01*
X10624643Y-18392429D01*
X10910357Y-18335286D02*
X10924643Y-18321000D01*
X10953214Y-18306714D01*
X11024643Y-18306714D01*
X11053214Y-18321000D01*
X11067500Y-18335286D01*
X11081786Y-18363857D01*
X11081786Y-18392429D01*
X11067500Y-18435286D01*
X10896071Y-18606714D01*
X11081786Y-18606714D01*
X11338928Y-18306714D02*
X11281786Y-18306714D01*
X11253214Y-18321000D01*
X11238928Y-18335286D01*
X11210357Y-18378143D01*
X11196071Y-18435286D01*
X11196071Y-18549572D01*
X11210357Y-18578143D01*
X11224643Y-18592429D01*
X11253214Y-18606714D01*
X11310357Y-18606714D01*
X11338928Y-18592429D01*
X11353214Y-18578143D01*
X11367500Y-18549572D01*
X11367500Y-18478143D01*
X11353214Y-18449572D01*
X11338928Y-18435286D01*
X11310357Y-18421000D01*
X11253214Y-18421000D01*
X11224643Y-18435286D01*
X11210357Y-18449572D01*
X11196071Y-18478143D01*
X11481786Y-18306714D02*
X11481786Y-18363857D01*
X11596071Y-18306714D02*
X11596071Y-18363857D01*
X12038928Y-18721000D02*
X12024643Y-18706714D01*
X11996071Y-18663857D01*
X11981786Y-18635286D01*
X11967500Y-18592429D01*
X11953214Y-18521000D01*
X11953214Y-18463857D01*
X11967500Y-18392429D01*
X11981786Y-18349572D01*
X11996071Y-18321000D01*
X12024643Y-18278143D01*
X12038928Y-18263857D01*
X12124643Y-18306714D02*
X12310357Y-18306714D01*
X12210357Y-18421000D01*
X12253214Y-18421000D01*
X12281786Y-18435286D01*
X12296071Y-18449572D01*
X12310357Y-18478143D01*
X12310357Y-18549572D01*
X12296071Y-18578143D01*
X12281786Y-18592429D01*
X12253214Y-18606714D01*
X12167500Y-18606714D01*
X12138928Y-18592429D01*
X12124643Y-18578143D01*
X12667500Y-18606714D02*
X12667500Y-18306714D01*
X12796071Y-18606714D02*
X12796071Y-18449572D01*
X12781786Y-18421000D01*
X12753214Y-18406714D01*
X12710357Y-18406714D01*
X12681786Y-18421000D01*
X12667500Y-18435286D01*
X12981786Y-18606714D02*
X12953214Y-18592429D01*
X12938928Y-18578143D01*
X12924643Y-18549572D01*
X12924643Y-18463857D01*
X12938928Y-18435286D01*
X12953214Y-18421000D01*
X12981786Y-18406714D01*
X13024643Y-18406714D01*
X13053214Y-18421000D01*
X13067500Y-18435286D01*
X13081786Y-18463857D01*
X13081786Y-18549572D01*
X13067500Y-18578143D01*
X13053214Y-18592429D01*
X13024643Y-18606714D01*
X12981786Y-18606714D01*
X13253214Y-18606714D02*
X13224643Y-18592429D01*
X13210357Y-18563857D01*
X13210357Y-18306714D01*
X13481786Y-18592429D02*
X13453214Y-18606714D01*
X13396071Y-18606714D01*
X13367500Y-18592429D01*
X13353214Y-18563857D01*
X13353214Y-18449572D01*
X13367500Y-18421000D01*
X13396071Y-18406714D01*
X13453214Y-18406714D01*
X13481786Y-18421000D01*
X13496071Y-18449572D01*
X13496071Y-18478143D01*
X13353214Y-18506714D01*
X13610357Y-18592429D02*
X13638928Y-18606714D01*
X13696071Y-18606714D01*
X13724643Y-18592429D01*
X13738928Y-18563857D01*
X13738928Y-18549572D01*
X13724643Y-18521000D01*
X13696071Y-18506714D01*
X13653214Y-18506714D01*
X13624643Y-18492429D01*
X13610357Y-18463857D01*
X13610357Y-18449572D01*
X13624643Y-18421000D01*
X13653214Y-18406714D01*
X13696071Y-18406714D01*
X13724643Y-18421000D01*
X13838928Y-18721000D02*
X13853214Y-18706714D01*
X13881786Y-18663857D01*
X13896071Y-18635286D01*
X13910357Y-18592429D01*
X13924643Y-18521000D01*
X13924643Y-18463857D01*
X13910357Y-18392429D01*
X13896071Y-18349572D01*
X13881786Y-18321000D01*
X13853214Y-18278143D01*
X13838928Y-18263857D01*
X7027500Y-18758500D02*
X7352500Y-19083500D01*
X7352500Y-18758500D02*
X7027500Y-19083500D01*
X7304906Y-19035906D02*
X7304906Y-18806094D01*
X7075094Y-18806094D01*
X7075094Y-19035906D01*
X7304906Y-19035906D01*
X7610357Y-18756714D02*
X7796071Y-18756714D01*
X7696071Y-18871000D01*
X7738928Y-18871000D01*
X7767500Y-18885286D01*
X7781786Y-18899572D01*
X7796071Y-18928143D01*
X7796071Y-18999572D01*
X7781786Y-19028143D01*
X7767500Y-19042429D01*
X7738928Y-19056714D01*
X7653214Y-19056714D01*
X7624643Y-19042429D01*
X7610357Y-19028143D01*
X7924643Y-19028143D02*
X7938928Y-19042429D01*
X7924643Y-19056714D01*
X7910357Y-19042429D01*
X7924643Y-19028143D01*
X7924643Y-19056714D01*
X8053214Y-18785286D02*
X8067500Y-18771000D01*
X8096071Y-18756714D01*
X8167500Y-18756714D01*
X8196071Y-18771000D01*
X8210357Y-18785286D01*
X8224643Y-18813857D01*
X8224643Y-18842429D01*
X8210357Y-18885286D01*
X8038928Y-19056714D01*
X8224643Y-19056714D01*
X8496071Y-18756714D02*
X8353214Y-18756714D01*
X8338928Y-18899572D01*
X8353214Y-18885286D01*
X8381786Y-18871000D01*
X8453214Y-18871000D01*
X8481786Y-18885286D01*
X8496071Y-18899572D01*
X8510357Y-18928143D01*
X8510357Y-18999572D01*
X8496071Y-19028143D01*
X8481786Y-19042429D01*
X8453214Y-19056714D01*
X8381786Y-19056714D01*
X8353214Y-19042429D01*
X8338928Y-19028143D01*
X8638928Y-19056714D02*
X8638928Y-18856714D01*
X8638928Y-18885286D02*
X8653214Y-18871000D01*
X8681786Y-18856714D01*
X8724643Y-18856714D01*
X8753214Y-18871000D01*
X8767500Y-18899572D01*
X8767500Y-19056714D01*
X8767500Y-18899572D02*
X8781786Y-18871000D01*
X8810357Y-18856714D01*
X8853214Y-18856714D01*
X8881786Y-18871000D01*
X8896071Y-18899572D01*
X8896071Y-19056714D01*
X9038928Y-19056714D02*
X9038928Y-18856714D01*
X9038928Y-18885286D02*
X9053214Y-18871000D01*
X9081786Y-18856714D01*
X9124643Y-18856714D01*
X9153214Y-18871000D01*
X9167500Y-18899572D01*
X9167500Y-19056714D01*
X9167500Y-18899572D02*
X9181786Y-18871000D01*
X9210357Y-18856714D01*
X9253214Y-18856714D01*
X9281786Y-18871000D01*
X9296071Y-18899572D01*
X9296071Y-19056714D01*
X9881786Y-18742429D02*
X9624643Y-19128143D01*
X10267500Y-18756714D02*
X10296071Y-18756714D01*
X10324643Y-18771000D01*
X10338928Y-18785286D01*
X10353214Y-18813857D01*
X10367500Y-18871000D01*
X10367500Y-18942429D01*
X10353214Y-18999572D01*
X10338928Y-19028143D01*
X10324643Y-19042429D01*
X10296071Y-19056714D01*
X10267500Y-19056714D01*
X10238928Y-19042429D01*
X10224643Y-19028143D01*
X10210357Y-18999572D01*
X10196071Y-18942429D01*
X10196071Y-18871000D01*
X10210357Y-18813857D01*
X10224643Y-18785286D01*
X10238928Y-18771000D01*
X10267500Y-18756714D01*
X10496071Y-19028143D02*
X10510357Y-19042429D01*
X10496071Y-19056714D01*
X10481786Y-19042429D01*
X10496071Y-19028143D01*
X10496071Y-19056714D01*
X10796071Y-19056714D02*
X10624643Y-19056714D01*
X10710357Y-19056714D02*
X10710357Y-18756714D01*
X10681786Y-18799572D01*
X10653214Y-18828143D01*
X10624643Y-18842429D01*
X10910357Y-18785286D02*
X10924643Y-18771000D01*
X10953214Y-18756714D01*
X11024643Y-18756714D01*
X11053214Y-18771000D01*
X11067500Y-18785286D01*
X11081786Y-18813857D01*
X11081786Y-18842429D01*
X11067500Y-18885286D01*
X10896071Y-19056714D01*
X11081786Y-19056714D01*
X11253214Y-18885286D02*
X11224643Y-18871000D01*
X11210357Y-18856714D01*
X11196071Y-18828143D01*
X11196071Y-18813857D01*
X11210357Y-18785286D01*
X11224643Y-18771000D01*
X11253214Y-18756714D01*
X11310357Y-18756714D01*
X11338928Y-18771000D01*
X11353214Y-18785286D01*
X11367500Y-18813857D01*
X11367500Y-18828143D01*
X11353214Y-18856714D01*
X11338928Y-18871000D01*
X11310357Y-18885286D01*
X11253214Y-18885286D01*
X11224643Y-18899572D01*
X11210357Y-18913857D01*
X11196071Y-18942429D01*
X11196071Y-18999572D01*
X11210357Y-19028143D01*
X11224643Y-19042429D01*
X11253214Y-19056714D01*
X11310357Y-19056714D01*
X11338928Y-19042429D01*
X11353214Y-19028143D01*
X11367500Y-18999572D01*
X11367500Y-18942429D01*
X11353214Y-18913857D01*
X11338928Y-18899572D01*
X11310357Y-18885286D01*
X11481786Y-18756714D02*
X11481786Y-18813857D01*
X11596071Y-18756714D02*
X11596071Y-18813857D01*
X12038928Y-19171000D02*
X12024643Y-19156714D01*
X11996071Y-19113857D01*
X11981786Y-19085286D01*
X11967500Y-19042429D01*
X11953214Y-18971000D01*
X11953214Y-18913857D01*
X11967500Y-18842429D01*
X11981786Y-18799572D01*
X11996071Y-18771000D01*
X12024643Y-18728143D01*
X12038928Y-18713857D01*
X12281786Y-18856714D02*
X12281786Y-19056714D01*
X12210357Y-18742429D02*
X12138928Y-18956714D01*
X12324643Y-18956714D01*
X12667500Y-19056714D02*
X12667500Y-18756714D01*
X12796071Y-19056714D02*
X12796071Y-18899572D01*
X12781786Y-18871000D01*
X12753214Y-18856714D01*
X12710357Y-18856714D01*
X12681786Y-18871000D01*
X12667500Y-18885286D01*
X12981786Y-19056714D02*
X12953214Y-19042429D01*
X12938928Y-19028143D01*
X12924643Y-18999572D01*
X12924643Y-18913857D01*
X12938928Y-18885286D01*
X12953214Y-18871000D01*
X12981786Y-18856714D01*
X13024643Y-18856714D01*
X13053214Y-18871000D01*
X13067500Y-18885286D01*
X13081786Y-18913857D01*
X13081786Y-18999572D01*
X13067500Y-19028143D01*
X13053214Y-19042429D01*
X13024643Y-19056714D01*
X12981786Y-19056714D01*
X13253214Y-19056714D02*
X13224643Y-19042429D01*
X13210357Y-19013857D01*
X13210357Y-18756714D01*
X13481786Y-19042429D02*
X13453214Y-19056714D01*
X13396071Y-19056714D01*
X13367500Y-19042429D01*
X13353214Y-19013857D01*
X13353214Y-18899572D01*
X13367500Y-18871000D01*
X13396071Y-18856714D01*
X13453214Y-18856714D01*
X13481786Y-18871000D01*
X13496071Y-18899572D01*
X13496071Y-18928143D01*
X13353214Y-18956714D01*
X13610357Y-19042429D02*
X13638928Y-19056714D01*
X13696071Y-19056714D01*
X13724643Y-19042429D01*
X13738928Y-19013857D01*
X13738928Y-18999572D01*
X13724643Y-18971000D01*
X13696071Y-18956714D01*
X13653214Y-18956714D01*
X13624643Y-18942429D01*
X13610357Y-18913857D01*
X13610357Y-18899572D01*
X13624643Y-18871000D01*
X13653214Y-18856714D01*
X13696071Y-18856714D01*
X13724643Y-18871000D01*
X13838928Y-19171000D02*
X13853214Y-19156714D01*
X13881786Y-19113857D01*
X13896071Y-19085286D01*
X13910357Y-19042429D01*
X13924643Y-18971000D01*
X13924643Y-18913857D01*
X13910357Y-18842429D01*
X13896071Y-18799572D01*
X13881786Y-18771000D01*
X13853214Y-18728143D01*
X13838928Y-18713857D01*
X14381786Y-19171000D02*
X14367500Y-19156714D01*
X14338928Y-19113857D01*
X14324643Y-19085286D01*
X14310357Y-19042429D01*
X14296071Y-18971000D01*
X14296071Y-18913857D01*
X14310357Y-18842429D01*
X14324643Y-18799572D01*
X14338928Y-18771000D01*
X14367500Y-18728143D01*
X14381786Y-18713857D01*
X14496071Y-18856714D02*
X14496071Y-19056714D01*
X14496071Y-18885286D02*
X14510357Y-18871000D01*
X14538928Y-18856714D01*
X14581786Y-18856714D01*
X14610357Y-18871000D01*
X14624643Y-18899572D01*
X14624643Y-19056714D01*
X14810357Y-19056714D02*
X14781786Y-19042429D01*
X14767500Y-19028143D01*
X14753214Y-18999572D01*
X14753214Y-18913857D01*
X14767500Y-18885286D01*
X14781786Y-18871000D01*
X14810357Y-18856714D01*
X14853214Y-18856714D01*
X14881786Y-18871000D01*
X14896071Y-18885286D01*
X14910357Y-18913857D01*
X14910357Y-18999572D01*
X14896071Y-19028143D01*
X14881786Y-19042429D01*
X14853214Y-19056714D01*
X14810357Y-19056714D01*
X14996071Y-18856714D02*
X15110357Y-18856714D01*
X15038928Y-18756714D02*
X15038928Y-19013857D01*
X15053214Y-19042429D01*
X15081786Y-19056714D01*
X15110357Y-19056714D01*
X15438928Y-18856714D02*
X15438928Y-19156714D01*
X15438928Y-18871000D02*
X15467500Y-18856714D01*
X15524643Y-18856714D01*
X15553214Y-18871000D01*
X15567500Y-18885286D01*
X15581786Y-18913857D01*
X15581786Y-18999572D01*
X15567500Y-19028143D01*
X15553214Y-19042429D01*
X15524643Y-19056714D01*
X15467500Y-19056714D01*
X15438928Y-19042429D01*
X15753214Y-19056714D02*
X15724643Y-19042429D01*
X15710357Y-19013857D01*
X15710357Y-18756714D01*
X15996071Y-19056714D02*
X15996071Y-18899572D01*
X15981786Y-18871000D01*
X15953214Y-18856714D01*
X15896071Y-18856714D01*
X15867500Y-18871000D01*
X15996071Y-19042429D02*
X15967500Y-19056714D01*
X15896071Y-19056714D01*
X15867500Y-19042429D01*
X15853214Y-19013857D01*
X15853214Y-18985286D01*
X15867500Y-18956714D01*
X15896071Y-18942429D01*
X15967500Y-18942429D01*
X15996071Y-18928143D01*
X16096071Y-18856714D02*
X16210357Y-18856714D01*
X16138928Y-18756714D02*
X16138928Y-19013857D01*
X16153214Y-19042429D01*
X16181786Y-19056714D01*
X16210357Y-19056714D01*
X16424643Y-19042429D02*
X16396071Y-19056714D01*
X16338928Y-19056714D01*
X16310357Y-19042429D01*
X16296071Y-19013857D01*
X16296071Y-18899572D01*
X16310357Y-18871000D01*
X16338928Y-18856714D01*
X16396071Y-18856714D01*
X16424643Y-18871000D01*
X16438928Y-18899572D01*
X16438928Y-18928143D01*
X16296071Y-18956714D01*
X16696071Y-19056714D02*
X16696071Y-18756714D01*
X16696071Y-19042429D02*
X16667500Y-19056714D01*
X16610357Y-19056714D01*
X16581786Y-19042429D01*
X16567500Y-19028143D01*
X16553214Y-18999572D01*
X16553214Y-18913857D01*
X16567500Y-18885286D01*
X16581786Y-18871000D01*
X16610357Y-18856714D01*
X16667500Y-18856714D01*
X16696071Y-18871000D01*
X16810357Y-19171000D02*
X16824643Y-19156714D01*
X16853214Y-19113857D01*
X16867500Y-19085286D01*
X16881786Y-19042429D01*
X16896071Y-18971000D01*
X16896071Y-18913857D01*
X16881786Y-18842429D01*
X16867500Y-18799572D01*
X16853214Y-18771000D01*
X16824643Y-18728143D01*
X16810357Y-18713857D01*
M02*
