G04 #@! TF.GenerationSoftware,KiCad,Pcbnew,(5.1.5)-3*
G04 #@! TF.CreationDate,2020-02-24T21:21:35+03:00*
G04 #@! TF.ProjectId,valveControllerPCB,76616c76-6543-46f6-9e74-726f6c6c6572,rev?*
G04 #@! TF.SameCoordinates,Original*
G04 #@! TF.FileFunction,Soldermask,Top*
G04 #@! TF.FilePolarity,Negative*
%FSLAX46Y46*%
G04 Gerber Fmt 4.6, Leading zero omitted, Abs format (unit mm)*
G04 Created by KiCad (PCBNEW (5.1.5)-3) date 2020-02-24 21:21:35*
%MOMM*%
%LPD*%
G04 APERTURE LIST*
%ADD10C,2.000000*%
%ADD11C,3.250000*%
%ADD12C,1.500000*%
%ADD13R,1.500000X1.500000*%
%ADD14O,1.600000X1.600000*%
%ADD15R,1.600000X1.600000*%
%ADD16C,1.600000*%
%ADD17O,2.000000X1.905000*%
%ADD18R,2.000000X1.905000*%
%ADD19C,3.000000*%
%ADD20R,3.000000X3.000000*%
%ADD21O,2.200000X2.200000*%
%ADD22R,2.200000X2.200000*%
%ADD23C,3.300000*%
%ADD24C,0.800000*%
G04 APERTURE END LIST*
D10*
X154155000Y-63565000D03*
X170415000Y-63565000D03*
D11*
X168635000Y-60135000D03*
X155935000Y-60135000D03*
D12*
X165865000Y-64455000D03*
X163825000Y-64455000D03*
X161785000Y-64455000D03*
X159745000Y-64455000D03*
X164845000Y-62675000D03*
X162805000Y-62675000D03*
X160765000Y-62675000D03*
D13*
X158725000Y-62675000D03*
D14*
X119055000Y-93450000D03*
X126675000Y-90910000D03*
X119055000Y-90910000D03*
D15*
X126675000Y-93450000D03*
D14*
X129975000Y-98800000D03*
D16*
X117275000Y-98800000D03*
D14*
X134350000Y-99810000D03*
D16*
X134350000Y-89650000D03*
D14*
X165150000Y-72500000D03*
D16*
X165150000Y-85200000D03*
D17*
X158575000Y-76095000D03*
X158575000Y-78635000D03*
D18*
X158575000Y-81175000D03*
D19*
X98150000Y-60875000D03*
D20*
X103150000Y-60875000D03*
D21*
X151175000Y-74630000D03*
D22*
X151175000Y-82250000D03*
D19*
X85854000Y-142259000D03*
D20*
X80854000Y-142259000D03*
D19*
X97665000Y-142259000D03*
D20*
X92665000Y-142259000D03*
D19*
X109600000Y-60600000D03*
D20*
X114600000Y-60600000D03*
D19*
X121150000Y-60725000D03*
D20*
X126150000Y-60725000D03*
D19*
X132725000Y-60875000D03*
D20*
X137725000Y-60875000D03*
D19*
X144275000Y-60875000D03*
D20*
X149275000Y-60875000D03*
D19*
X109476000Y-142259000D03*
D20*
X104476000Y-142259000D03*
D14*
X164990000Y-139885000D03*
X157370000Y-142425000D03*
X164990000Y-142425000D03*
D15*
X157370000Y-139885000D03*
D14*
X164990000Y-118950000D03*
X157370000Y-121490000D03*
X164990000Y-121490000D03*
D15*
X157370000Y-118950000D03*
D14*
X164990000Y-96225000D03*
X157370000Y-98765000D03*
X164990000Y-98765000D03*
D15*
X157370000Y-96225000D03*
D14*
X148170000Y-140000000D03*
X140550000Y-142540000D03*
X148170000Y-142540000D03*
D15*
X140550000Y-140000000D03*
D14*
X148170000Y-118625000D03*
X140550000Y-121165000D03*
X148170000Y-121165000D03*
D15*
X140550000Y-118625000D03*
D14*
X148170000Y-96225000D03*
X140550000Y-98765000D03*
X148170000Y-98765000D03*
D15*
X140550000Y-96225000D03*
D14*
X105920000Y-114675000D03*
X98300000Y-117215000D03*
X105920000Y-117215000D03*
D15*
X98300000Y-114675000D03*
D14*
X105920000Y-91485000D03*
X98300000Y-94025000D03*
X105920000Y-94025000D03*
D15*
X98300000Y-91485000D03*
D14*
X87045000Y-114900000D03*
X79425000Y-117440000D03*
X87045000Y-117440000D03*
D15*
X79425000Y-114900000D03*
D14*
X79405000Y-93849000D03*
X87025000Y-91309000D03*
X79405000Y-91309000D03*
D15*
X87025000Y-93849000D03*
D14*
X166250000Y-134375000D03*
D16*
X156090000Y-134375000D03*
D14*
X166250000Y-112625000D03*
D16*
X156090000Y-112625000D03*
D14*
X166250000Y-90025000D03*
D16*
X156090000Y-90025000D03*
D14*
X149430000Y-134075000D03*
D16*
X139270000Y-134075000D03*
D14*
X149430000Y-112575000D03*
D16*
X139270000Y-112575000D03*
D14*
X149430000Y-90025000D03*
D16*
X139270000Y-90025000D03*
D14*
X167520000Y-147450000D03*
D16*
X154820000Y-147450000D03*
D14*
X167520000Y-127800000D03*
D16*
X154820000Y-127800000D03*
D14*
X167520000Y-105900000D03*
D16*
X154820000Y-105900000D03*
D14*
X150700000Y-147525000D03*
D16*
X138000000Y-147525000D03*
D14*
X150700000Y-127875000D03*
D16*
X138000000Y-127875000D03*
D14*
X150700000Y-105725000D03*
D16*
X138000000Y-105725000D03*
D14*
X108450000Y-131300000D03*
D16*
X95750000Y-131300000D03*
D14*
X107180000Y-124175000D03*
D16*
X97020000Y-124175000D03*
D14*
X108450000Y-108075000D03*
D16*
X95750000Y-108075000D03*
D14*
X107180000Y-101125000D03*
D16*
X97020000Y-101125000D03*
D14*
X89575000Y-131400000D03*
D16*
X76875000Y-131400000D03*
D14*
X88305000Y-124400000D03*
D16*
X78145000Y-124400000D03*
D14*
X89575000Y-107900000D03*
D16*
X76875000Y-107900000D03*
D14*
X88305000Y-101278000D03*
D16*
X78145000Y-101278000D03*
D14*
X145800000Y-72225000D03*
D16*
X145800000Y-84925000D03*
D14*
X126950000Y-72650000D03*
D16*
X126950000Y-85350000D03*
D14*
X107600000Y-72775000D03*
D16*
X107600000Y-85475000D03*
D14*
X89300000Y-73175000D03*
D16*
X89300000Y-85875000D03*
D17*
X140150000Y-76220000D03*
X140150000Y-78760000D03*
D18*
X140150000Y-81300000D03*
D17*
X120650000Y-76370000D03*
X120650000Y-78910000D03*
D18*
X120650000Y-81450000D03*
D17*
X101825000Y-76770000D03*
X101825000Y-79310000D03*
D18*
X101825000Y-81850000D03*
D17*
X83925000Y-76895000D03*
X83925000Y-79435000D03*
D18*
X83925000Y-81975000D03*
D10*
X76580000Y-63415000D03*
X92840000Y-63415000D03*
D11*
X91060000Y-59985000D03*
X78360000Y-59985000D03*
D12*
X88290000Y-64305000D03*
X86250000Y-64305000D03*
X84210000Y-64305000D03*
X82170000Y-64305000D03*
X87270000Y-62525000D03*
X85230000Y-62525000D03*
X83190000Y-62525000D03*
D13*
X81150000Y-62525000D03*
D21*
X132750000Y-75030000D03*
D22*
X132750000Y-82650000D03*
D21*
X113100000Y-82595000D03*
D22*
X113100000Y-74975000D03*
D21*
X94825000Y-75580000D03*
D22*
X94825000Y-83200000D03*
D21*
X76800000Y-75830000D03*
D22*
X76800000Y-83450000D03*
D16*
X125475000Y-110150000D03*
D15*
X125475000Y-112650000D03*
D14*
X132588000Y-142494000D03*
X117348000Y-142494000D03*
X132588000Y-106934000D03*
X117348000Y-139954000D03*
X132588000Y-109474000D03*
X117348000Y-137414000D03*
X132588000Y-112014000D03*
X117348000Y-134874000D03*
X132588000Y-114554000D03*
X117348000Y-132334000D03*
X132588000Y-117094000D03*
X117348000Y-129794000D03*
X132588000Y-119634000D03*
X117348000Y-127254000D03*
X132588000Y-122174000D03*
X117348000Y-124714000D03*
X132588000Y-124714000D03*
X117348000Y-122174000D03*
X132588000Y-127254000D03*
X117348000Y-119634000D03*
X132588000Y-129794000D03*
X117348000Y-117094000D03*
X132588000Y-132334000D03*
X117348000Y-114554000D03*
X132588000Y-134874000D03*
X117348000Y-112014000D03*
X132588000Y-137414000D03*
X117348000Y-109474000D03*
X132588000Y-139954000D03*
D15*
X117348000Y-106934000D03*
D23*
X170680000Y-76200000D03*
X76200000Y-142240000D03*
X170680000Y-142240000D03*
D24*
X99438800Y-72345600D03*
X139305600Y-64386500D03*
M02*
