M48
; DRILL file {KiCad (5.1.5)-3} date 24.02.2020 21:21:05
; FORMAT={-:-/ absolute / metric / decimal}
; #@! TF.CreationDate,2020-02-24T21:21:05+03:00
; #@! TF.GenerationSoftware,Kicad,Pcbnew,(5.1.5)-3
FMAT,2
METRIC
T1C0.400
T2C0.800
T3C0.890
T4C1.100
T5C1.500
T6C1.570
T7C3.200
T8C3.250
%
G90
G05
T1
X99.439Y-72.346
X139.306Y-64.386
T2
X134.35Y-89.65
X134.35Y-99.81
X138.0Y-105.725
X150.7Y-105.725
X95.75Y-131.3
X108.45Y-131.3
X117.275Y-98.8
X129.975Y-98.8
X79.425Y-114.9
X79.425Y-117.44
X87.045Y-114.9
X87.045Y-117.44
X139.27Y-90.025
X149.43Y-90.025
X154.82Y-105.9
X167.52Y-105.9
X117.348Y-106.934
X117.348Y-109.474
X117.348Y-112.014
X117.348Y-114.554
X117.348Y-117.094
X117.348Y-119.634
X117.348Y-122.174
X117.348Y-124.714
X117.348Y-127.254
X117.348Y-129.794
X117.348Y-132.334
X117.348Y-134.874
X117.348Y-137.414
X117.348Y-139.954
X117.348Y-142.494
X132.588Y-106.934
X132.588Y-109.474
X132.588Y-112.014
X132.588Y-114.554
X132.588Y-117.094
X132.588Y-119.634
X132.588Y-122.174
X132.588Y-124.714
X132.588Y-127.254
X132.588Y-129.794
X132.588Y-132.334
X132.588Y-134.874
X132.588Y-137.414
X132.588Y-139.954
X132.588Y-142.494
X165.15Y-72.5
X165.15Y-85.2
X98.3Y-91.485
X98.3Y-94.025
X105.92Y-91.485
X105.92Y-94.025
X138.0Y-147.525
X150.7Y-147.525
X156.09Y-90.025
X166.25Y-90.025
X138.0Y-127.875
X150.7Y-127.875
X107.6Y-72.775
X107.6Y-85.475
X125.475Y-110.15
X125.475Y-112.65
X140.55Y-96.225
X140.55Y-98.765
X148.17Y-96.225
X148.17Y-98.765
X98.3Y-114.675
X98.3Y-117.215
X105.92Y-114.675
X105.92Y-117.215
X154.82Y-147.45
X167.52Y-147.45
X156.09Y-112.625
X166.25Y-112.625
X154.82Y-127.8
X167.52Y-127.8
X145.8Y-72.225
X145.8Y-84.925
X140.55Y-118.625
X140.55Y-121.165
X148.17Y-118.625
X148.17Y-121.165
X156.09Y-134.375
X166.25Y-134.375
X157.37Y-118.95
X157.37Y-121.49
X164.99Y-118.95
X164.99Y-121.49
X95.75Y-108.075
X108.45Y-108.075
X78.145Y-124.4
X88.305Y-124.4
X139.27Y-112.575
X149.43Y-112.575
X89.3Y-73.175
X89.3Y-85.875
X78.145Y-101.278
X88.305Y-101.278
X119.055Y-90.91
X119.055Y-93.45
X126.675Y-90.91
X126.675Y-93.45
X79.405Y-91.309
X79.405Y-93.849
X87.025Y-91.309
X87.025Y-93.849
X157.37Y-139.885
X157.37Y-142.425
X164.99Y-139.885
X164.99Y-142.425
X139.27Y-134.075
X149.43Y-134.075
X97.02Y-124.175
X107.18Y-124.175
X97.02Y-101.125
X107.18Y-101.125
X126.95Y-72.65
X126.95Y-85.35
X140.55Y-140.0
X140.55Y-142.54
X148.17Y-140.0
X148.17Y-142.54
X157.37Y-96.225
X157.37Y-98.765
X164.99Y-96.225
X164.99Y-98.765
X76.875Y-107.9
X89.575Y-107.9
X76.875Y-131.4
X89.575Y-131.4
T3
X81.15Y-62.525
X82.17Y-64.305
X83.19Y-62.525
X84.21Y-64.305
X85.23Y-62.525
X86.25Y-64.305
X87.27Y-62.525
X88.29Y-64.305
X158.725Y-62.675
X159.745Y-64.455
X160.765Y-62.675
X161.785Y-64.455
X162.805Y-62.675
X163.825Y-64.455
X164.845Y-62.675
X165.865Y-64.455
T4
X94.825Y-75.58
X94.825Y-83.2
X76.8Y-75.83
X76.8Y-83.45
X132.75Y-75.03
X132.75Y-82.65
X151.175Y-74.63
X151.175Y-82.25
X140.15Y-76.22
X140.15Y-78.76
X140.15Y-81.3
X113.1Y-74.975
X113.1Y-82.595
X120.65Y-76.37
X120.65Y-78.91
X120.65Y-81.45
X83.925Y-76.895
X83.925Y-79.435
X83.925Y-81.975
X158.575Y-76.095
X158.575Y-78.635
X158.575Y-81.175
X101.825Y-76.77
X101.825Y-79.31
X101.825Y-81.85
T5
X80.854Y-142.259
X85.854Y-142.259
X121.15Y-60.725
X126.15Y-60.725
X98.15Y-60.875
X103.15Y-60.875
X109.6Y-60.6
X114.6Y-60.6
X132.725Y-60.875
X137.725Y-60.875
X104.476Y-142.259
X109.476Y-142.259
X144.275Y-60.875
X149.275Y-60.875
X92.665Y-142.259
X97.665Y-142.259
T6
X76.58Y-63.415
X92.84Y-63.415
X154.155Y-63.565
X170.415Y-63.565
T7
X76.2Y-142.24
X170.68Y-76.2
X170.68Y-142.24
T8
X78.36Y-59.985
X91.06Y-59.985
X155.935Y-60.135
X168.635Y-60.135
T0
M30
