G04 #@! TF.GenerationSoftware,KiCad,Pcbnew,(5.1.5)-3*
G04 #@! TF.CreationDate,2020-02-24T21:21:35+03:00*
G04 #@! TF.ProjectId,valveControllerPCB,76616c76-6543-46f6-9e74-726f6c6c6572,rev?*
G04 #@! TF.SameCoordinates,Original*
G04 #@! TF.FileFunction,Copper,L2,Bot*
G04 #@! TF.FilePolarity,Positive*
%FSLAX46Y46*%
G04 Gerber Fmt 4.6, Leading zero omitted, Abs format (unit mm)*
G04 Created by KiCad (PCBNEW (5.1.5)-3) date 2020-02-24 21:21:35*
%MOMM*%
%LPD*%
G04 APERTURE LIST*
%ADD10C,2.000000*%
%ADD11C,1.500000*%
%ADD12R,1.500000X1.500000*%
%ADD13O,1.600000X1.600000*%
%ADD14R,1.600000X1.600000*%
%ADD15C,1.600000*%
%ADD16O,2.000000X1.905000*%
%ADD17R,2.000000X1.905000*%
%ADD18C,3.000000*%
%ADD19R,3.000000X3.000000*%
%ADD20O,2.200000X2.200000*%
%ADD21R,2.200000X2.200000*%
%ADD22C,3.300000*%
%ADD23C,0.800000*%
%ADD24C,1.000000*%
G04 APERTURE END LIST*
D10*
X154155000Y-63565000D03*
X170415000Y-63565000D03*
D11*
X165865000Y-64455000D03*
X163825000Y-64455000D03*
X161785000Y-64455000D03*
X159745000Y-64455000D03*
X164845000Y-62675000D03*
X162805000Y-62675000D03*
X160765000Y-62675000D03*
D12*
X158725000Y-62675000D03*
D13*
X119055000Y-93450000D03*
X126675000Y-90910000D03*
X119055000Y-90910000D03*
D14*
X126675000Y-93450000D03*
D13*
X129975000Y-98800000D03*
D15*
X117275000Y-98800000D03*
D13*
X134350000Y-99810000D03*
D15*
X134350000Y-89650000D03*
D13*
X165150000Y-72500000D03*
D15*
X165150000Y-85200000D03*
D16*
X158575000Y-76095000D03*
X158575000Y-78635000D03*
D17*
X158575000Y-81175000D03*
D18*
X98150000Y-60875000D03*
D19*
X103150000Y-60875000D03*
D20*
X151175000Y-74630000D03*
D21*
X151175000Y-82250000D03*
D18*
X85854000Y-142259000D03*
D19*
X80854000Y-142259000D03*
D18*
X97665000Y-142259000D03*
D19*
X92665000Y-142259000D03*
D18*
X109600000Y-60600000D03*
D19*
X114600000Y-60600000D03*
D18*
X121150000Y-60725000D03*
D19*
X126150000Y-60725000D03*
D18*
X132725000Y-60875000D03*
D19*
X137725000Y-60875000D03*
D18*
X144275000Y-60875000D03*
D19*
X149275000Y-60875000D03*
D18*
X109476000Y-142259000D03*
D19*
X104476000Y-142259000D03*
D13*
X164990000Y-139885000D03*
X157370000Y-142425000D03*
X164990000Y-142425000D03*
D14*
X157370000Y-139885000D03*
D13*
X164990000Y-118950000D03*
X157370000Y-121490000D03*
X164990000Y-121490000D03*
D14*
X157370000Y-118950000D03*
D13*
X164990000Y-96225000D03*
X157370000Y-98765000D03*
X164990000Y-98765000D03*
D14*
X157370000Y-96225000D03*
D13*
X148170000Y-140000000D03*
X140550000Y-142540000D03*
X148170000Y-142540000D03*
D14*
X140550000Y-140000000D03*
D13*
X148170000Y-118625000D03*
X140550000Y-121165000D03*
X148170000Y-121165000D03*
D14*
X140550000Y-118625000D03*
D13*
X148170000Y-96225000D03*
X140550000Y-98765000D03*
X148170000Y-98765000D03*
D14*
X140550000Y-96225000D03*
D13*
X105920000Y-114675000D03*
X98300000Y-117215000D03*
X105920000Y-117215000D03*
D14*
X98300000Y-114675000D03*
D13*
X105920000Y-91485000D03*
X98300000Y-94025000D03*
X105920000Y-94025000D03*
D14*
X98300000Y-91485000D03*
D13*
X87045000Y-114900000D03*
X79425000Y-117440000D03*
X87045000Y-117440000D03*
D14*
X79425000Y-114900000D03*
D13*
X79405000Y-93849000D03*
X87025000Y-91309000D03*
X79405000Y-91309000D03*
D14*
X87025000Y-93849000D03*
D13*
X166250000Y-134375000D03*
D15*
X156090000Y-134375000D03*
D13*
X166250000Y-112625000D03*
D15*
X156090000Y-112625000D03*
D13*
X166250000Y-90025000D03*
D15*
X156090000Y-90025000D03*
D13*
X149430000Y-134075000D03*
D15*
X139270000Y-134075000D03*
D13*
X149430000Y-112575000D03*
D15*
X139270000Y-112575000D03*
D13*
X149430000Y-90025000D03*
D15*
X139270000Y-90025000D03*
D13*
X167520000Y-147450000D03*
D15*
X154820000Y-147450000D03*
D13*
X167520000Y-127800000D03*
D15*
X154820000Y-127800000D03*
D13*
X167520000Y-105900000D03*
D15*
X154820000Y-105900000D03*
D13*
X150700000Y-147525000D03*
D15*
X138000000Y-147525000D03*
D13*
X150700000Y-127875000D03*
D15*
X138000000Y-127875000D03*
D13*
X150700000Y-105725000D03*
D15*
X138000000Y-105725000D03*
D13*
X108450000Y-131300000D03*
D15*
X95750000Y-131300000D03*
D13*
X107180000Y-124175000D03*
D15*
X97020000Y-124175000D03*
D13*
X108450000Y-108075000D03*
D15*
X95750000Y-108075000D03*
D13*
X107180000Y-101125000D03*
D15*
X97020000Y-101125000D03*
D13*
X89575000Y-131400000D03*
D15*
X76875000Y-131400000D03*
D13*
X88305000Y-124400000D03*
D15*
X78145000Y-124400000D03*
D13*
X89575000Y-107900000D03*
D15*
X76875000Y-107900000D03*
D13*
X88305000Y-101278000D03*
D15*
X78145000Y-101278000D03*
D13*
X145800000Y-72225000D03*
D15*
X145800000Y-84925000D03*
D13*
X126950000Y-72650000D03*
D15*
X126950000Y-85350000D03*
D13*
X107600000Y-72775000D03*
D15*
X107600000Y-85475000D03*
D13*
X89300000Y-73175000D03*
D15*
X89300000Y-85875000D03*
D16*
X140150000Y-76220000D03*
X140150000Y-78760000D03*
D17*
X140150000Y-81300000D03*
D16*
X120650000Y-76370000D03*
X120650000Y-78910000D03*
D17*
X120650000Y-81450000D03*
D16*
X101825000Y-76770000D03*
X101825000Y-79310000D03*
D17*
X101825000Y-81850000D03*
D16*
X83925000Y-76895000D03*
X83925000Y-79435000D03*
D17*
X83925000Y-81975000D03*
D10*
X76580000Y-63415000D03*
X92840000Y-63415000D03*
D11*
X88290000Y-64305000D03*
X86250000Y-64305000D03*
X84210000Y-64305000D03*
X82170000Y-64305000D03*
X87270000Y-62525000D03*
X85230000Y-62525000D03*
X83190000Y-62525000D03*
D12*
X81150000Y-62525000D03*
D20*
X132750000Y-75030000D03*
D21*
X132750000Y-82650000D03*
D20*
X113100000Y-82595000D03*
D21*
X113100000Y-74975000D03*
D20*
X94825000Y-75580000D03*
D21*
X94825000Y-83200000D03*
D20*
X76800000Y-75830000D03*
D21*
X76800000Y-83450000D03*
D15*
X125475000Y-110150000D03*
D14*
X125475000Y-112650000D03*
D13*
X132588000Y-142494000D03*
X117348000Y-142494000D03*
X132588000Y-106934000D03*
X117348000Y-139954000D03*
X132588000Y-109474000D03*
X117348000Y-137414000D03*
X132588000Y-112014000D03*
X117348000Y-134874000D03*
X132588000Y-114554000D03*
X117348000Y-132334000D03*
X132588000Y-117094000D03*
X117348000Y-129794000D03*
X132588000Y-119634000D03*
X117348000Y-127254000D03*
X132588000Y-122174000D03*
X117348000Y-124714000D03*
X132588000Y-124714000D03*
X117348000Y-122174000D03*
X132588000Y-127254000D03*
X117348000Y-119634000D03*
X132588000Y-129794000D03*
X117348000Y-117094000D03*
X132588000Y-132334000D03*
X117348000Y-114554000D03*
X132588000Y-134874000D03*
X117348000Y-112014000D03*
X132588000Y-137414000D03*
X117348000Y-109474000D03*
X132588000Y-139954000D03*
D14*
X117348000Y-106934000D03*
D22*
X170680000Y-76200000D03*
X76200000Y-142240000D03*
X170680000Y-142240000D03*
D23*
X99438800Y-72345600D03*
X139305600Y-64386500D03*
D24*
X134350000Y-99810000D02*
X129975000Y-98800000D01*
X132588000Y-109474000D02*
X131807200Y-109474000D01*
X131807200Y-109474000D02*
X125648100Y-110084000D01*
X125648100Y-110084000D02*
X125475000Y-110150000D01*
X125475000Y-110150000D02*
X117275000Y-98800000D01*
X96000000Y-117320100D02*
X98132500Y-117269300D01*
X98132500Y-117269300D02*
X98300000Y-117215000D01*
X95750000Y-131300000D02*
X94219900Y-124989500D01*
X94219900Y-124989500D02*
X94219900Y-123360500D01*
X94219900Y-123360500D02*
X94232400Y-123310800D01*
X94232400Y-123310800D02*
X96000000Y-117320100D01*
X76875000Y-131400000D02*
X80698900Y-125808300D01*
X80698900Y-125808300D02*
X80725200Y-125764300D01*
X80725200Y-125764300D02*
X80932600Y-125264200D01*
X80932600Y-125264200D02*
X80945100Y-125214500D01*
X80945100Y-125214500D02*
X80945100Y-123585500D01*
X80945100Y-123585500D02*
X79425000Y-117440000D01*
X95750000Y-108075000D02*
X95499900Y-113201600D01*
X95499900Y-113201600D02*
X95499900Y-114801600D01*
X95499900Y-114801600D02*
X95499900Y-116148400D01*
X95499900Y-116148400D02*
X95610700Y-116416000D01*
X95610700Y-116416000D02*
X96000000Y-117320100D01*
X76875000Y-107900000D02*
X76624900Y-113426600D01*
X76624900Y-113426600D02*
X76624900Y-114526600D01*
X76624900Y-114526600D02*
X76624900Y-115873400D01*
X76624900Y-115873400D02*
X76735700Y-116141000D01*
X76735700Y-116141000D02*
X76910200Y-116524500D01*
X76910200Y-116524500D02*
X77800500Y-117414800D01*
X77800500Y-117414800D02*
X77992500Y-117494300D01*
X77992500Y-117494300D02*
X79257500Y-117494300D01*
X79257500Y-117494300D02*
X79425000Y-117440000D01*
X167520000Y-147450000D02*
X155634500Y-150250100D01*
X155634500Y-150250100D02*
X154005500Y-150250100D01*
X154005500Y-150250100D02*
X153955800Y-150237600D01*
X153955800Y-150237600D02*
X153455700Y-150030200D01*
X153455700Y-150030200D02*
X153411700Y-150003900D01*
X153411700Y-150003900D02*
X150700000Y-147525000D01*
X167520000Y-147450000D02*
X169050100Y-135189500D01*
X169050100Y-135189500D02*
X169050100Y-133560500D01*
X169050100Y-133560500D02*
X169037600Y-133510800D01*
X169037600Y-133510800D02*
X167520000Y-127800000D01*
X150700000Y-127875000D02*
X153411700Y-130353900D01*
X153411700Y-130353900D02*
X153455700Y-130380200D01*
X153455700Y-130380200D02*
X153955800Y-130587600D01*
X153955800Y-130587600D02*
X154005500Y-130600100D01*
X154005500Y-130600100D02*
X155634500Y-130600100D01*
X155634500Y-130600100D02*
X167520000Y-127800000D01*
X167520000Y-127800000D02*
X169050100Y-113439500D01*
X169050100Y-113439500D02*
X169050100Y-111810500D01*
X169050100Y-111810500D02*
X169037600Y-111760800D01*
X169037600Y-111760800D02*
X167520000Y-105900000D01*
X76875000Y-131400000D02*
X79854000Y-140551900D01*
X79854000Y-140551900D02*
X79854000Y-140759000D01*
X79854000Y-140759000D02*
X79854000Y-141259000D01*
X79854000Y-141259000D02*
X80854000Y-142259000D01*
X117348000Y-134874000D02*
X116567200Y-134874000D01*
X116567200Y-134874000D02*
X116101100Y-134681000D01*
X116101100Y-134681000D02*
X108450000Y-131300000D01*
X107180000Y-124175000D02*
X108450000Y-131300000D01*
X164990000Y-96225000D02*
X164209200Y-96225000D01*
X164209200Y-96225000D02*
X163743100Y-96418000D01*
X163743100Y-96418000D02*
X162643000Y-97518100D01*
X162643000Y-97518100D02*
X162450000Y-97984200D01*
X162450000Y-97984200D02*
X162219800Y-104784500D01*
X162219800Y-104784500D02*
X162219800Y-107015500D01*
X162219800Y-107015500D02*
X162224300Y-107043500D01*
X162224300Y-107043500D02*
X163449900Y-113439500D01*
X163449900Y-113439500D02*
X163462400Y-113489200D01*
X163462400Y-113489200D02*
X164990000Y-118950000D01*
X117348000Y-129794000D02*
X116567200Y-129794000D01*
X116567200Y-129794000D02*
X116101100Y-129601000D01*
X116101100Y-129601000D02*
X115001000Y-128500900D01*
X115001000Y-128500900D02*
X114808000Y-128034800D01*
X114808000Y-128034800D02*
X111215700Y-113531500D01*
X111215700Y-113531500D02*
X111090000Y-113032500D01*
X111090000Y-113032500D02*
X111084800Y-113016400D01*
X111084800Y-113016400D02*
X110742600Y-112190800D01*
X110742600Y-112190800D02*
X110734900Y-112175700D01*
X110734900Y-112175700D02*
X108450000Y-108075000D01*
X107180000Y-101125000D02*
X108450000Y-108075000D01*
X132588000Y-119634000D02*
X131807200Y-119634000D01*
X131807200Y-119634000D02*
X131341100Y-119827000D01*
X131341100Y-119827000D02*
X130241000Y-120927100D01*
X130241000Y-120927100D02*
X130048000Y-121393200D01*
X130048000Y-121393200D02*
X129787900Y-123899500D01*
X129787900Y-123899500D02*
X129787900Y-141679500D01*
X129787900Y-141679500D02*
X129787900Y-143308500D01*
X129787900Y-143308500D02*
X129800400Y-143358200D01*
X129800400Y-143358200D02*
X130007800Y-143858300D01*
X130007800Y-143858300D02*
X130034100Y-143902300D01*
X130034100Y-143902300D02*
X131179700Y-145047900D01*
X131179700Y-145047900D02*
X136591700Y-150078900D01*
X136591700Y-150078900D02*
X136635700Y-150105200D01*
X136635700Y-150105200D02*
X137135800Y-150312600D01*
X137135800Y-150312600D02*
X137185500Y-150325100D01*
X137185500Y-150325100D02*
X138814500Y-150325100D01*
X138814500Y-150325100D02*
X138864200Y-150312600D01*
X138864200Y-150312600D02*
X139364300Y-150105200D01*
X139364300Y-150105200D02*
X149394400Y-145061500D01*
X149394400Y-145061500D02*
X149876800Y-144861400D01*
X149876800Y-144861400D02*
X149901600Y-144855200D01*
X149901600Y-144855200D02*
X151498400Y-144855200D01*
X151498400Y-144855200D02*
X151523200Y-144861400D01*
X151523200Y-144861400D02*
X152005600Y-145061500D01*
X152005600Y-145061500D02*
X152027500Y-145074600D01*
X152027500Y-145074600D02*
X154820000Y-147450000D01*
X154820000Y-147450000D02*
X164990000Y-142425000D01*
X154820000Y-127800000D02*
X164990000Y-121490000D01*
X132588000Y-124714000D02*
X133368800Y-124714000D01*
X133368800Y-124714000D02*
X141364500Y-123965100D01*
X141364500Y-123965100D02*
X141414200Y-123952600D01*
X141414200Y-123952600D02*
X142648600Y-123526300D01*
X142648600Y-123526300D02*
X143336500Y-123241100D01*
X143336500Y-123241100D02*
X143613700Y-123074900D01*
X143613700Y-123074900D02*
X144999900Y-121688700D01*
X144999900Y-121688700D02*
X145166100Y-121411500D01*
X145166100Y-121411500D02*
X145451300Y-120723600D01*
X145451300Y-120723600D02*
X145530000Y-120410000D01*
X145530000Y-120410000D02*
X145530000Y-117830300D01*
X145530000Y-117830300D02*
X145534800Y-117811200D01*
X145534800Y-117811200D02*
X145733200Y-117332900D01*
X145733200Y-117332900D02*
X145743300Y-117316000D01*
X145743300Y-117316000D02*
X146861000Y-116198300D01*
X146861000Y-116198300D02*
X146877900Y-116188200D01*
X146877900Y-116188200D02*
X147356200Y-115989800D01*
X147356200Y-115989800D02*
X150167100Y-114895000D01*
X150167100Y-114895000D02*
X150552200Y-114735500D01*
X150552200Y-114735500D02*
X151590500Y-113697200D01*
X151590500Y-113697200D02*
X151750000Y-113312100D01*
X151750000Y-113312100D02*
X151750000Y-111620200D01*
X151750000Y-111620200D02*
X151836400Y-111276100D01*
X151836400Y-111276100D02*
X152130600Y-110566400D01*
X152130600Y-110566400D02*
X154820000Y-105900000D01*
X132588000Y-127254000D02*
X133368800Y-127254000D01*
X133368800Y-127254000D02*
X133834900Y-127447000D01*
X133834900Y-127447000D02*
X134935000Y-128547100D01*
X134935000Y-128547100D02*
X135128000Y-129013200D01*
X135128000Y-129013200D02*
X135388100Y-131519500D01*
X135388100Y-131519500D02*
X135388100Y-134059500D01*
X135388100Y-134059500D02*
X135388100Y-135688500D01*
X135388100Y-135688500D02*
X135342000Y-138186800D01*
X135342000Y-138186800D02*
X135342000Y-139786800D01*
X135342000Y-139786800D02*
X135342000Y-141813200D01*
X135342000Y-141813200D02*
X135431600Y-142170300D01*
X135431600Y-142170300D02*
X135729700Y-142889300D01*
X135729700Y-142889300D02*
X138000000Y-147525000D01*
X138000000Y-147525000D02*
X148170000Y-142540000D01*
X88305000Y-101278000D02*
X89575000Y-107900000D01*
X138000000Y-127875000D02*
X143535700Y-126016500D01*
X143535700Y-126016500D02*
X144470700Y-125629000D01*
X144470700Y-125629000D02*
X144585600Y-125570500D01*
X144585600Y-125570500D02*
X145131200Y-125243700D01*
X145131200Y-125243700D02*
X145305200Y-125117400D01*
X145305200Y-125117400D02*
X147042400Y-123380200D01*
X147042400Y-123380200D02*
X147168700Y-123206200D01*
X147168700Y-123206200D02*
X147495500Y-122660600D01*
X147495500Y-122660600D02*
X147554000Y-122545700D01*
X147554000Y-122545700D02*
X148170000Y-121165000D01*
X138000000Y-105725000D02*
X148170000Y-98765000D01*
X117348000Y-112014000D02*
X118128800Y-112014000D01*
X118128800Y-112014000D02*
X124467900Y-112350000D01*
X124467900Y-112350000D02*
X124675000Y-112350000D01*
X124675000Y-112350000D02*
X125175000Y-112350000D01*
X125175000Y-112350000D02*
X125475000Y-112650000D01*
X76580000Y-63415000D02*
X76800000Y-75830000D01*
X83925000Y-76895000D02*
X83972500Y-76895000D01*
X83972500Y-76895000D02*
X94825000Y-75580000D01*
X132750000Y-75030000D02*
X140102500Y-76220000D01*
X140102500Y-76220000D02*
X140150000Y-76220000D01*
X140150000Y-76220000D02*
X140197500Y-76220000D01*
X140197500Y-76220000D02*
X151175000Y-74630000D01*
X151175000Y-74630000D02*
X158527500Y-76095000D01*
X158527500Y-76095000D02*
X158575000Y-76095000D01*
X92840000Y-63415000D02*
X94438600Y-73432000D01*
X94438600Y-73432000D02*
X94825000Y-75580000D01*
X86250000Y-64305000D02*
X86250000Y-64986400D01*
X86250000Y-64986400D02*
X86133100Y-65268600D01*
X86133100Y-65268600D02*
X81705900Y-75765300D01*
X81705900Y-75765300D02*
X81544300Y-76155300D01*
X81544300Y-76155300D02*
X81544300Y-77634700D01*
X81544300Y-77634700D02*
X81705900Y-78024700D01*
X81705900Y-78024700D02*
X82747800Y-79066600D01*
X82747800Y-79066600D02*
X83137800Y-79228200D01*
X83137800Y-79228200D02*
X83877500Y-79435000D01*
X83877500Y-79435000D02*
X83925000Y-79435000D01*
X76800000Y-83450000D02*
X77400000Y-82850000D01*
X77400000Y-82850000D02*
X77900000Y-82850000D01*
X77900000Y-82850000D02*
X78107100Y-82850000D01*
X78107100Y-82850000D02*
X81984000Y-79633200D01*
X81984000Y-79633200D02*
X82217700Y-79483000D01*
X82217700Y-79483000D02*
X82333600Y-79435000D01*
X82333600Y-79435000D02*
X83877500Y-79435000D01*
X83877500Y-79435000D02*
X83925000Y-79435000D01*
X137725000Y-60875000D02*
X136725000Y-59875000D01*
X136725000Y-59875000D02*
X136225000Y-59875000D01*
X136225000Y-59875000D02*
X136017900Y-59875000D01*
X136017900Y-59875000D02*
X135725000Y-59582100D01*
X135725000Y-59582100D02*
X135486700Y-59304500D01*
X135486700Y-59304500D02*
X134295500Y-58113300D01*
X134295500Y-58113300D02*
X130112200Y-55320800D01*
X130112200Y-55320800D02*
X129780800Y-55122100D01*
X129780800Y-55122100D02*
X129049300Y-54818900D01*
X129049300Y-54818900D02*
X128674600Y-54724800D01*
X128674600Y-54724800D02*
X125674600Y-54724800D01*
X125674600Y-54724800D02*
X123625400Y-54724800D01*
X123625400Y-54724800D02*
X119978900Y-54724800D01*
X119978900Y-54724800D02*
X100625400Y-54874800D01*
X100625400Y-54874800D02*
X100250700Y-54968900D01*
X100250700Y-54968900D02*
X99519200Y-55272100D01*
X99519200Y-55272100D02*
X99187800Y-55470800D01*
X99187800Y-55470800D02*
X96307800Y-57765100D01*
X101825000Y-79310000D02*
X101777500Y-79310000D01*
X101777500Y-79310000D02*
X101649500Y-79182700D01*
X101649500Y-79182700D02*
X101457500Y-79103200D01*
X101457500Y-79103200D02*
X101037800Y-79103200D01*
X101037800Y-79103200D02*
X100647800Y-78941600D01*
X100647800Y-78941600D02*
X99605900Y-77899700D01*
X99605900Y-77899700D02*
X97649700Y-74092600D01*
X97649700Y-74092600D02*
X97595700Y-74002500D01*
X97595700Y-74002500D02*
X97148600Y-73554600D01*
X97148600Y-73554600D02*
X96965700Y-73113100D01*
X96965700Y-73113100D02*
X95407400Y-62629300D01*
X95407400Y-62629300D02*
X95406100Y-62624000D01*
X95406100Y-62624000D02*
X95107900Y-61823300D01*
X95107900Y-61823300D02*
X95082600Y-61722500D01*
X95082600Y-61722500D02*
X94762900Y-59116400D01*
X94825000Y-83200000D02*
X95425000Y-82600000D01*
X95425000Y-82600000D02*
X95925000Y-82600000D01*
X95925000Y-82600000D02*
X96132100Y-82600000D01*
X96132100Y-82600000D02*
X99884000Y-79508200D01*
X99884000Y-79508200D02*
X100117700Y-79358000D01*
X100117700Y-79358000D02*
X100233600Y-79310000D01*
X100233600Y-79310000D02*
X101777500Y-79310000D01*
X101777500Y-79310000D02*
X101825000Y-79310000D01*
X94009999Y-57459999D02*
X95244848Y-58694848D01*
X85230000Y-62525000D02*
X85230000Y-61843600D01*
X85230000Y-61843600D02*
X85346900Y-61561400D01*
X95244848Y-58694848D02*
X94762900Y-59116400D01*
X85346900Y-61561400D02*
X89448301Y-57459999D01*
X96307800Y-57765100D02*
X95244848Y-58694848D01*
X89448301Y-57459999D02*
X94009999Y-57459999D01*
X126150000Y-60725000D02*
X125150000Y-61725000D01*
X125150000Y-61725000D02*
X125150000Y-62225000D01*
X125150000Y-62225000D02*
X125150000Y-62432100D01*
X125150000Y-62432100D02*
X124857100Y-62725000D01*
X124857100Y-62725000D02*
X113992900Y-73375000D01*
X113992900Y-73375000D02*
X113700000Y-73667900D01*
X113700000Y-73667900D02*
X113700000Y-73875000D01*
X113700000Y-73875000D02*
X113700000Y-74375000D01*
X113700000Y-74375000D02*
X113100000Y-74975000D01*
X113100000Y-74975000D02*
X113700000Y-75575000D01*
X113700000Y-75575000D02*
X114200000Y-75575000D01*
X114200000Y-75575000D02*
X114407100Y-75575000D01*
X114407100Y-75575000D02*
X119355600Y-78717000D01*
X119355600Y-78717000D02*
X119821700Y-78910000D01*
X119821700Y-78910000D02*
X120602500Y-78910000D01*
X120602500Y-78910000D02*
X120650000Y-78910000D01*
X114600000Y-60600000D02*
X115600000Y-59600000D01*
X115600000Y-59600000D02*
X116100000Y-59600000D01*
X116100000Y-59600000D02*
X116307100Y-59600000D01*
X116307100Y-59600000D02*
X119307800Y-57615100D01*
X119307800Y-57615100D02*
X119470100Y-57517800D01*
X119470100Y-57517800D02*
X120065500Y-57271000D01*
X120065500Y-57271000D02*
X120249000Y-57224900D01*
X120249000Y-57224900D02*
X123976600Y-57224900D01*
X123976600Y-57224900D02*
X125323400Y-57224900D01*
X125323400Y-57224900D02*
X127823400Y-57224900D01*
X127823400Y-57224900D02*
X128091000Y-57335700D01*
X128091000Y-57335700D02*
X128473900Y-57511100D01*
X128473900Y-57511100D02*
X129363900Y-58401100D01*
X129363900Y-58401100D02*
X129443300Y-58592700D01*
X129443300Y-58592700D02*
X129443300Y-59857300D01*
X129443300Y-59857300D02*
X129437500Y-60000300D01*
X129437500Y-60000300D02*
X129437500Y-61749700D01*
X129437500Y-61749700D02*
X129750100Y-71835500D01*
X129750100Y-71835500D02*
X129750100Y-73464500D01*
X129750100Y-73464500D02*
X129649900Y-74178400D01*
X129649900Y-74178400D02*
X129649900Y-75881600D01*
X129649900Y-75881600D02*
X129676800Y-75988600D01*
X129676800Y-75988600D02*
X129901100Y-76529600D01*
X129901100Y-76529600D02*
X132150000Y-81342900D01*
X132150000Y-81342900D02*
X132150000Y-81550000D01*
X132150000Y-81550000D02*
X132150000Y-82050000D01*
X132150000Y-82050000D02*
X132750000Y-82650000D01*
X132750000Y-82650000D02*
X133350000Y-82050000D01*
X133350000Y-82050000D02*
X133850000Y-82050000D01*
X133850000Y-82050000D02*
X134057100Y-82050000D01*
X134057100Y-82050000D02*
X138209000Y-78958200D01*
X138209000Y-78958200D02*
X138442700Y-78808000D01*
X138442700Y-78808000D02*
X138558600Y-78760000D01*
X138558600Y-78760000D02*
X140102500Y-78760000D01*
X140102500Y-78760000D02*
X140150000Y-78760000D01*
X121150000Y-60725000D02*
X117041000Y-63989300D01*
X117041000Y-63989300D02*
X116773400Y-64100100D01*
X116773400Y-64100100D02*
X112926900Y-64863000D01*
X109600000Y-60600000D02*
X111210700Y-63041000D01*
X111210700Y-63041000D02*
X112926900Y-64863000D01*
X109600000Y-60600000D02*
X105591000Y-57485700D01*
X105591000Y-57485700D02*
X105323400Y-57374900D01*
X105323400Y-57374900D02*
X102323400Y-57374900D01*
X102323400Y-57374900D02*
X100976600Y-57374900D01*
X100976600Y-57374900D02*
X100709000Y-57485700D01*
X100709000Y-57485700D02*
X99760700Y-58434000D01*
X99760700Y-58434000D02*
X98150000Y-60875000D01*
X109476000Y-142259000D02*
X105662400Y-132164200D01*
X105662400Y-132164200D02*
X105649900Y-132114500D01*
X105649900Y-132114500D02*
X104379900Y-124989500D01*
X104379900Y-124989500D02*
X103280000Y-118009700D01*
X103280000Y-118009700D02*
X103280000Y-112890000D01*
X103280000Y-112890000D02*
X102100000Y-102221300D01*
X102100000Y-102221300D02*
X102100000Y-100028700D01*
X102100000Y-100028700D02*
X103280000Y-95108900D01*
X103280000Y-95108900D02*
X103280000Y-90690300D01*
X103280000Y-90690300D02*
X103284800Y-90671200D01*
X103284800Y-90671200D02*
X103483200Y-90192900D01*
X103483200Y-90192900D02*
X103493300Y-90176000D01*
X103493300Y-90176000D02*
X104611000Y-89058300D01*
X104611000Y-89058300D02*
X104627900Y-89048200D01*
X104627900Y-89048200D02*
X105106200Y-88849800D01*
X105106200Y-88849800D02*
X105125300Y-88845000D01*
X105125300Y-88845000D02*
X108414500Y-88275100D01*
X108414500Y-88275100D02*
X108464200Y-88262600D01*
X108464200Y-88262600D02*
X108964300Y-88055200D01*
X108964300Y-88055200D02*
X109008300Y-88028900D01*
X109008300Y-88028900D02*
X110153900Y-86883300D01*
X110153900Y-86883300D02*
X110180200Y-86839300D01*
X110180200Y-86839300D02*
X110387600Y-86339200D01*
X110387600Y-86339200D02*
X110400100Y-86289500D01*
X110400100Y-86289500D02*
X110400100Y-84660500D01*
X110400100Y-84660500D02*
X110387600Y-84610800D01*
X110387600Y-84610800D02*
X110026800Y-83553600D01*
X110026800Y-83553600D02*
X109999900Y-83446600D01*
X109999900Y-83446600D02*
X109999900Y-76748400D01*
X109999900Y-76748400D02*
X109999900Y-75401600D01*
X109999900Y-75401600D02*
X109999900Y-74901600D01*
X109999900Y-74901600D02*
X110200000Y-73564700D01*
X110200000Y-73564700D02*
X110200000Y-73241400D01*
X110200000Y-73241400D02*
X112926900Y-64863000D01*
X89300000Y-85875000D02*
X85132100Y-82427500D01*
X85132100Y-82427500D02*
X84925000Y-82427500D01*
X84925000Y-82427500D02*
X84425000Y-82427500D01*
X84425000Y-82427500D02*
X83925000Y-81975000D01*
X83925000Y-81975000D02*
X83425000Y-82427500D01*
X83425000Y-82427500D02*
X83425000Y-82927500D01*
X83425000Y-82927500D02*
X83425000Y-83134600D01*
X83425000Y-83134600D02*
X79405000Y-91309000D01*
X101825000Y-81850000D02*
X101325000Y-82302500D01*
X101325000Y-82302500D02*
X101325000Y-82802500D01*
X101325000Y-82802500D02*
X101325000Y-83009600D01*
X101325000Y-83009600D02*
X89714300Y-95590000D01*
X89714300Y-95590000D02*
X85751100Y-99869700D01*
X85751100Y-99869700D02*
X85724800Y-99913700D01*
X85724800Y-99913700D02*
X85517400Y-100413800D01*
X85517400Y-100413800D02*
X85504900Y-100463500D01*
X85504900Y-100463500D02*
X84505000Y-114119200D01*
X84505000Y-114119200D02*
X84505000Y-115680800D01*
X84505000Y-115680800D02*
X84698000Y-116146900D01*
X84698000Y-116146900D02*
X85798100Y-117247000D01*
X85798100Y-117247000D02*
X86264200Y-117440000D01*
X86264200Y-117440000D02*
X87045000Y-117440000D01*
X120650000Y-81450000D02*
X120150000Y-81902500D01*
X120150000Y-81902500D02*
X119650000Y-81902500D01*
X119650000Y-81902500D02*
X119442900Y-81902500D01*
X119442900Y-81902500D02*
X107166900Y-93832000D01*
X107166900Y-93832000D02*
X106700800Y-94025000D01*
X106700800Y-94025000D02*
X105920000Y-94025000D01*
X145800000Y-84925000D02*
X141357100Y-81752500D01*
X141357100Y-81752500D02*
X141150000Y-81752500D01*
X141150000Y-81752500D02*
X140650000Y-81752500D01*
X140650000Y-81752500D02*
X140150000Y-81300000D01*
X140150000Y-81300000D02*
X139650000Y-81752500D01*
X139650000Y-81752500D02*
X139150000Y-81752500D01*
X139150000Y-81752500D02*
X138942900Y-81752500D01*
X138942900Y-81752500D02*
X134791000Y-85139300D01*
X134791000Y-85139300D02*
X134523400Y-85250100D01*
X134523400Y-85250100D02*
X134430600Y-85283300D01*
X134430600Y-85283300D02*
X133341900Y-85283300D01*
X133341900Y-85283300D02*
X132252800Y-85395100D01*
X132252800Y-85395100D02*
X131047200Y-85395100D01*
X131047200Y-85395100D02*
X130910100Y-85338300D01*
X130910100Y-85338300D02*
X128332100Y-82829600D01*
X128332100Y-82829600D02*
X128295300Y-82807600D01*
X128295300Y-82807600D02*
X127800900Y-82602600D01*
X127800900Y-82602600D02*
X127759300Y-82592100D01*
X127759300Y-82592100D02*
X126140700Y-82592100D01*
X126140700Y-82592100D02*
X126099100Y-82602600D01*
X126099100Y-82602600D02*
X125604700Y-82807600D01*
X125604700Y-82807600D02*
X125567900Y-82829600D01*
X125567900Y-82829600D02*
X117646700Y-88356100D01*
X117646700Y-88356100D02*
X108885600Y-96017800D01*
X108885600Y-96017800D02*
X105840000Y-98658600D01*
X105840000Y-98658600D02*
X104713600Y-99785000D01*
X104713600Y-99785000D02*
X104698400Y-99810300D01*
X104698400Y-99810300D02*
X104497200Y-100295500D01*
X104497200Y-100295500D02*
X104490000Y-100324100D01*
X104490000Y-100324100D02*
X104490000Y-101925900D01*
X104490000Y-101925900D02*
X105649900Y-108889500D01*
X105649900Y-108889500D02*
X105662400Y-108939200D01*
X105662400Y-108939200D02*
X105869800Y-109439300D01*
X105869800Y-109439300D02*
X105896100Y-109483300D01*
X105896100Y-109483300D02*
X108267000Y-113428100D01*
X108267000Y-113428100D02*
X108460000Y-113894200D01*
X108460000Y-113894200D02*
X108460000Y-115455800D01*
X108460000Y-115455800D02*
X108267000Y-115921900D01*
X108267000Y-115921900D02*
X107166900Y-117022000D01*
X107166900Y-117022000D02*
X106700800Y-117215000D01*
X106700800Y-117215000D02*
X105920000Y-117215000D01*
X139270000Y-112575000D02*
X143103500Y-116974700D01*
X143103500Y-116974700D02*
X143190000Y-117183400D01*
X143190000Y-117183400D02*
X143190000Y-118283400D01*
X143190000Y-118283400D02*
X143190000Y-119566600D01*
X143190000Y-119566600D02*
X143144300Y-120057500D01*
X143144300Y-120057500D02*
X143064800Y-120249500D01*
X143064800Y-120249500D02*
X142174500Y-121139800D01*
X142174500Y-121139800D02*
X141982500Y-121219300D01*
X141982500Y-121219300D02*
X140717500Y-121219300D01*
X140717500Y-121219300D02*
X140550000Y-121165000D01*
X139270000Y-134075000D02*
X137796000Y-138535700D01*
X137796000Y-138535700D02*
X137796000Y-139635700D01*
X137796000Y-139635700D02*
X137796000Y-140964300D01*
X137796000Y-140964300D02*
X137955700Y-141432500D01*
X137955700Y-141432500D02*
X138035200Y-141624500D01*
X138035200Y-141624500D02*
X138925500Y-142514800D01*
X138925500Y-142514800D02*
X139117500Y-142594300D01*
X139117500Y-142594300D02*
X140382500Y-142594300D01*
X140382500Y-142594300D02*
X140550000Y-142540000D01*
X103150000Y-60875000D02*
X102150000Y-61875000D01*
X102150000Y-61875000D02*
X102150000Y-62375000D01*
X102150000Y-62375000D02*
X102150000Y-62582100D01*
X102150000Y-62582100D02*
X99438800Y-72345600D01*
X151175000Y-82250000D02*
X151775000Y-81650000D01*
X151775000Y-81650000D02*
X152275000Y-81650000D01*
X152275000Y-81650000D02*
X152482100Y-81650000D01*
X152482100Y-81650000D02*
X156634000Y-78833200D01*
X156634000Y-78833200D02*
X156867700Y-78683000D01*
X156867700Y-78683000D02*
X156983600Y-78635000D01*
X156983600Y-78635000D02*
X158527500Y-78635000D01*
X158527500Y-78635000D02*
X158575000Y-78635000D01*
X104476000Y-142259000D02*
X103476000Y-143259000D01*
X103476000Y-143259000D02*
X102976000Y-143259000D01*
X102976000Y-143259000D02*
X102768900Y-143259000D01*
X102768900Y-143259000D02*
X99147300Y-145073600D01*
X99147300Y-145073600D02*
X98611600Y-145295800D01*
X98611600Y-145295800D02*
X98511800Y-145320800D01*
X98511800Y-145320800D02*
X96818200Y-145320800D01*
X96818200Y-145320800D02*
X96718400Y-145295800D01*
X96718400Y-145295800D02*
X96182700Y-145073600D01*
X96182700Y-145073600D02*
X96094500Y-145020700D01*
X96094500Y-145020700D02*
X94903300Y-143829500D01*
X94903300Y-143829500D02*
X94665000Y-143551900D01*
X94665000Y-143551900D02*
X94372100Y-143259000D01*
X94372100Y-143259000D02*
X94165000Y-143259000D01*
X94165000Y-143259000D02*
X93665000Y-143259000D01*
X93665000Y-143259000D02*
X92665000Y-142259000D01*
X104476000Y-142259000D02*
X103476000Y-141259000D01*
X103476000Y-141259000D02*
X103476000Y-140759000D01*
X103476000Y-140759000D02*
X103476000Y-140551900D01*
X103476000Y-140551900D02*
X100940000Y-118298900D01*
X100940000Y-118298900D02*
X100940000Y-113233400D01*
X100940000Y-113233400D02*
X99710000Y-102412800D01*
X99710000Y-102412800D02*
X99710000Y-99837200D01*
X99710000Y-99837200D02*
X99756600Y-99545300D01*
X99756600Y-99545300D02*
X100940000Y-94819700D01*
X100940000Y-94819700D02*
X100940000Y-90401100D01*
X100940000Y-90401100D02*
X101057100Y-89934600D01*
X101057100Y-89934600D02*
X101387400Y-89137800D01*
X101387400Y-89137800D02*
X101634600Y-88725300D01*
X101634600Y-88725300D02*
X104714300Y-83743500D01*
X104714300Y-83743500D02*
X104825100Y-83475900D01*
X104825100Y-83475900D02*
X107600000Y-72775000D01*
X87270000Y-62525000D02*
X88120500Y-63376500D01*
X88120500Y-63376500D02*
X88228000Y-63636000D01*
X88228000Y-63636000D02*
X88290000Y-64305000D01*
X88290000Y-64305000D02*
X89300000Y-73175000D01*
X154155000Y-63565000D02*
X158367700Y-66969200D01*
X158367700Y-66969200D02*
X162568700Y-69882600D01*
X162568700Y-69882600D02*
X162789700Y-70042900D01*
X162789700Y-70042900D02*
X164579600Y-71832800D01*
X164579600Y-71832800D02*
X165150000Y-72500000D01*
X170415000Y-63565000D02*
X165865000Y-64455000D01*
X164845000Y-62675000D02*
X165695500Y-63526500D01*
X165695500Y-63526500D02*
X165803000Y-63786000D01*
X165803000Y-63786000D02*
X165865000Y-64455000D01*
X140550000Y-140000000D02*
X140850000Y-139700000D01*
X140850000Y-139700000D02*
X141350000Y-139700000D01*
X141350000Y-139700000D02*
X141557100Y-139700000D01*
X141557100Y-139700000D02*
X146805700Y-137419800D01*
X146805700Y-137419800D02*
X147305800Y-137212400D01*
X147305800Y-137212400D02*
X147355500Y-137199900D01*
X147355500Y-137199900D02*
X148984500Y-137199900D01*
X148984500Y-137199900D02*
X156777100Y-138585000D01*
X156777100Y-138585000D02*
X157070000Y-138877900D01*
X157070000Y-138877900D02*
X157070000Y-139085000D01*
X157070000Y-139085000D02*
X157070000Y-139585000D01*
X157070000Y-139585000D02*
X157370000Y-139885000D01*
X140550000Y-118625000D02*
X140250000Y-118325000D01*
X140250000Y-118325000D02*
X140250000Y-117825000D01*
X140250000Y-117825000D02*
X140250000Y-117617900D01*
X140250000Y-117617900D02*
X136716100Y-113983300D01*
X136716100Y-113983300D02*
X136689800Y-113939300D01*
X136689800Y-113939300D02*
X136482400Y-113439200D01*
X136482400Y-113439200D02*
X136469900Y-113389500D01*
X136469900Y-113389500D02*
X135294000Y-106527800D01*
X135294000Y-106527800D02*
X135294000Y-104922200D01*
X135294000Y-104922200D02*
X135302000Y-104890400D01*
X135302000Y-104890400D02*
X135504100Y-104403100D01*
X135504100Y-104403100D02*
X136930200Y-101174300D01*
X136930200Y-101174300D02*
X138411300Y-97657300D01*
X138411300Y-97657300D02*
X139250000Y-96817900D01*
X139250000Y-96817900D02*
X139542900Y-96525000D01*
X139542900Y-96525000D02*
X139750000Y-96525000D01*
X139750000Y-96525000D02*
X140250000Y-96525000D01*
X140250000Y-96525000D02*
X140550000Y-96225000D01*
X157370000Y-96225000D02*
X157070000Y-95925000D01*
X157070000Y-95925000D02*
X156570000Y-95925000D01*
X156570000Y-95925000D02*
X156362900Y-95925000D01*
X156362900Y-95925000D02*
X149034200Y-93437400D01*
X149034200Y-93437400D02*
X148984500Y-93424900D01*
X148984500Y-93424900D02*
X147355500Y-93424900D01*
X147355500Y-93424900D02*
X147305800Y-93437400D01*
X147305800Y-93437400D02*
X146805700Y-93644800D01*
X146805700Y-93644800D02*
X141557100Y-95925000D01*
X141557100Y-95925000D02*
X141350000Y-95925000D01*
X141350000Y-95925000D02*
X140850000Y-95925000D01*
X140850000Y-95925000D02*
X140550000Y-96225000D01*
X140550000Y-96225000D02*
X140250000Y-96014900D01*
X140250000Y-96014900D02*
X139750000Y-96014900D01*
X139750000Y-96014900D02*
X129162400Y-96014900D01*
X129162400Y-96014900D02*
X129115500Y-96026700D01*
X129115500Y-96026700D02*
X128591000Y-96199200D01*
X128591000Y-96199200D02*
X128388400Y-96250100D01*
X128388400Y-96250100D02*
X128148400Y-96250100D01*
X128148400Y-96250100D02*
X126801600Y-96250100D01*
X126801600Y-96250100D02*
X125201600Y-96250100D01*
X125201600Y-96250100D02*
X124934000Y-96139300D01*
X124934000Y-96139300D02*
X119055000Y-93450000D01*
X97665000Y-142259000D02*
X93169800Y-132664300D01*
X93169800Y-132664300D02*
X92962400Y-132164200D01*
X92962400Y-132164200D02*
X92949900Y-132114500D01*
X92949900Y-132114500D02*
X91105100Y-123585500D01*
X91105100Y-123585500D02*
X89585000Y-116659200D01*
X89585000Y-116659200D02*
X89392000Y-116193100D01*
X89392000Y-116193100D02*
X88291900Y-115093000D01*
X88291900Y-115093000D02*
X87825800Y-114900000D01*
X87825800Y-114900000D02*
X87045000Y-114900000D01*
X161785000Y-64455000D02*
X161785000Y-65136400D01*
X161785000Y-65136400D02*
X161901900Y-65418600D01*
X161901900Y-65418600D02*
X162861400Y-66378100D01*
X162861400Y-66378100D02*
X166558300Y-69946100D01*
X166558300Y-69946100D02*
X167703900Y-71091700D01*
X167703900Y-71091700D02*
X167730200Y-71135700D01*
X167730200Y-71135700D02*
X167937600Y-71635800D01*
X167937600Y-71635800D02*
X167950100Y-71685500D01*
X167950100Y-71685500D02*
X167950100Y-84385500D01*
X167950100Y-84385500D02*
X167950100Y-86014500D01*
X167950100Y-86014500D02*
X167937600Y-86064200D01*
X167937600Y-86064200D02*
X167730200Y-86564300D01*
X167730200Y-86564300D02*
X166250000Y-90025000D01*
X165450001Y-111825001D02*
X166250000Y-112625000D01*
X165450001Y-105453997D02*
X165450001Y-111825001D01*
X166690001Y-104213997D02*
X165450001Y-105453997D01*
X166690001Y-95408999D02*
X166690001Y-104213997D01*
X163449999Y-92168997D02*
X166690001Y-95408999D01*
X163449999Y-75240187D02*
X163449999Y-92168997D01*
X153674813Y-65465001D02*
X163449999Y-75240187D01*
X153242999Y-65465001D02*
X153674813Y-65465001D01*
X152254999Y-64477001D02*
X153242999Y-65465001D01*
X152254999Y-59920001D02*
X152254999Y-64477001D01*
X154565001Y-57609999D02*
X152254999Y-59920001D01*
X158142001Y-57609999D02*
X154565001Y-57609999D01*
X162805000Y-62272998D02*
X158142001Y-57609999D01*
X162805000Y-62675000D02*
X162805000Y-62272998D01*
X147912400Y-128739200D02*
X149430000Y-134075000D01*
X147899900Y-128689500D02*
X147912400Y-128739200D01*
X147899900Y-127060500D02*
X147899900Y-128689500D01*
X147912400Y-127010800D02*
X147899900Y-127060500D01*
X148119800Y-126510700D02*
X147912400Y-127010800D01*
X148146100Y-126466700D02*
X148119800Y-126510700D01*
X149407300Y-124685000D02*
X148146100Y-126466700D01*
X150723900Y-122573300D02*
X149407300Y-124685000D01*
X150750200Y-122529300D02*
X150723900Y-122573300D01*
X150957600Y-122029200D02*
X150750200Y-122529300D01*
X152163900Y-117250700D02*
X150957600Y-122029200D01*
X152467100Y-116519200D02*
X152163900Y-117250700D01*
X153389400Y-114633600D02*
X152467100Y-116519200D01*
X153683600Y-113923900D02*
X153389400Y-114633600D01*
X153770000Y-113579800D02*
X153683600Y-113923900D01*
X153770000Y-111887900D02*
X153770000Y-113579800D01*
X153929500Y-111502800D02*
X153770000Y-111887900D01*
X157373900Y-107308300D02*
X153929500Y-111502800D01*
X157400200Y-107264300D02*
X157373900Y-107308300D01*
X157607600Y-106764200D02*
X157400200Y-107264300D01*
X160005200Y-99578800D02*
X157607600Y-106764200D01*
X160010000Y-99559700D02*
X160005200Y-99578800D01*
X160010000Y-97681100D02*
X160010000Y-99559700D01*
X160170100Y-96598400D02*
X160010000Y-97681100D01*
X160641500Y-84174400D02*
X160170100Y-96598400D01*
X160736000Y-83798000D02*
X160641500Y-84174400D01*
X161179300Y-82722200D02*
X160736000Y-83798000D01*
X161509900Y-81383000D02*
X161179300Y-82722200D01*
X161575100Y-80895900D02*
X161509900Y-81383000D01*
X161575100Y-79549100D02*
X161575100Y-80895900D01*
X161575100Y-77801700D02*
X161575100Y-79549100D01*
X161223000Y-75305200D02*
X161575100Y-77801700D01*
X161220100Y-75293600D02*
X161223000Y-75305200D01*
X161024000Y-74820700D02*
X161220100Y-75293600D01*
X161003400Y-74783200D02*
X161024000Y-74820700D01*
X160988800Y-74758900D02*
X161003400Y-74783200D01*
X159863600Y-73633700D02*
X160988800Y-74758900D01*
X159839300Y-73619100D02*
X159863600Y-73633700D01*
X159355000Y-73418300D02*
X159839300Y-73619100D01*
X142375900Y-66690600D02*
X159355000Y-73418300D01*
X141500400Y-66327700D02*
X142375900Y-66690600D01*
X141439800Y-66296900D02*
X141500400Y-66327700D01*
X140949800Y-66003400D02*
X141439800Y-66296900D01*
X140858000Y-65936800D02*
X140949800Y-66003400D01*
X139305600Y-64386500D02*
X140858000Y-65936800D01*
X158575000Y-81175000D02*
X158075000Y-81627500D01*
X158075000Y-81627500D02*
X157575000Y-81627500D01*
X157575000Y-81627500D02*
X157367900Y-81627500D01*
X157367900Y-81627500D02*
X153216000Y-85239300D01*
X153216000Y-85239300D02*
X152948400Y-85350100D01*
X152948400Y-85350100D02*
X146664200Y-87712600D01*
X146664200Y-87712600D02*
X146614500Y-87725100D01*
X146614500Y-87725100D02*
X144985500Y-87725100D01*
X144985500Y-87725100D02*
X140084500Y-87224900D01*
X140084500Y-87224900D02*
X138455500Y-87224900D01*
X138455500Y-87224900D02*
X134759200Y-87316700D01*
X134759200Y-87316700D02*
X133610300Y-87316700D01*
X133610300Y-87316700D02*
X132586900Y-87540300D01*
X132586900Y-87540300D02*
X127762000Y-88130000D01*
X127762000Y-88130000D02*
X125863000Y-88130000D01*
X125863000Y-88130000D02*
X125817100Y-88141500D01*
X125817100Y-88141500D02*
X119055000Y-90910000D01*
X78145000Y-101278000D02*
X86017900Y-94149000D01*
X86017900Y-94149000D02*
X86225000Y-94149000D01*
X86225000Y-94149000D02*
X86725000Y-94149000D01*
X86725000Y-94149000D02*
X87025000Y-93849000D01*
X97020000Y-101125000D02*
X96005700Y-94757000D01*
X96005700Y-94757000D02*
X96005700Y-93293000D01*
X96005700Y-93293000D02*
X96161300Y-92917300D01*
X96161300Y-92917300D02*
X97000000Y-92077900D01*
X97000000Y-92077900D02*
X97292900Y-91785000D01*
X97292900Y-91785000D02*
X97500000Y-91785000D01*
X97500000Y-91785000D02*
X98000000Y-91785000D01*
X98000000Y-91785000D02*
X98300000Y-91485000D01*
X134350000Y-89650000D02*
X127682100Y-93150000D01*
X127682100Y-93150000D02*
X127475000Y-93150000D01*
X127475000Y-93150000D02*
X126975000Y-93150000D01*
X126975000Y-93150000D02*
X126675000Y-93450000D01*
X156090000Y-112625000D02*
X156090000Y-113798500D01*
X156090000Y-113798500D02*
X156059100Y-113991800D01*
X156059100Y-113991800D02*
X155907500Y-114594300D01*
X155907500Y-114594300D02*
X155871300Y-114705200D01*
X155871300Y-114705200D02*
X154569900Y-117976600D01*
X154569900Y-117976600D02*
X154569900Y-118576600D01*
X154569900Y-118576600D02*
X154569900Y-119923400D01*
X154569900Y-119923400D02*
X154680700Y-120191000D01*
X154680700Y-120191000D02*
X154855200Y-120574500D01*
X154855200Y-120574500D02*
X155745500Y-121464800D01*
X155745500Y-121464800D02*
X155937500Y-121544300D01*
X155937500Y-121544300D02*
X157202500Y-121544300D01*
X157202500Y-121544300D02*
X157370000Y-121490000D01*
M02*
