G04 #@! TF.GenerationSoftware,KiCad,Pcbnew,(5.1.5)-3*
G04 #@! TF.CreationDate,2020-02-24T21:21:35+03:00*
G04 #@! TF.ProjectId,valveControllerPCB,76616c76-6543-46f6-9e74-726f6c6c6572,rev?*
G04 #@! TF.SameCoordinates,Original*
G04 #@! TF.FileFunction,Legend,Bot*
G04 #@! TF.FilePolarity,Positive*
%FSLAX46Y46*%
G04 Gerber Fmt 4.6, Leading zero omitted, Abs format (unit mm)*
G04 Created by KiCad (PCBNEW (5.1.5)-3) date 2020-02-24 21:21:35*
%MOMM*%
%LPD*%
G04 APERTURE LIST*
%ADD10C,0.300000*%
%ADD11C,0.120000*%
%ADD12C,0.150000*%
G04 APERTURE END LIST*
D10*
X112630952Y-148224761D02*
X112630952Y-146891428D01*
X112630952Y-147081904D02*
X112535714Y-146986666D01*
X112345238Y-146891428D01*
X112059523Y-146891428D01*
X111869047Y-146986666D01*
X111773809Y-147177142D01*
X111773809Y-148224761D01*
X111773809Y-147177142D02*
X111678571Y-146986666D01*
X111488095Y-146891428D01*
X111202380Y-146891428D01*
X111011904Y-146986666D01*
X110916666Y-147177142D01*
X110916666Y-148224761D01*
X109107142Y-148224761D02*
X109107142Y-147177142D01*
X109202380Y-146986666D01*
X109392857Y-146891428D01*
X109773809Y-146891428D01*
X109964285Y-146986666D01*
X109107142Y-148129523D02*
X109297619Y-148224761D01*
X109773809Y-148224761D01*
X109964285Y-148129523D01*
X110059523Y-147939047D01*
X110059523Y-147748571D01*
X109964285Y-147558095D01*
X109773809Y-147462857D01*
X109297619Y-147462857D01*
X109107142Y-147367619D01*
X107297619Y-146891428D02*
X107297619Y-148224761D01*
X108154761Y-146891428D02*
X108154761Y-147939047D01*
X108059523Y-148129523D01*
X107869047Y-148224761D01*
X107583333Y-148224761D01*
X107392857Y-148129523D01*
X107297619Y-148034285D01*
X106535714Y-146891428D02*
X106059523Y-148224761D01*
X105583333Y-146891428D01*
X104059523Y-148129523D02*
X104250000Y-148224761D01*
X104630952Y-148224761D01*
X104821428Y-148129523D01*
X104916666Y-147939047D01*
X104916666Y-147177142D01*
X104821428Y-146986666D01*
X104630952Y-146891428D01*
X104250000Y-146891428D01*
X104059523Y-146986666D01*
X103964285Y-147177142D01*
X103964285Y-147367619D01*
X104916666Y-147558095D01*
X103392857Y-146891428D02*
X102630952Y-146891428D01*
X103107142Y-148224761D02*
X103107142Y-146510476D01*
X103011904Y-146320000D01*
X102821428Y-146224761D01*
X102630952Y-146224761D01*
X101202380Y-148129523D02*
X101392857Y-148224761D01*
X101773809Y-148224761D01*
X101964285Y-148129523D01*
X102059523Y-147939047D01*
X102059523Y-147177142D01*
X101964285Y-146986666D01*
X101773809Y-146891428D01*
X101392857Y-146891428D01*
X101202380Y-146986666D01*
X101107142Y-147177142D01*
X101107142Y-147367619D01*
X102059523Y-147558095D01*
X100250000Y-148224761D02*
X100250000Y-146891428D01*
X100250000Y-147272380D02*
X100154761Y-147081904D01*
X100059523Y-146986666D01*
X99869047Y-146891428D01*
X99678571Y-146891428D01*
X99011904Y-148224761D02*
X99011904Y-146891428D01*
X99011904Y-147272380D02*
X98916666Y-147081904D01*
X98821428Y-146986666D01*
X98630952Y-146891428D01*
X98440476Y-146891428D01*
X97011904Y-148129523D02*
X97202380Y-148224761D01*
X97583333Y-148224761D01*
X97773809Y-148129523D01*
X97869047Y-147939047D01*
X97869047Y-147177142D01*
X97773809Y-146986666D01*
X97583333Y-146891428D01*
X97202380Y-146891428D01*
X97011904Y-146986666D01*
X96916666Y-147177142D01*
X96916666Y-147367619D01*
X97869047Y-147558095D01*
X96345238Y-146891428D02*
X95583333Y-146891428D01*
X96059523Y-146224761D02*
X96059523Y-147939047D01*
X95964285Y-148129523D01*
X95773809Y-148224761D01*
X95583333Y-148224761D01*
X93678571Y-147272380D02*
X93773809Y-147177142D01*
X93964285Y-147081904D01*
X94154761Y-147081904D01*
X94345238Y-147177142D01*
X94440476Y-147272380D01*
X94535714Y-147462857D01*
X94535714Y-147653333D01*
X94440476Y-147843809D01*
X94345238Y-147939047D01*
X94154761Y-148034285D01*
X93964285Y-148034285D01*
X93773809Y-147939047D01*
X93678571Y-147843809D01*
X93678571Y-147081904D02*
X93678571Y-147843809D01*
X93583333Y-147939047D01*
X93488095Y-147939047D01*
X93297619Y-147843809D01*
X93202380Y-147653333D01*
X93202380Y-147177142D01*
X93392857Y-146891428D01*
X93678571Y-146700952D01*
X94059523Y-146605714D01*
X94440476Y-146700952D01*
X94726190Y-146891428D01*
X94916666Y-147177142D01*
X95011904Y-147558095D01*
X94916666Y-147939047D01*
X94726190Y-148224761D01*
X94440476Y-148415238D01*
X94059523Y-148510476D01*
X93678571Y-148415238D01*
X93392857Y-148224761D01*
X91488095Y-146891428D02*
X91488095Y-148510476D01*
X91583333Y-148700952D01*
X91678571Y-148796190D01*
X91869047Y-148891428D01*
X92154761Y-148891428D01*
X92345238Y-148796190D01*
X91488095Y-148129523D02*
X91678571Y-148224761D01*
X92059523Y-148224761D01*
X92250000Y-148129523D01*
X92345238Y-148034285D01*
X92440476Y-147843809D01*
X92440476Y-147272380D01*
X92345238Y-147081904D01*
X92250000Y-146986666D01*
X92059523Y-146891428D01*
X91678571Y-146891428D01*
X91488095Y-146986666D01*
X90535714Y-148224761D02*
X90535714Y-146891428D01*
X90535714Y-147081904D02*
X90440476Y-146986666D01*
X90250000Y-146891428D01*
X89964285Y-146891428D01*
X89773809Y-146986666D01*
X89678571Y-147177142D01*
X89678571Y-148224761D01*
X89678571Y-147177142D02*
X89583333Y-146986666D01*
X89392857Y-146891428D01*
X89107142Y-146891428D01*
X88916666Y-146986666D01*
X88821428Y-147177142D01*
X88821428Y-148224761D01*
X87011904Y-148224761D02*
X87011904Y-147177142D01*
X87107142Y-146986666D01*
X87297619Y-146891428D01*
X87678571Y-146891428D01*
X87869047Y-146986666D01*
X87011904Y-148129523D02*
X87202380Y-148224761D01*
X87678571Y-148224761D01*
X87869047Y-148129523D01*
X87964285Y-147939047D01*
X87964285Y-147748571D01*
X87869047Y-147558095D01*
X87678571Y-147462857D01*
X87202380Y-147462857D01*
X87011904Y-147367619D01*
X86059523Y-148224761D02*
X86059523Y-146891428D01*
X86059523Y-146224761D02*
X86154761Y-146320000D01*
X86059523Y-146415238D01*
X85964285Y-146320000D01*
X86059523Y-146224761D01*
X86059523Y-146415238D01*
X84821428Y-148224761D02*
X85011904Y-148129523D01*
X85107142Y-147939047D01*
X85107142Y-146224761D01*
X84059523Y-148034285D02*
X83964285Y-148129523D01*
X84059523Y-148224761D01*
X84154761Y-148129523D01*
X84059523Y-148034285D01*
X84059523Y-148224761D01*
X82250000Y-148129523D02*
X82440476Y-148224761D01*
X82821428Y-148224761D01*
X83011904Y-148129523D01*
X83107142Y-148034285D01*
X83202380Y-147843809D01*
X83202380Y-147272380D01*
X83107142Y-147081904D01*
X83011904Y-146986666D01*
X82821428Y-146891428D01*
X82440476Y-146891428D01*
X82250000Y-146986666D01*
X81107142Y-148224761D02*
X81297619Y-148129523D01*
X81392857Y-148034285D01*
X81488095Y-147843809D01*
X81488095Y-147272380D01*
X81392857Y-147081904D01*
X81297619Y-146986666D01*
X81107142Y-146891428D01*
X80821428Y-146891428D01*
X80630952Y-146986666D01*
X80535714Y-147081904D01*
X80440476Y-147272380D01*
X80440476Y-147843809D01*
X80535714Y-148034285D01*
X80630952Y-148129523D01*
X80821428Y-148224761D01*
X81107142Y-148224761D01*
X79583333Y-148224761D02*
X79583333Y-146891428D01*
X79583333Y-147081904D02*
X79488095Y-146986666D01*
X79297619Y-146891428D01*
X79011904Y-146891428D01*
X78821428Y-146986666D01*
X78726190Y-147177142D01*
X78726190Y-148224761D01*
X78726190Y-147177142D02*
X78630952Y-146986666D01*
X78440476Y-146891428D01*
X78154761Y-146891428D01*
X77964285Y-146986666D01*
X77869047Y-147177142D01*
X77869047Y-148224761D01*
D11*
X152645000Y-80380000D02*
X149705000Y-80380000D01*
X152645000Y-80140000D02*
X149705000Y-80140000D01*
X152645000Y-80260000D02*
X149705000Y-80260000D01*
X149705000Y-75720000D02*
X149835000Y-75720000D01*
X149705000Y-81160000D02*
X149705000Y-75720000D01*
X149835000Y-81160000D02*
X149705000Y-81160000D01*
X152645000Y-75720000D02*
X152515000Y-75720000D01*
X152645000Y-81160000D02*
X152645000Y-75720000D01*
X152515000Y-81160000D02*
X152645000Y-81160000D01*
X134220000Y-80780000D02*
X131280000Y-80780000D01*
X134220000Y-80540000D02*
X131280000Y-80540000D01*
X134220000Y-80660000D02*
X131280000Y-80660000D01*
X131280000Y-76120000D02*
X131410000Y-76120000D01*
X131280000Y-81560000D02*
X131280000Y-76120000D01*
X131410000Y-81560000D02*
X131280000Y-81560000D01*
X134220000Y-76120000D02*
X134090000Y-76120000D01*
X134220000Y-81560000D02*
X134220000Y-76120000D01*
X134090000Y-81560000D02*
X134220000Y-81560000D01*
X111630000Y-76845000D02*
X114570000Y-76845000D01*
X111630000Y-77085000D02*
X114570000Y-77085000D01*
X111630000Y-76965000D02*
X114570000Y-76965000D01*
X114570000Y-81505000D02*
X114440000Y-81505000D01*
X114570000Y-76065000D02*
X114570000Y-81505000D01*
X114440000Y-76065000D02*
X114570000Y-76065000D01*
X111630000Y-81505000D02*
X111760000Y-81505000D01*
X111630000Y-76065000D02*
X111630000Y-81505000D01*
X111760000Y-76065000D02*
X111630000Y-76065000D01*
X96295000Y-81330000D02*
X93355000Y-81330000D01*
X96295000Y-81090000D02*
X93355000Y-81090000D01*
X96295000Y-81210000D02*
X93355000Y-81210000D01*
X93355000Y-76670000D02*
X93485000Y-76670000D01*
X93355000Y-82110000D02*
X93355000Y-76670000D01*
X93485000Y-82110000D02*
X93355000Y-82110000D01*
X96295000Y-76670000D02*
X96165000Y-76670000D01*
X96295000Y-82110000D02*
X96295000Y-76670000D01*
X96165000Y-82110000D02*
X96295000Y-82110000D01*
X78270000Y-81580000D02*
X75330000Y-81580000D01*
X78270000Y-81340000D02*
X75330000Y-81340000D01*
X78270000Y-81460000D02*
X75330000Y-81460000D01*
X75330000Y-76920000D02*
X75460000Y-76920000D01*
X75330000Y-82360000D02*
X75330000Y-76920000D01*
X75460000Y-82360000D02*
X75330000Y-82360000D01*
X78270000Y-76920000D02*
X78140000Y-76920000D01*
X78270000Y-82360000D02*
X78270000Y-76920000D01*
X78140000Y-82360000D02*
X78270000Y-82360000D01*
X127200000Y-113954775D02*
X126700000Y-113954775D01*
X126950000Y-114204775D02*
X126950000Y-113704775D01*
X125759000Y-108799000D02*
X125191000Y-108799000D01*
X125993000Y-108839000D02*
X124957000Y-108839000D01*
X126152000Y-108879000D02*
X124798000Y-108879000D01*
X126280000Y-108919000D02*
X124670000Y-108919000D01*
X126390000Y-108959000D02*
X124560000Y-108959000D01*
X126486000Y-108999000D02*
X124464000Y-108999000D01*
X126573000Y-109039000D02*
X124377000Y-109039000D01*
X126653000Y-109079000D02*
X124297000Y-109079000D01*
X124435000Y-109119000D02*
X124224000Y-109119000D01*
X126726000Y-109119000D02*
X126515000Y-109119000D01*
X124435000Y-109159000D02*
X124156000Y-109159000D01*
X126794000Y-109159000D02*
X126515000Y-109159000D01*
X124435000Y-109199000D02*
X124092000Y-109199000D01*
X126858000Y-109199000D02*
X126515000Y-109199000D01*
X124435000Y-109239000D02*
X124032000Y-109239000D01*
X126918000Y-109239000D02*
X126515000Y-109239000D01*
X124435000Y-109279000D02*
X123975000Y-109279000D01*
X126975000Y-109279000D02*
X126515000Y-109279000D01*
X124435000Y-109319000D02*
X123921000Y-109319000D01*
X127029000Y-109319000D02*
X126515000Y-109319000D01*
X124435000Y-109359000D02*
X123870000Y-109359000D01*
X127080000Y-109359000D02*
X126515000Y-109359000D01*
X124435000Y-109399000D02*
X123822000Y-109399000D01*
X127128000Y-109399000D02*
X126515000Y-109399000D01*
X124435000Y-109439000D02*
X123776000Y-109439000D01*
X127174000Y-109439000D02*
X126515000Y-109439000D01*
X124435000Y-109479000D02*
X123732000Y-109479000D01*
X127218000Y-109479000D02*
X126515000Y-109479000D01*
X124435000Y-109519000D02*
X123690000Y-109519000D01*
X127260000Y-109519000D02*
X126515000Y-109519000D01*
X124435000Y-109559000D02*
X123649000Y-109559000D01*
X127301000Y-109559000D02*
X126515000Y-109559000D01*
X124435000Y-109599000D02*
X123611000Y-109599000D01*
X127339000Y-109599000D02*
X126515000Y-109599000D01*
X124435000Y-109639000D02*
X123574000Y-109639000D01*
X127376000Y-109639000D02*
X126515000Y-109639000D01*
X124435000Y-109679000D02*
X123538000Y-109679000D01*
X127412000Y-109679000D02*
X126515000Y-109679000D01*
X124435000Y-109719000D02*
X123504000Y-109719000D01*
X127446000Y-109719000D02*
X126515000Y-109719000D01*
X124435000Y-109759000D02*
X123471000Y-109759000D01*
X127479000Y-109759000D02*
X126515000Y-109759000D01*
X124435000Y-109799000D02*
X123440000Y-109799000D01*
X127510000Y-109799000D02*
X126515000Y-109799000D01*
X124435000Y-109839000D02*
X123410000Y-109839000D01*
X127540000Y-109839000D02*
X126515000Y-109839000D01*
X124435000Y-109879000D02*
X123380000Y-109879000D01*
X127570000Y-109879000D02*
X126515000Y-109879000D01*
X124435000Y-109919000D02*
X123353000Y-109919000D01*
X127597000Y-109919000D02*
X126515000Y-109919000D01*
X124435000Y-109959000D02*
X123326000Y-109959000D01*
X127624000Y-109959000D02*
X126515000Y-109959000D01*
X124435000Y-109999000D02*
X123300000Y-109999000D01*
X127650000Y-109999000D02*
X126515000Y-109999000D01*
X124435000Y-110039000D02*
X123275000Y-110039000D01*
X127675000Y-110039000D02*
X126515000Y-110039000D01*
X124435000Y-110079000D02*
X123251000Y-110079000D01*
X127699000Y-110079000D02*
X126515000Y-110079000D01*
X124435000Y-110119000D02*
X123228000Y-110119000D01*
X127722000Y-110119000D02*
X126515000Y-110119000D01*
X124435000Y-110159000D02*
X123207000Y-110159000D01*
X127743000Y-110159000D02*
X126515000Y-110159000D01*
X124435000Y-110199000D02*
X123185000Y-110199000D01*
X127765000Y-110199000D02*
X126515000Y-110199000D01*
X124435000Y-110239000D02*
X123165000Y-110239000D01*
X127785000Y-110239000D02*
X126515000Y-110239000D01*
X124435000Y-110279000D02*
X123146000Y-110279000D01*
X127804000Y-110279000D02*
X126515000Y-110279000D01*
X124435000Y-110319000D02*
X123127000Y-110319000D01*
X127823000Y-110319000D02*
X126515000Y-110319000D01*
X124435000Y-110359000D02*
X123110000Y-110359000D01*
X127840000Y-110359000D02*
X126515000Y-110359000D01*
X124435000Y-110399000D02*
X123093000Y-110399000D01*
X127857000Y-110399000D02*
X126515000Y-110399000D01*
X124435000Y-110439000D02*
X123077000Y-110439000D01*
X127873000Y-110439000D02*
X126515000Y-110439000D01*
X124435000Y-110479000D02*
X123061000Y-110479000D01*
X127889000Y-110479000D02*
X126515000Y-110479000D01*
X124435000Y-110519000D02*
X123047000Y-110519000D01*
X127903000Y-110519000D02*
X126515000Y-110519000D01*
X124435000Y-110559000D02*
X123033000Y-110559000D01*
X127917000Y-110559000D02*
X126515000Y-110559000D01*
X124435000Y-110599000D02*
X123020000Y-110599000D01*
X127930000Y-110599000D02*
X126515000Y-110599000D01*
X124435000Y-110639000D02*
X123007000Y-110639000D01*
X127943000Y-110639000D02*
X126515000Y-110639000D01*
X124435000Y-110679000D02*
X122995000Y-110679000D01*
X127955000Y-110679000D02*
X126515000Y-110679000D01*
X124435000Y-110720000D02*
X122984000Y-110720000D01*
X127966000Y-110720000D02*
X126515000Y-110720000D01*
X124435000Y-110760000D02*
X122974000Y-110760000D01*
X127976000Y-110760000D02*
X126515000Y-110760000D01*
X124435000Y-110800000D02*
X122964000Y-110800000D01*
X127986000Y-110800000D02*
X126515000Y-110800000D01*
X124435000Y-110840000D02*
X122955000Y-110840000D01*
X127995000Y-110840000D02*
X126515000Y-110840000D01*
X124435000Y-110880000D02*
X122947000Y-110880000D01*
X128003000Y-110880000D02*
X126515000Y-110880000D01*
X124435000Y-110920000D02*
X122939000Y-110920000D01*
X128011000Y-110920000D02*
X126515000Y-110920000D01*
X124435000Y-110960000D02*
X122932000Y-110960000D01*
X128018000Y-110960000D02*
X126515000Y-110960000D01*
X124435000Y-111000000D02*
X122925000Y-111000000D01*
X128025000Y-111000000D02*
X126515000Y-111000000D01*
X124435000Y-111040000D02*
X122919000Y-111040000D01*
X128031000Y-111040000D02*
X126515000Y-111040000D01*
X124435000Y-111080000D02*
X122914000Y-111080000D01*
X128036000Y-111080000D02*
X126515000Y-111080000D01*
X124435000Y-111120000D02*
X122910000Y-111120000D01*
X128040000Y-111120000D02*
X126515000Y-111120000D01*
X124435000Y-111160000D02*
X122906000Y-111160000D01*
X128044000Y-111160000D02*
X126515000Y-111160000D01*
X128048000Y-111200000D02*
X122902000Y-111200000D01*
X128051000Y-111240000D02*
X122899000Y-111240000D01*
X128053000Y-111280000D02*
X122897000Y-111280000D01*
X128054000Y-111320000D02*
X122896000Y-111320000D01*
X128055000Y-111360000D02*
X122895000Y-111360000D01*
X128055000Y-111400000D02*
X122895000Y-111400000D01*
X128095000Y-111400000D02*
G75*
G03X128095000Y-111400000I-2620000J0D01*
G01*
D12*
X154097380Y-77701904D02*
X153097380Y-77701904D01*
X153097380Y-77940000D01*
X153145000Y-78082857D01*
X153240238Y-78178095D01*
X153335476Y-78225714D01*
X153525952Y-78273333D01*
X153668809Y-78273333D01*
X153859285Y-78225714D01*
X153954523Y-78178095D01*
X154049761Y-78082857D01*
X154097380Y-77940000D01*
X154097380Y-77701904D01*
X153097380Y-79178095D02*
X153097380Y-78701904D01*
X153573571Y-78654285D01*
X153525952Y-78701904D01*
X153478333Y-78797142D01*
X153478333Y-79035238D01*
X153525952Y-79130476D01*
X153573571Y-79178095D01*
X153668809Y-79225714D01*
X153906904Y-79225714D01*
X154002142Y-79178095D01*
X154049761Y-79130476D01*
X154097380Y-79035238D01*
X154097380Y-78797142D01*
X154049761Y-78701904D01*
X154002142Y-78654285D01*
X153727380Y-81988095D02*
X152727380Y-81988095D01*
X153727380Y-82559523D02*
X153155952Y-82130952D01*
X152727380Y-82559523D02*
X153298809Y-81988095D01*
X135672380Y-78101904D02*
X134672380Y-78101904D01*
X134672380Y-78340000D01*
X134720000Y-78482857D01*
X134815238Y-78578095D01*
X134910476Y-78625714D01*
X135100952Y-78673333D01*
X135243809Y-78673333D01*
X135434285Y-78625714D01*
X135529523Y-78578095D01*
X135624761Y-78482857D01*
X135672380Y-78340000D01*
X135672380Y-78101904D01*
X135005714Y-79530476D02*
X135672380Y-79530476D01*
X134624761Y-79292380D02*
X135339047Y-79054285D01*
X135339047Y-79673333D01*
X135302380Y-82388095D02*
X134302380Y-82388095D01*
X135302380Y-82959523D02*
X134730952Y-82530952D01*
X134302380Y-82959523D02*
X134873809Y-82388095D01*
X111082380Y-78046904D02*
X110082380Y-78046904D01*
X110082380Y-78285000D01*
X110130000Y-78427857D01*
X110225238Y-78523095D01*
X110320476Y-78570714D01*
X110510952Y-78618333D01*
X110653809Y-78618333D01*
X110844285Y-78570714D01*
X110939523Y-78523095D01*
X111034761Y-78427857D01*
X111082380Y-78285000D01*
X111082380Y-78046904D01*
X110082380Y-78951666D02*
X110082380Y-79570714D01*
X110463333Y-79237380D01*
X110463333Y-79380238D01*
X110510952Y-79475476D01*
X110558571Y-79523095D01*
X110653809Y-79570714D01*
X110891904Y-79570714D01*
X110987142Y-79523095D01*
X111034761Y-79475476D01*
X111082380Y-79380238D01*
X111082380Y-79094523D01*
X111034761Y-78999285D01*
X110987142Y-78951666D01*
X111452380Y-74713095D02*
X110452380Y-74713095D01*
X111452380Y-75284523D02*
X110880952Y-74855952D01*
X110452380Y-75284523D02*
X111023809Y-74713095D01*
X97747380Y-78651904D02*
X96747380Y-78651904D01*
X96747380Y-78890000D01*
X96795000Y-79032857D01*
X96890238Y-79128095D01*
X96985476Y-79175714D01*
X97175952Y-79223333D01*
X97318809Y-79223333D01*
X97509285Y-79175714D01*
X97604523Y-79128095D01*
X97699761Y-79032857D01*
X97747380Y-78890000D01*
X97747380Y-78651904D01*
X96842619Y-79604285D02*
X96795000Y-79651904D01*
X96747380Y-79747142D01*
X96747380Y-79985238D01*
X96795000Y-80080476D01*
X96842619Y-80128095D01*
X96937857Y-80175714D01*
X97033095Y-80175714D01*
X97175952Y-80128095D01*
X97747380Y-79556666D01*
X97747380Y-80175714D01*
X97377380Y-82938095D02*
X96377380Y-82938095D01*
X97377380Y-83509523D02*
X96805952Y-83080952D01*
X96377380Y-83509523D02*
X96948809Y-82938095D01*
X79722380Y-78901904D02*
X78722380Y-78901904D01*
X78722380Y-79140000D01*
X78770000Y-79282857D01*
X78865238Y-79378095D01*
X78960476Y-79425714D01*
X79150952Y-79473333D01*
X79293809Y-79473333D01*
X79484285Y-79425714D01*
X79579523Y-79378095D01*
X79674761Y-79282857D01*
X79722380Y-79140000D01*
X79722380Y-78901904D01*
X79722380Y-80425714D02*
X79722380Y-79854285D01*
X79722380Y-80140000D02*
X78722380Y-80140000D01*
X78865238Y-80044761D01*
X78960476Y-79949523D01*
X79008095Y-79854285D01*
X79352380Y-83188095D02*
X78352380Y-83188095D01*
X79352380Y-83759523D02*
X78780952Y-83330952D01*
X78352380Y-83759523D02*
X78923809Y-83188095D01*
X129582142Y-111233333D02*
X129629761Y-111185714D01*
X129677380Y-111042857D01*
X129677380Y-110947619D01*
X129629761Y-110804761D01*
X129534523Y-110709523D01*
X129439285Y-110661904D01*
X129248809Y-110614285D01*
X129105952Y-110614285D01*
X128915476Y-110661904D01*
X128820238Y-110709523D01*
X128725000Y-110804761D01*
X128677380Y-110947619D01*
X128677380Y-111042857D01*
X128725000Y-111185714D01*
X128772619Y-111233333D01*
X129677380Y-112185714D02*
X129677380Y-111614285D01*
X129677380Y-111900000D02*
X128677380Y-111900000D01*
X128820238Y-111804761D01*
X128915476Y-111709523D01*
X128963095Y-111614285D01*
M02*
